NewsreaderDisplay-Bold.ufo
<glyph name="exclam" format="2">
	<unicode hex="0021"/>
	<advance width="595.776"/>
	<outline>
		<contour>
			<point x="512.88" y="1281.792" type="line" smooth="yes"/>
			<point x="512.88" y="1393.616"/>
			<point x="405.648" y="1456.48"/>
			<point x="298.416" y="1456.48" type="curve" smooth="yes"/>
			<point x="191.184" y="1456.48"/>
			<point x="83.6" y="1393.616"/>
			<point x="83.6" y="1281.792" type="curve" smooth="yes"/>
			<point x="83.6" y="1259.68" type="line" smooth="yes"/>
			<point x="83.6" y="1172.112"/>
			<point x="205.96" y="956.16"/>
			<point x="277.824" y="521.32" type="curve"/>
			<point x="317.952" y="521.32" type="line"/>
			<point x="389.816" y="956.16"/>
			<point x="512.88" y="1172.464"/>
			<point x="512.88" y="1259.68" type="curve" smooth="yes"/>
		</contour>
		<contour>
			<point x="298.416" y="347.776" type="curve" smooth="yes"/>
			<point x="187.256" y="347.776"/>
			<point x="108.816" y="267.336"/>
			<point x="108.816" y="162.768" type="curve" smooth="yes"/>
			<point x="108.816" y="58.2"/>
			<point x="187.256" y="-22.24"/>
			<point x="298.416" y="-22.24" type="curve" smooth="yes"/>
			<point x="409.576" y="-22.24"/>
			<point x="488.016" y="58.2"/>
			<point x="488.016" y="162.768" type="curve" smooth="yes"/>
			<point x="488.016" y="267.336"/>
			<point x="409.576" y="347.776"/>
		</contour>
	</outline>
</glyph>
<glyph name="ampersand" format="2">
	<unicode hex="0026"/>
	<advance width="1588.408"/>
	<outline>
		<contour>
			<point x="726.256" y="865.88" type="line"/>
			<point x="1019.672" y="953.128"/>
			<point x="1095.36" y="1055.184"/>
			<point x="1095.36" y="1190" type="curve" smooth="yes"/>
			<point x="1095.36" y="1336.832"/>
			<point x="977.936" y="1456.48"/>
			<point x="719.464" y="1456.48" type="curve" smooth="yes"/>
			<point x="403.648" y="1456.48"/>
			<point x="252.968" y="1292.504"/>
			<point x="252.968" y="1096.008" type="curve" smooth="yes"/>
			<point x="252.968" y="992.656"/>
			<point x="291.856" y="888.288"/>
			<point x="394.808" y="769.632" type="curve" smooth="yes"/>
			<point x="1060.184" y="0" type="line"/>
			<point x="1587.056" y="0" type="line"/>
			<point x="1587.056" y="35.424" type="line"/>
			<point x="1427.104" y="91.032" type="line"/>
			<point x="713.936" y="905.344" type="line" smooth="yes"/>
			<point x="595.6" y="1039.976"/>
			<point x="551.008" y="1135.048"/>
			<point x="551.008" y="1234.216" type="curve" smooth="yes"/>
			<point x="551.008" y="1332.888"/>
			<point x="607.608" y="1388.504"/>
			<point x="692.08" y="1388.504" type="curve" smooth="yes"/>
			<point x="778.44" y="1388.504"/>
			<point x="827" y="1327.296"/>
			<point x="827" y="1196.96" type="curve" smooth="yes"/>
			<point x="827" y="1083.328"/>
			<point x="788.68" y="985.4"/>
			<point x="680.648" y="894.6" type="curve"/>
			<point x="481.984" y="778.152" type="line"/>
			<point x="164.12" y="658.224"/>
			<point x="77.008" y="522.056"/>
			<point x="77.008" y="344.592" type="curve" smooth="yes"/>
			<point x="77.008" y="128.408"/>
			<point x="206.752" y="-26.48"/>
			<point x="492.768" y="-26.48" type="curve" smooth="yes"/>
			<point x="701.304" y="-26.48"/>
			<point x="853.992" y="50.336"/>
			<point x="1023.168" y="238.256" type="curve"/>
			<point x="1097.304" y="293.768" type="line"/>
			<point x="1227.592" y="457.704"/>
			<point x="1309.592" y="611.136"/>
			<point x="1363.168" y="795.744" type="curve"/>
			<point x="1525.392" y="841.76" type="line"/>
			<point x="1525.392" y="874" type="line"/>
			<point x="1017.424" y="874" type="line"/>
			<point x="1017.424" y="841.76" type="line"/>
			<point x="1185.184" y="795.744" type="line"/>
			<point x="1175.144" y="588.088"/>
			<point x="1137.472" y="441.936"/>
			<point x="1070.84" y="345.304" type="curve"/>
			<point x="973.912" y="263.704" type="line"/>
			<point x="893.632" y="193.344"/>
			<point x="817.992" y="165.56"/>
			<point x="719.648" y="165.56" type="curve" smooth="yes"/>
			<point x="502.392" y="165.56"/>
			<point x="396.496" y="318.368"/>
			<point x="396.496" y="494.224" type="curve" smooth="yes"/>
			<point x="396.496" y="590.864"/>
			<point x="424.448" y="696.496"/>
			<point x="502.152" y="764.392" type="curve"/>
		</contour>
	</outline>
</glyph>
<glyph name="quotesingle" format="2">
	<unicode hex="0027"/>
	<advance width="410.768"/>
	<outline>
		<contour>
			<point x="177.312" y="866.848" type="line"/>
			<point x="218.976" y="866.848" type="line"/>
			<point x="365.872" y="1398.832" type="line"/>
			<point x="365.872" y="1430" type="line"/>
			<point x="51.84" y="1430" type="line"/>
			<point x="51.84" y="1398.832" type="line"/>
		</contour>
	</outline>
</glyph>
<glyph name="parenleft" format="2">
	<unicode hex="0028"/>
	<advance width="571.384"/>
	<outline>
		<contour>
			<point x="279.008" y="630.256" type="curve" smooth="yes"/>
			<point x="279.008" y="933.104"/>
			<point x="331.584" y="1138.072"/>
			<point x="528.048" y="1471.888" type="curve"/>
			<point x="496.864" y="1490.48" type="line"/>
			<point x="136.544" y="1051.896"/>
			<point x="64.8" y="890.336"/>
			<point x="64.8" y="630.256" type="curve" smooth="yes"/>
			<point x="64.8" y="370.176"/>
			<point x="136.544" y="208.264"/>
			<point x="496.864" y="-230.32" type="curve"/>
			<point x="528.048" y="-211.728" type="line"/>
			<point x="331.584" y="122.088"/>
			<point x="279.008" y="328.056"/>
		</contour>
	</outline>
</glyph>
<glyph name="parenright" format="2">
	<unicode hex="0029"/>
	<advance width="571.384"/>
	<outline>
		<contour>
			<point x="292.376" y="630.256" type="curve" smooth="yes"/>
			<point x="292.376" y="328.056"/>
			<point x="239.8" y="122.44"/>
			<point x="43.336" y="-211.376" type="curve"/>
			<point x="74.52" y="-229.968" type="line"/>
			<point x="434.84" y="208.616"/>
			<point x="506.584" y="370.176"/>
			<point x="506.584" y="630.256" type="curve" smooth="yes"/>
			<point x="506.584" y="890.336"/>
			<point x="434.84" y="1052.248"/>
			<point x="74.52" y="1490.832" type="curve"/>
			<point x="43.336" y="1472.24" type="line"/>
			<point x="239.8" y="1138.424"/>
			<point x="292.376" y="932.456"/>
		</contour>
	</outline>
</glyph>
<glyph name="asterisk" format="2">
  <advance width="803.6800000000001"/>
  <unicode hex="002A"/>
  <outline>
    <contour>
      <point x="545.44" y="831.712" type="line"/>
      <point x="492.456" y="1076.5439999999999" type="line"/>
      <point x="730.216" y="1142.2079999999999" type="line"/>
      <point x="728.216" y="1174.336" type="line"/>
      <point x="482.86400000000003" y="1198.3519999999999" type="line"/>
      <point x="499.552" y="1449.24" type="line"/>
      <point x="468.72" y="1456.8880000000001" type="line"/>
      <point x="366.0" y="1227.48" type="line"/>
      <point x="129.928" y="1319.76" type="line"/>
      <point x="112.03999999999999" y="1289.6319999999998" type="line"/>
      <point x="301.448" y="1124.2079999999999" type="line"/>
      <point x="140.33599999999998" y="930.488" type="line"/>
      <point x="163.168" y="906.304" type="line"/>
      <point x="380.24" y="1030.528" type="line"/>
      <point x="516.608" y="820.12" type="line"/>
    </contour>
  </outline>
</glyph>
<glyph name="plus" format="2">
	<unicode hex="002B"/>
	<advance width="1150"/>
	<outline>
		<contour>
			<point x="532.28" y="923" type="line"/>
			<point x="532.28" y="101" type="line"/>
			<point x="617.72" y="101" type="line"/>
			<point x="617.72" y="923" type="line"/>
		</contour>
		<contour>
			<point x="986" y="554.72" type="line"/>
			<point x="164" y="554.72" type="line"/>
			<point x="164" y="469.28" type="line"/>
			<point x="986" y="469.28" type="line"/>
		</contour>
	</outline>
</glyph>
<glyph name="comma" format="2">
  <advance width="526.376"/>
  <unicode hex="002C"/>
  <outline>
    <contour>
      <point x="68.576" y="-304.424" type="curve"/>
      <point x="100.70400000000001" y="-338.49600000000004" type="line"/>
      <point x="356.616" y="-188.296"/>
      <point x="446.52" y="-19.544000000000004"/>
      <point x="446.52" y="138.136" type="curve" smooth="yes"/>
      <point x="446.52" y="264.168"/>
      <point x="368.08000000000004" y="343.552"/>
      <point x="256.568" y="343.552" type="curve" smooth="yes"/>
      <point x="144.70399999999998" y="343.552"/>
      <point x="68.024" y="272.76"/>
      <point x="68.024" y="168.192" type="curve" smooth="yes"/>
      <point x="68.024" y="134.136"/>
      <point x="239.536" y="76.976"/>
      <point x="239.536" y="-49.24" type="curve" smooth="yes"/>
      <point x="239.536" y="-151.016"/>
      <point x="184.888" y="-226.608"/>
    </contour>
  </outline>
</glyph>
<glyph name="hyphen" format="2">
  <advance width="666"/>
  <unicode hex="002D"/>
  <outline>
    <contour>
      <point x="111.39200000000001" y="597.68" type="line"/>
      <point x="111.39200000000001" y="442.448" type="line"/>
      <point x="554.624" y="442.448" type="line"/>
      <point x="554.624" y="597.68" type="line"/>
    </contour>
  </outline>
</glyph>
<glyph name="period" format="2">
	<unicode hex="002E"/>
	<advance width="525.616"/>
	<outline>
		<contour>
			<point x="262.808" y="347.776" type="curve" smooth="yes"/>
			<point x="151.648" y="347.776"/>
			<point x="73.208" y="267.336"/>
			<point x="73.208" y="162.768" type="curve" smooth="yes"/>
			<point x="73.208" y="58.2"/>
			<point x="151.648" y="-22.24"/>
			<point x="262.808" y="-22.24" type="curve" smooth="yes"/>
			<point x="373.968" y="-22.24"/>
			<point x="452.408" y="58.2"/>
			<point x="452.408" y="162.768" type="curve" smooth="yes"/>
			<point x="452.408" y="267.336"/>
			<point x="373.968" y="347.776"/>
		</contour>
	</outline>
</glyph>
<glyph name="slash" format="2">
  <advance width="780"/>
  <unicode hex="002F"/>
  <outline>
    <contour>
      <point x="48.576" y="0.0" type="line"/>
      <point x="137.24" y="0.0" type="line"/>
      <point x="734.24" y="1430.0" type="line"/>
      <point x="645.576" y="1430.0" type="line"/>
    </contour>
  </outline>
</glyph>
<glyph name="zero" format="2">
	<unicode hex="0030"/>
	<advance width="1329.6"/>
	<outline>
		<contour>
			<point x="666.856" y="43.496" type="curve" smooth="yes"/>
			<point x="530.597978022" y="43.496"/>
			<point x="453.016" y="246.992"/>
			<point x="453.016" y="759.96" type="curve" smooth="yes"/>
			<point x="453.016" y="1203.416"/>
			<point x="530.5242247191" y="1386.504"/>
			<point x="663.392" y="1386.504" type="curve" smooth="yes"/>
			<point x="799.650021978" y="1386.504"/>
			<point x="877.232" y="1183.008"/>
			<point x="877.232" y="670.04" type="curve" smooth="yes"/>
			<point x="877.232" y="226.584"/>
			<point x="799.7237752809" y="43.496"/>
		</contour>
		<contour>
			<point x="676.224" y="1456.48" type="curve" smooth="yes"/>
			<point x="323.6523185841" y="1456.48"/>
			<point x="70.872" y="1156.184"/>
			<point x="70.872" y="714.944" type="curve" smooth="yes"/>
			<point x="70.872" y="273.056"/>
			<point x="300.2459248658" y="-26.48"/>
			<point x="654.024" y="-26.48" type="curve" smooth="yes"/>
			<point x="1006.5956814159" y="-26.48"/>
			<point x="1259.376" y="273.816"/>
			<point x="1259.376" y="715.056" type="curve" smooth="yes"/>
			<point x="1259.376" y="1156.944"/>
			<point x="1030.0020751342" y="1456.48"/>
		</contour>
	</outline>
</glyph>
<glyph name="one" format="2">
  <advance width="1329.6"/>
  <unicode hex="0031"/>
  <outline>
    <contour>
      <point x="526.792" y="84.83200000000001" type="line"/>
      <point x="241.952" y="33.832" type="line"/>
      <point x="241.952" y="0.0" type="line"/>
      <point x="1187.624" y="0.0" type="line"/>
      <point x="1187.624" y="33.832" type="line"/>
      <point x="918.4879999999999" y="84.83200000000001" type="line"/>
      <point x="918.4879999999999" y="1437.04" type="line"/>
      <point x="868.696" y="1437.04" type="line"/>
      <point x="172.776" y="1104.992" type="line"/>
      <point x="186.95999999999998" y="1060.384" type="line"/>
      <point x="780.864" y="1184.72" type="line"/>
      <point x="526.792" y="1252.296" type="line"/>
    </contour>
  </outline>
</glyph>
<glyph name="colon" format="2">
	<unicode hex="003A"/>
	<advance width="583.248"/>
	<outline>
		<contour>
			<point x="291.624" y="347.776" type="curve" smooth="yes"/>
			<point x="180.464" y="347.776"/>
			<point x="102.024" y="267.336"/>
			<point x="102.024" y="162.768" type="curve" smooth="yes"/>
			<point x="102.024" y="58.2"/>
			<point x="180.464" y="-22.24"/>
			<point x="291.624" y="-22.24" type="curve" smooth="yes"/>
			<point x="402.784" y="-22.24"/>
			<point x="481.224" y="58.2"/>
			<point x="481.224" y="162.768" type="curve" smooth="yes"/>
			<point x="481.224" y="267.336"/>
			<point x="402.784" y="347.776"/>
		</contour>
		<contour>
			<point x="291.624" y="1046.888" type="curve" smooth="yes"/>
			<point x="180.464" y="1046.888"/>
			<point x="102.024" y="966.448"/>
			<point x="102.024" y="861.88" type="curve" smooth="yes"/>
			<point x="102.024" y="757.312"/>
			<point x="180.464" y="676.872"/>
			<point x="291.624" y="676.872" type="curve" smooth="yes"/>
			<point x="402.784" y="676.872"/>
			<point x="481.224" y="757.312"/>
			<point x="481.224" y="861.88" type="curve" smooth="yes"/>
			<point x="481.224" y="966.448"/>
			<point x="402.784" y="1046.888"/>
		</contour>
	</outline>
</glyph>
<glyph name="semicolon" format="2">
	<unicode hex="003B"/>
	<advance width="587.936"/>
	<outline>
		<contour>
			<point x="103.56" y="-304.424" type="curve"/>
			<point x="135.688" y="-338.496" type="line"/>
			<point x="391.6" y="-188.296"/>
			<point x="481.504" y="-19.544"/>
			<point x="481.504" y="138.136" type="curve" smooth="yes"/>
			<point x="481.504" y="264.168"/>
			<point x="403.064" y="343.552"/>
			<point x="291.552" y="343.552" type="curve" smooth="yes"/>
			<point x="179.688" y="343.552"/>
			<point x="103.008" y="272.76"/>
			<point x="103.008" y="168.192" type="curve" smooth="yes"/>
			<point x="103.008" y="134.136"/>
			<point x="274.52" y="76.976"/>
			<point x="274.52" y="-49.24" type="curve" smooth="yes"/>
			<point x="274.52" y="-151.016"/>
			<point x="219.872" y="-226.608"/>
		</contour>
		<contour>
			<point x="290.848" y="1046.24" type="curve" smooth="yes"/>
			<point x="179.688" y="1046.24"/>
			<point x="101.248" y="965.8"/>
			<point x="101.248" y="861.232" type="curve" smooth="yes"/>
			<point x="101.248" y="756.664"/>
			<point x="179.688" y="676.224"/>
			<point x="290.848" y="676.224" type="curve" smooth="yes"/>
			<point x="402.008" y="676.224"/>
			<point x="480.448" y="756.664"/>
			<point x="480.448" y="861.232" type="curve" smooth="yes"/>
			<point x="480.448" y="965.8"/>
			<point x="402.008" y="1046.24"/>
		</contour>
	</outline>
</glyph>
<glyph name="less" format="2">
	<unicode hex="003C"/>
	<advance width="1150"/>
	<outline>
		<contour>
			<point x="165.064" y="480.672" type="line"/>
			<point x="981" y="368.792" type="line"/>
			<point x="981" y="460.584" type="line"/>
			<point x="205.912" y="532.04" type="line"/>
			<point x="205.912" y="495.848" type="line"/>
			<point x="981" y="563.416" type="line"/>
			<point x="981" y="655.208" type="line"/>
			<point x="165.064" y="545.44" type="line"/>
		</contour>
	</outline>
</glyph>
<glyph name="greater" format="2">
	<unicode hex="003E"/>
	<advance width="1150"/>
	<outline>
		<contour>
			<point x="984.936" y="480.672" type="line"/>
			<point x="984.936" y="545.44" type="line"/>
			<point x="169" y="655.208" type="line"/>
			<point x="169" y="563.416" type="line"/>
			<point x="944.088" y="495.848" type="line"/>
			<point x="944.088" y="532.04" type="line"/>
			<point x="169" y="460.584" type="line"/>
			<point x="169" y="368.792" type="line"/>
		</contour>
	</outline>
</glyph>
<glyph name="question" format="2">
	<unicode hex="003F"/>
	<advance width="1017.32"/>
	<outline>
		<contour>
			<point x="343.608" y="1456.48" type="curve" smooth="yes"/>
			<point x="132.408" y="1456.48"/>
			<point x="51.464" y="1388.352"/>
			<point x="51.464" y="1300.208" type="curve" smooth="yes"/>
			<point x="51.464" y="1227.416"/>
			<point x="120.848" y="1165.328"/>
			<point x="176.16" y="1165.328" type="curve" smooth="yes"/>
			<point x="209.528" y="1165.328"/>
			<point x="348.576" y="1354.336"/>
			<point x="546.056" y="1354.336" type="curve" smooth="yes"/>
			<point x="684.64" y="1354.336"/>
			<point x="758.704" y="1283.424"/>
			<point x="758.704" y="1152.432" type="curve" smooth="yes"/>
			<point x="758.704" y="1018.648"/>
			<point x="682.848" y="930.792"/>
			<point x="328.24" y="935.016" type="curve"/>
			<point x="429.752" y="521.32" type="line"/>
			<point x="471.472" y="521.32" type="line"/>
			<point x="471.472" y="850.656" type="line"/>
			<point x="436.584" y="677.168" type="line"/>
			<point x="807.248" y="662.52"/>
			<point x="933.024" y="764.08"/>
			<point x="933.024" y="1006.76" type="curve" smooth="yes"/>
			<point x="933.024" y="1252.448"/>
			<point x="712.24" y="1456.48"/>
		</contour>
		<contour>
			<point x="452.344" y="347.776" type="curve" smooth="yes"/>
			<point x="341.184" y="347.776"/>
			<point x="262.744" y="267.336"/>
			<point x="262.744" y="162.768" type="curve" smooth="yes"/>
			<point x="262.744" y="58.2"/>
			<point x="341.184" y="-22.24"/>
			<point x="452.344" y="-22.24" type="curve" smooth="yes"/>
			<point x="563.504" y="-22.24"/>
			<point x="641.944" y="58.2"/>
			<point x="641.944" y="162.768" type="curve" smooth="yes"/>
			<point x="641.944" y="267.336"/>
			<point x="563.504" y="347.776"/>
		</contour>
	</outline>
</glyph>
<glyph name="at" format="2">
	<unicode hex="0040"/>
	<advance width="1814.96"/>
	<outline>
		<contour>
			<point x="1262.112" y="239.112" type="curve" smooth="yes"/>
			<point x="1569.904" y="239.112"/>
			<point x="1780.864" y="486.576"/>
			<point x="1780.864" y="813.76" type="curve" smooth="yes"/>
			<point x="1780.864" y="1182.24"/>
			<point x="1487.808" y="1457.888"/>
			<point x="1017.776" y="1457.888" type="curve" smooth="yes"/>
			<point x="460.504" y="1457.888"/>
			<point x="66.744" y="1053.592"/>
			<point x="66.744" y="535.944" type="curve" smooth="yes"/>
			<point x="66.744" y="55.832"/>
			<point x="420.8" y="-218"/>
			<point x="922.888" y="-218" type="curve" smooth="yes"/>
			<point x="1176.568" y="-218"/>
			<point x="1397.904" y="-145.648"/>
			<point x="1578.68" y="-24.648" type="curve"/>
			<point x="1555.552" y="12.072" type="line"/>
			<point x="1355.776" y="-111.928"/>
			<point x="1142.44" y="-157.688"/>
			<point x="951.184" y="-157.688" type="curve" smooth="yes"/>
			<point x="512.312" y="-157.688"/>
			<point x="220.624" y="110.496"/>
			<point x="220.624" y="548.536" type="curve" smooth="yes"/>
			<point x="220.624" y="1045.168"/>
			<point x="530.72" y="1402.576"/>
			<point x="1008.888" y="1402.576" type="curve" smooth="yes"/>
			<point x="1412.496" y="1402.576"/>
			<point x="1647.28" y="1131.872"/>
			<point x="1647.28" y="797.888" type="curve" smooth="yes"/>
			<point x="1647.28" y="468.648"/>
			<point x="1468.224" y="287.072"/>
			<point x="1331.624" y="287.072" type="curve" smooth="yes"/>
			<point x="1284.416" y="287.072"/>
			<point x="1256.968" y="314.352"/>
			<point x="1256.968" y="379.024" type="curve" smooth="yes"/>
			<point x="1256.968" y="415.192"/>
			<point x="1264.672" y="462.712"/>
			<point x="1281.784" y="523.584" type="curve" smooth="yes"/>
			<point x="1422.488" y="1039" type="line"/>
			<point x="1158.6" y="1039" type="line"/>
			<point x="1131.952" y="944.928" type="line"/>
			<point x="1034.08" y="627.944" type="line" smooth="yes"/>
			<point x="951.68" y="475.08"/>
			<point x="883.992" y="423.264"/>
			<point x="829.304" y="423.264" type="curve" smooth="yes"/>
			<point x="791.56" y="423.264"/>
			<point x="777.688" y="443.656"/>
			<point x="777.688" y="504.4" type="curve" smooth="yes"/>
			<point x="777.688" y="664.48"/>
			<point x="922.232" y="960.6"/>
			<point x="1056.648" y="960.6" type="curve" smooth="yes"/>
			<point x="1114.648" y="960.6"/>
			<point x="1142.632" y="925.176"/>
			<point x="1173.856" y="843.4" type="curve"/>
			<point x="1188.448" y="867.232" type="line"/>
			<point x="1149.392" y="1001.984"/>
			<point x="1060.544" y="1060.592"/>
			<point x="977.656" y="1060.592" type="curve" smooth="yes"/>
			<point x="734.712" y="1060.592"/>
			<point x="494.968" y="693.648"/>
			<point x="494.968" y="435.944" type="curve" smooth="yes"/>
			<point x="494.968" y="302.632"/>
			<point x="550.448" y="239.112"/>
			<point x="666.912" y="239.112" type="curve" smooth="yes"/>
			<point x="779.632" y="239.112"/>
			<point x="895.336" y="297.152"/>
			<point x="1074.04" y="631.312" type="curve"/>
			<point x="1049.152" y="635.256" type="line"/>
			<point x="1027.208" y="530.704" type="line" smooth="yes"/>
			<point x="1020.208" y="498.056"/>
			<point x="1016.504" y="467.704"/>
			<point x="1016.504" y="440.704" type="curve" smooth="yes"/>
			<point x="1016.504" y="301.632"/>
			<point x="1107.632" y="239.112"/>
		</contour>
	</outline>
</glyph>
<glyph name="A" format="2">
	<unicode hex="0041"/>
	<advance width="1577.768"/>
	<outline>
		<contour>
			<point x="324.56" y="480.48" type="line"/>
			<point x="1028.968" y="480.48" type="line"/>
			<point x="1028.968" y="559.92" type="line"/>
			<point x="324.56" y="559.92" type="line"/>
		</contour>
		<contour>
			<point x="1465.304" y="84.96" type="line"/>
			<point x="871.632" y="1437.04" type="line"/>
			<point x="654.784" y="1437.04" type="line"/>
			<point x="127.52" y="83.888" type="line"/>
			<point x="-25.48" y="33.536" type="line"/>
			<point x="-25.48" y="0" type="line"/>
			<point x="395.184" y="0" type="line"/>
			<point x="395.184" y="33.536" type="line"/>
			<point x="215.552" y="80.888" type="line"/>
			<point x="633.984" y="1186.448" type="line"/>
			<point x="572.048" y="1155.344" type="line"/>
			<point x="1035.76" y="82.96" type="line"/>
			<point x="864.128" y="34.832" type="line"/>
			<point x="864.128" y="0" type="line"/>
			<point x="1621.304" y="0" type="line"/>
			<point x="1621.304" y="34.832" type="line"/>
		</contour>
	</outline>
	<anchor name="UCtop" x="759.56" y="1430"/>
	<anchor name="right" x="1371.704" y="0"/>
	<anchor name="bottom" x="707.928" y="0"/>
</glyph>
<glyph name="B" format="2">
	<unicode hex="0042"/>
	<advance width="1486.368"/>
	<outline>
		<contour>
			<point x="323.968" y="1346.896" type="line"/>
			<point x="676.16" y="1346.896" type="line" smooth="yes"/>
			<point x="887.632" y="1346.896"/>
			<point x="973.544" y="1241.616"/>
			<point x="973.544" y="1080.52" type="curve" smooth="yes"/>
			<point x="973.544" y="897.664"/>
			<point x="886.928" y="805.792"/>
			<point x="753.92" y="805.792" type="curve" smooth="yes"/>
			<point x="323.968" y="805.792" type="line"/>
			<point x="339.952" y="722.688" type="line"/>
			<point x="750.424" y="722.688" type="line" smooth="yes"/>
			<point x="966.672" y="722.688"/>
			<point x="1062.416" y="592.464"/>
			<point x="1062.416" y="408.776" type="curve" smooth="yes"/>
			<point x="1062.416" y="182.328"/>
			<point x="934.56" y="83.104"/>
			<point x="723.424" y="83.104" type="curve" smooth="yes"/>
			<point x="340.952" y="83.104" type="line"/>
			<point x="446.944" y="0" type="line"/>
			<point x="821.128" y="0" type="line" smooth="yes"/>
			<point x="1250.424" y="0"/>
			<point x="1423.216" y="163.8"/>
			<point x="1423.216" y="394.576" type="curve" smooth="yes"/>
			<point x="1423.216" y="622.44"/>
			<point x="1251.92" y="761.296"/>
			<point x="953.904" y="783" type="curve"/>
			<point x="928.384" y="767" type="line"/>
			<point x="1159.344" y="789"/>
			<point x="1326.12" y="908"/>
			<point x="1326.12" y="1104" type="curve" smooth="yes"/>
			<point x="1326.12" y="1293"/>
			<point x="1190.696" y="1430"/>
			<point x="859.312" y="1430" type="curve" smooth="yes"/>
			<point x="445.944" y="1430" type="line"/>
		</contour>
		<contour>
			<point x="50.504" y="0" type="line"/>
			<point x="614.352" y="0" type="line"/>
			<point x="614.352" y="1430" type="line"/>
			<point x="50.504" y="1430" type="line"/>
			<point x="50.504" y="1394.52" type="line"/>
			<point x="212.656" y="1345.096" type="line"/>
			<point x="212.656" y="85.904" type="line"/>
			<point x="50.504" y="34.832" type="line"/>
		</contour>
	</outline>
	<anchor name="UCtop" x="723.576" y="1430"/>
	<anchor name="bottom" x="723.576" y="0"/>
</glyph>
<glyph name="C" format="2">
	<unicode hex="0043"/>
	<advance width="1456.528"/>
	<outline>
		<contour>
			<point x="961.592" y="39.976" type="curve" smooth="yes"/>
			<point x="702.304" y="39.976"/>
			<point x="485.904" y="337.088"/>
			<point x="485.904" y="786.232" type="curve" smooth="yes"/>
			<point x="485.904" y="1233.28"/>
			<point x="650.568" y="1383.912"/>
			<point x="868.984" y="1383.912" type="curve" smooth="yes"/>
			<point x="974.2202253521" y="1383.912"/>
			<point x="1065.6444884913" y="1352.4826008432"/>
			<point x="1183.936" y="1237.696" type="curve"/>
			<point x="1106.352" y="1332.184" type="line"/>
			<point x="1353.192" y="947.288" type="line"/>
			<point x="1385.968" y="956.768" type="line"/>
			<point x="1279.768" y="1500.848" type="line"/>
			<point x="1264.472" y="1500.848" type="line"/>
			<point x="1118.536" y="1394.112" type="line"/>
			<point x="1207.176" y="1419.072" type="line"/>
			<point x="1088.1789025407" y="1445.7570553724"/>
			<point x="1005.2118819672" y="1456.48"/>
			<point x="887.768" y="1456.48" type="curve" smooth="yes"/>
			<point x="401.704" y="1456.48"/>
			<point x="73.56" y="1160.592"/>
			<point x="73.56" y="728.352" type="curve" smooth="yes"/>
			<point x="73.56" y="230.944"/>
			<point x="401.176" y="-26.48"/>
			<point x="893.96" y="-26.48" type="curve" smooth="yes"/>
			<point x="1052.4042913907" y="-26.48"/>
			<point x="1173.9907987024" y="-12.2883893433"/>
			<point x="1316.712" y="24.984" type="curve"/>
			<point x="1402.488" y="420.808" type="line"/>
			<point x="1368.416" y="420.808" type="line"/>
			<point x="1138.336" y="74.192" type="line"/>
			<point x="1189.648" y="118.248" type="line"/>
			<point x="1120.6087573908" y="64.7149276251"/>
			<point x="1044.9406122449" y="39.976"/>
		</contour>
	</outline>
	<anchor name="UCtop" x="818.736" y="1430"/>
	<anchor name="bottom" x="818.736" y="0"/>
	<anchor name="right" x="1315.744" y="0"/>
</glyph>
<glyph name="D" format="2">
	<unicode hex="0044"/>
	<advance width="1633.832"/>
	<outline>
		<contour>
			<point x="1148.928" y="725.704" type="curve" smooth="yes"/>
			<point x="1148.928" y="265.7551762963"/>
			<point x="995.096" y="85.92"/>
			<point x="716.496" y="85.92" type="curve" smooth="yes"/>
			<point x="424.424" y="85.92" type="line"/>
			<point x="397.856" y="0" type="line"/>
			<point x="759.272" y="0" type="line" smooth="yes"/>
			<point x="1214.272" y="0"/>
			<point x="1558.272" y="253"/>
			<point x="1558.272" y="748" type="curve" smooth="yes"/>
			<point x="1558.272" y="1182"/>
			<point x="1262.92" y="1430"/>
			<point x="745.272" y="1430" type="curve" smooth="yes"/>
			<point x="397.856" y="1430" type="line"/>
			<point x="424.424" y="1344.08" type="line"/>
			<point x="686.328" y="1344.08" type="line" smooth="yes"/>
			<point x="996.8" y="1344.08"/>
			<point x="1148.928" y="1146.8106666667"/>
		</contour>
		<contour>
			<point x="54.392" y="0" type="line"/>
			<point x="611.76" y="0" type="line"/>
			<point x="611.76" y="1430" type="line"/>
			<point x="54.392" y="1430" type="line"/>
			<point x="54.392" y="1394.52" type="line"/>
			<point x="210.064" y="1350.28" type="line"/>
			<point x="210.064" y="80.72" type="line"/>
			<point x="54.392" y="34.832" type="line"/>
		</contour>
	</outline>
	<anchor name="UCtop" x="824.416" y="1430"/>
	<anchor name="bottom" x="824.416" y="0"/>
</glyph>
<glyph name="E" format="2">
	<unicode hex="0045"/>
	<advance width="1464.12"/>
	<outline>
		<contour>
			<point x="1036.808" y="1064.92" type="line"/>
			<point x="1008.328" y="1064.92" type="line"/>
			<point x="879.184" y="801.552" type="line"/>
			<point x="503.216" y="775.496" type="line"/>
			<point x="503.216" y="718.152" type="line"/>
			<point x="879.184" y="694.8" type="line"/>
			<point x="1008.328" y="429.08" type="line"/>
			<point x="1036.808" y="429.08" type="line"/>
			<point x="989.848" y="746" type="line"/>
		</contour>
		<contour>
			<point x="1365.6" y="993.88" type="line"/>
			<point x="1274.624" y="1506.68" type="line"/>
			<point x="1258.2" y="1506.68" type="line"/>
			<point x="1113.536" y="1430" type="line"/>
			<point x="388.352" y="1430" type="line"/>
			<point x="388.352" y="1344.08" type="line"/>
			<point x="1242.056" y="1344.08" type="line"/>
			<point x="1078.04" y="1389.464" type="line"/>
			<point x="1331.528" y="983.288" type="line"/>
		</contour>
		<contour>
			<point x="1121.312" y="47.312" type="line"/>
			<point x="1269.48" y="85.92" type="line"/>
			<point x="388.352" y="85.92" type="line"/>
			<point x="388.352" y="0" type="line"/>
			<point x="1157.568" y="0" type="line"/>
			<point x="1292.696" y="-72.792" type="line"/>
			<point x="1314.952" y="-72.792" type="line"/>
			<point x="1436.504" y="457.856" type="line"/>
			<point x="1398.544" y="467.448" type="line"/>
		</contour>
		<contour>
			<point x="54.392" y="0" type="line"/>
			<point x="611.76" y="0" type="line"/>
			<point x="611.76" y="1430" type="line"/>
			<point x="54.392" y="1430" type="line"/>
			<point x="54.392" y="1394.52" type="line"/>
			<point x="210.064" y="1350.28" type="line"/>
			<point x="210.064" y="80.72" type="line"/>
			<point x="54.392" y="34.832" type="line"/>
		</contour>
	</outline>
	<anchor name="UCtop" x="719.104" y="1430"/>
	<anchor name="right" x="1258.472" y="0"/>
	<anchor name="bottom" x="732.064" y="0"/>
</glyph>
<glyph name="F" format="2">
	<unicode hex="0046"/>
	<advance width="1335.104"/>
	<outline>
		<contour>
			<point x="1042.44" y="1029.496" type="line"/>
			<point x="1013.96" y="1029.496" type="line"/>
			<point x="884.816" y="766.128" type="line"/>
			<point x="499.696" y="740.072" type="line"/>
			<point x="499.696" y="682.728" type="line"/>
			<point x="884.816" y="659.376" type="line"/>
			<point x="1013.96" y="393.656" type="line"/>
			<point x="1042.44" y="393.656" type="line"/>
			<point x="995.48" y="710.576" type="line"/>
		</contour>
		<contour>
			<point x="1205.528" y="1506.68" type="line"/>
			<point x="1062.272" y="1430" type="line"/>
			<point x="388.352" y="1430" type="line"/>
			<point x="388.352" y="1344.08" type="line"/>
			<point x="1190.088" y="1344.08" type="line"/>
			<point x="1025.72" y="1389.816" type="line"/>
			<point x="1292.584" y="983.288" type="line"/>
			<point x="1326.656" y="993.528" type="line"/>
			<point x="1221.952" y="1506.68" type="line"/>
		</contour>
		<contour>
			<point x="611.76" y="1430" type="line"/>
			<point x="54.392" y="1430" type="line"/>
			<point x="54.392" y="1394.52" type="line"/>
			<point x="210.064" y="1350.28" type="line"/>
			<point x="210.064" y="80.72" type="line"/>
			<point x="54.392" y="34.832" type="line"/>
			<point x="54.392" y="0" type="line"/>
			<point x="767.432" y="0" type="line"/>
			<point x="767.432" y="34.832" type="line"/>
			<point x="611.76" y="80.72" type="line"/>
		</contour>
	</outline>
	<anchor name="UCtop" x="681.376" y="1430"/>
	<anchor name="bottom" x="411.56" y="0"/>
</glyph>
<glyph name="G" format="2">
	<unicode hex="0047"/>
	<advance width="1598.448"/>
	<outline>
		<contour>
			<point x="1426.44" y="117.608" type="line"/>
			<point x="1426.44" y="557.096" type="line"/>
			<point x="1549.128" y="602.52" type="line"/>
			<point x="1549.128" y="639.352" type="line"/>
			<point x="865.512" y="639.352" type="line"/>
			<point x="865.512" y="602.52" type="line"/>
			<point x="1041.744" y="551.096" type="line"/>
			<point x="1041.744" y="8.152" type="line"/>
			<point x="1139.32" y="87.112" type="line"/>
			<point x="1087.152" y="58.2"/>
			<point x="1022.2" y="42.568"/>
			<point x="953.728" y="42.568" type="curve" smooth="yes"/>
			<point x="699.64" y="42.568"/>
			<point x="485.904" y="326.72"/>
			<point x="485.904" y="790.768" type="curve" smooth="yes"/>
			<point x="485.904" y="1233.28"/>
			<point x="667.048" y="1383.912"/>
			<point x="908.424" y="1383.912" type="curve" smooth="yes"/>
			<point x="1031.288" y="1383.912"/>
			<point x="1134.392" y="1333.552"/>
			<point x="1252.968" y="1207.424" type="curve"/>
			<point x="1126.104" y="1350.488" type="line"/>
			<point x="1385.968" y="947.288" type="line"/>
			<point x="1418.744" y="956.768" type="line"/>
			<point x="1312.544" y="1500.848" type="line"/>
			<point x="1297.248" y="1500.848" type="line"/>
			<point x="1148.848" y="1388.832" type="line"/>
			<point x="1264.24" y="1411.68" type="line"/>
			<point x="1153.28" y="1440.144"/>
			<point x="1059.4" y="1456.48"/>
			<point x="927.208" y="1456.48" type="curve" smooth="yes"/>
			<point x="417.832" y="1456.48"/>
			<point x="73.56" y="1160.592"/>
			<point x="73.56" y="728.352" type="curve" smooth="yes"/>
			<point x="73.56" y="230.944"/>
			<point x="404.696" y="-26.48"/>
			<point x="901" y="-26.48" type="curve" smooth="yes"/>
			<point x="1086.048" y="-26.48"/>
			<point x="1296.192" y="4.352"/>
			<point x="1544.904" y="81.24" type="curve"/>
			<point x="1544.904" y="117.608" type="line"/>
		</contour>
	</outline>
	<anchor name="UCtop" x="834.864" y="1430"/>
	<anchor name="bottom" x="885.408" y="0"/>
</glyph>
<glyph name="H" format="2">
	<unicode hex="0048"/>
	<advance width="1780.544"/>
	<outline>
		<contour>
			<point x="611.76" y="80.72" type="line"/>
			<point x="611.76" y="1350.28" type="line"/>
			<point x="767.432" y="1394.52" type="line"/>
			<point x="767.432" y="1430" type="line"/>
			<point x="54.392" y="1430" type="line"/>
			<point x="54.392" y="1394.52" type="line"/>
			<point x="210.064" y="1350.28" type="line"/>
			<point x="210.064" y="80.72" type="line"/>
			<point x="54.392" y="34.832" type="line"/>
			<point x="54.392" y="0" type="line"/>
			<point x="767.432" y="0" type="line"/>
			<point x="767.432" y="34.832" type="line"/>
		</contour>
		<contour>
			<point x="1570.48" y="80.72" type="line"/>
			<point x="1570.48" y="1350.28" type="line"/>
			<point x="1726.152" y="1394.52" type="line"/>
			<point x="1726.152" y="1430" type="line"/>
			<point x="1013.112" y="1430" type="line"/>
			<point x="1013.112" y="1394.52" type="line"/>
			<point x="1168.784" y="1350.28" type="line"/>
			<point x="1168.784" y="80.72" type="line"/>
			<point x="1013.112" y="34.832" type="line"/>
			<point x="1013.112" y="0" type="line"/>
			<point x="1726.152" y="0" type="line"/>
			<point x="1726.152" y="34.832" type="line"/>
		</contour>
		<contour>
			<point x="396.448" y="698.336" type="line"/>
			<point x="1381.096" y="698.336" type="line"/>
			<point x="1381.096" y="784.256" type="line"/>
			<point x="396.448" y="784.256" type="line"/>
		</contour>
	</outline>
	<anchor name="UCtop" x="890.096" y="1430"/>
	<anchor name="bottom" x="890.096" y="0"/>
</glyph>
<glyph name="I" format="2">
	<unicode hex="0049"/>
	<advance width="821.824"/>
	<outline>
		<contour>
			<point x="767.432" y="34.832" type="line"/>
			<point x="611.76" y="80.72" type="line"/>
			<point x="611.76" y="1350.28" type="line"/>
			<point x="767.432" y="1394.52" type="line"/>
			<point x="767.432" y="1430" type="line"/>
			<point x="54.392" y="1430" type="line"/>
			<point x="54.392" y="1394.52" type="line"/>
			<point x="210.064" y="1350.28" type="line"/>
			<point x="210.064" y="80.72" type="line"/>
			<point x="54.392" y="34.832" type="line"/>
			<point x="54.392" y="0" type="line"/>
			<point x="767.432" y="0" type="line"/>
		</contour>
	</outline>
	<anchor name="UCtop" x="410.912" y="1430"/>
	<anchor name="right" x="580.208" y="0"/>
	<anchor name="bottom" x="410.912" y="0"/>
</glyph>
<glyph name="J" format="2">
	<unicode hex="004A"/>
	<advance width="964.536"/>
	<outline>
		<contour>
			<point x="781.88" y="551.976" type="curve" smooth="yes"/>
			<point x="781.88" y="1350.28" type="line"/>
			<point x="937.552" y="1394.52" type="line"/>
			<point x="937.552" y="1430" type="line"/>
			<point x="224.512" y="1430" type="line"/>
			<point x="224.512" y="1394.52" type="line"/>
			<point x="380.184" y="1350.28" type="line"/>
			<point x="380.184" y="215.504" type="line" smooth="yes"/>
			<point x="380.184" y="140.256"/>
			<point x="353.128" y="117.92"/>
			<point x="302.216" y="117.92" type="curve" smooth="yes"/>
			<point x="212.328" y="117.92"/>
			<point x="140.608" y="227.728"/>
			<point x="108.256" y="227.728" type="curve" smooth="yes"/>
			<point x="53.112" y="227.728"/>
			<point x="1.504" y="177.36"/>
			<point x="1.504" y="107.976" type="curve" smooth="yes"/>
			<point x="1.504" y="29.72"/>
			<point x="56.592" y="-21.944"/>
			<point x="167.88" y="-21.944" type="curve" smooth="yes"/>
			<point x="462.432" y="-21.944"/>
			<point x="781.88" y="236.024"/>
		</contour>
	</outline>
	<anchor name="UCtop" x="581.032" y="1430"/>
	<anchor name="bottom" x="517.304" y="0"/>
</glyph>
<glyph name="K" format="2">
	<unicode hex="004B"/>
	<advance width="1691.256"/>
	<outline>
		<contour>
			<point x="1606.248" y="81.256" type="line"/>
			<point x="941.448" y="968.232" type="line"/>
			<point x="735.992" y="788.44" type="line"/>
			<point x="1427.088" y="1347.096" type="line"/>
			<point x="1604.624" y="1394.52" type="line"/>
			<point x="1604.624" y="1430" type="line"/>
			<point x="1143.496" y="1430" type="line"/>
			<point x="1143.496" y="1394.52" type="line"/>
			<point x="1320.536" y="1348.984" type="line"/>
			<point x="640.352" y="794.776" type="line"/>
			<point x="504.824" y="794.776" type="line"/>
			<point x="504.824" y="708.856" type="line"/>
			<point x="639.056" y="708.856" type="line"/>
			<point x="1112.872" y="74.48" type="line"/>
			<point x="968.808" y="34.832" type="line"/>
			<point x="968.808" y="0" type="line"/>
			<point x="1737.048" y="0" type="line"/>
			<point x="1737.048" y="34.832" type="line"/>
		</contour>
		<contour>
			<point x="611.76" y="1350.28" type="line"/>
			<point x="767.432" y="1394.52" type="line"/>
			<point x="767.432" y="1430" type="line"/>
			<point x="54.392" y="1430" type="line"/>
			<point x="54.392" y="1394.52" type="line"/>
			<point x="210.064" y="1350.28" type="line"/>
			<point x="210.064" y="80.72" type="line"/>
			<point x="54.392" y="34.832" type="line"/>
			<point x="54.392" y="0" type="line"/>
			<point x="767.432" y="0" type="line"/>
			<point x="767.432" y="34.832" type="line"/>
			<point x="611.76" y="80.72" type="line"/>
		</contour>
	</outline>
	<anchor name="bottom" x="864.736" y="0"/>
	<anchor name="UCtop" x="872.48" y="1430"/>
</glyph>
<glyph name="L" format="2">
  <advance width="1361.3600000000001"/>
  <unicode hex="004C"/>
  <anchor x="410.912" y="1430.0" name="UCtop"/>
  <anchor x="667.952" y="0.0" name="bottom"/>
  <anchor x="1104.4160000000002" y="773.0" name="mid"/>
  <anchor x="835.856" y="1430.0" name="right"/>
  <outline>
    <contour>
      <point x="1228.472" y="-72.792" type="line"/>
      <point x="1350.024" y="457.856" type="line"/>
      <point x="1312.064" y="467.44800000000004" type="line"/>
      <point x="1021.872" y="47.312" type="line"/>
      <point x="1183.0" y="85.92" type="line"/>
      <point x="388.352" y="85.92" type="line"/>
      <point x="388.352" y="0.0" type="line"/>
      <point x="1058.128" y="0.0" type="line"/>
      <point x="1206.2160000000001" y="-72.792" type="line"/>
    </contour>
    <contour>
      <point x="611.76" y="1350.28" type="line"/>
      <point x="767.432" y="1394.52" type="line"/>
      <point x="767.432" y="1430.0" type="line"/>
      <point x="54.392" y="1430.0" type="line"/>
      <point x="54.392" y="1394.52" type="line"/>
      <point x="210.06400000000002" y="1350.28" type="line"/>
      <point x="210.06400000000002" y="80.72" type="line"/>
      <point x="54.392" y="34.832" type="line"/>
      <point x="54.392" y="0.0" type="line"/>
      <point x="611.76" y="0.0" type="line"/>
    </contour>
  </outline>
</glyph>
<glyph name="M" format="2">
	<unicode hex="004D"/>
	<advance width="2186.672"/>
	<outline>
		<contour>
			<point x="2002.352" y="89.792" type="line"/>
			<point x="1900.648" y="1345.096" type="line"/>
			<point x="2086.336" y="1394.52" type="line"/>
			<point x="2086.336" y="1430" type="line"/>
			<point x="1479.4" y="1430" type="line"/>
			<point x="1071.304" y="338.88" type="line"/>
			<point x="1099.584" y="338.232" type="line"/>
			<point x="696.104" y="1430" type="line"/>
			<point x="75.176" y="1430" type="line"/>
			<point x="75.176" y="1394.52" type="line"/>
			<point x="256.232" y="1315.264" type="line"/>
			<point x="181.008" y="72.944" type="line"/>
			<point x="19.504" y="34.832" type="line"/>
			<point x="19.504" y="0" type="line"/>
			<point x="433.288" y="0" type="line"/>
			<point x="433.288" y="34.832" type="line"/>
			<point x="260.856" y="72.944" type="line"/>
			<point x="334.376" y="1284.928" type="line"/>
			<point x="316.488" y="1282.576" type="line"/>
			<point x="805.848" y="-7.04" type="line"/>
			<point x="1024.528" y="-7.04" type="line"/>
			<point x="1513.712" y="1291.304" type="line"/>
			<point x="1495.824" y="1293.952" type="line"/>
			<point x="1588.232" y="77.48" type="line"/>
			<point x="1409.232" y="34.832" type="line"/>
			<point x="1409.232" y="0" type="line"/>
			<point x="2174.224" y="0" type="line"/>
			<point x="2174.224" y="34.832" type="line"/>
		</contour>
	</outline>
	<anchor name="UCtop" x="1038.16" y="1430"/>
	<anchor name="bottom" x="1026.896" y="0"/>
</glyph>
<glyph name="N" format="2">
  <advance width="1586"/>
  <unicode hex="004E"/>
  <anchor x="830.384" y="1430.0" name="UCtop"/>
  <anchor x="801.2239999999999" y="0.0" name="bottom"/>
  <outline>
    <contour>
      <point x="220.6" y="79.424" type="line"/>
      <point x="58.448" y="34.832" type="line"/>
      <point x="58.448" y="0.0" type="line"/>
      <point x="462.91999999999996" y="0.0" type="line"/>
      <point x="462.91999999999996" y="34.832" type="line"/>
      <point x="291.13599999999997" y="79.424" type="line"/>
      <point x="291.13599999999997" y="1339.912" type="line"/>
      <point x="267.024" y="1321.352" type="line"/>
      <point x="1174.488" y="-7.039999999999999" type="line"/>
      <point x="1385.5040000000001" y="-7.039999999999999" type="line"/>
      <point x="1385.5040000000001" y="1349.9279999999999" type="line"/>
      <point x="1547.656" y="1394.52" type="line"/>
      <point x="1547.656" y="1430.0" type="line"/>
      <point x="1132.816" y="1430.0" type="line"/>
      <point x="1132.816" y="1394.52" type="line"/>
      <point x="1304.6" y="1349.9279999999999" type="line"/>
      <point x="1304.6" y="285.13599999999997" type="line"/>
      <point x="1358.896" y="375.144" type="line"/>
      <point x="638.848" y="1430.0" type="line"/>
      <point x="22.247999999999998" y="1430.0" type="line"/>
      <point x="22.247999999999998" y="1400.352" type="line"/>
      <point x="220.6" y="1324.56" type="line"/>
    </contour>
  </outline>
</glyph>
<glyph name="O" format="2">
	<unicode hex="004F"/>
	<advance width="1653.432"/>
	<outline>
		<contour>
			<point x="846.304" y="1456.48" type="curve" smooth="yes"/>
			<point x="398.72" y="1456.48"/>
			<point x="73.264" y="1140.9061492537"/>
			<point x="73.264" y="697.152" type="curve" smooth="yes"/>
			<point x="73.264" y="267.3028897959"/>
			<point x="382.872" y="-26.48"/>
			<point x="807.832" y="-26.48" type="curve" smooth="yes"/>
			<point x="1254.712" y="-26.48"/>
			<point x="1580.168" y="289.0942462788"/>
			<point x="1580.168" y="733.552" type="curve" smooth="yes"/>
			<point x="1580.168" y="1162.6975061392"/>
			<point x="1270.56" y="1456.48"/>
		</contour>
		<contour>
			<point x="841.696" y="46.792" type="curve" smooth="yes"/>
			<point x="614.384" y="46.792"/>
			<point x="479.608" y="307.3679111111"/>
			<point x="479.608" y="783.936" type="curve" smooth="yes"/>
			<point x="479.608" y="1212.6400852359"/>
			<point x="616.656" y="1383.56"/>
			<point x="811.736" y="1383.56" type="curve" smooth="yes"/>
			<point x="1038.344" y="1383.56"/>
			<point x="1173.472" y="1122.6323994452"/>
			<point x="1173.472" y="646.064" type="curve" smooth="yes"/>
			<point x="1173.472" y="217.7117073171"/>
			<point x="1036.424" y="46.792"/>
		</contour>
	</outline>
	<anchor name="UCtop" x="827.216" y="1430"/>
	<anchor name="bottom" x="827.216" y="0"/>
	<anchor name="horn" x="1154.376" y="1430"/>
	<anchor name="right" x="1008.624" y="0"/>
</glyph>
<glyph name="P" format="2">
	<unicode hex="0050"/>
	<advance width="1430.592"/>
	<outline>
		<contour>
			<point x="1013.24" y="1023.392" type="curve" smooth="yes"/>
			<point x="1013.24" y="815.112"/>
			<point x="884.864" y="703.704"/>
			<point x="698.416" y="703.704" type="curve" smooth="yes"/>
			<point x="398.112" y="703.704" type="line"/>
			<point x="412.368" y="617.784" type="line"/>
			<point x="865" y="617.784" type="line" smooth="yes"/>
			<point x="1239.96" y="617.784"/>
			<point x="1402.736" y="803.728"/>
			<point x="1402.736" y="1028.616" type="curve" smooth="yes"/>
			<point x="1402.736" y="1250.392"/>
			<point x="1248.904" y="1430"/>
			<point x="865" y="1430" type="curve" smooth="yes"/>
			<point x="412.368" y="1430" type="line"/>
			<point x="398.112" y="1344.08" type="line"/>
			<point x="640.992" y="1344.08" type="line" smooth="yes"/>
			<point x="909.68" y="1344.08"/>
			<point x="1013.24" y="1227.672"/>
		</contour>
		<contour>
			<point x="611.76" y="1430" type="line"/>
			<point x="54.392" y="1430" type="line"/>
			<point x="54.392" y="1394.52" type="line"/>
			<point x="210.064" y="1350.28" type="line"/>
			<point x="210.064" y="80.72" type="line"/>
			<point x="54.392" y="34.832" type="line"/>
			<point x="54.392" y="0" type="line"/>
			<point x="767.432" y="0" type="line"/>
			<point x="767.432" y="34.832" type="line"/>
			<point x="611.76" y="80.72" type="line"/>
		</contour>
	</outline>
	<anchor name="UCtop" x="732.688" y="1430"/>
	<anchor name="bottom" x="410.912" y="0"/>
</glyph>
<glyph name="Q" format="2">
	<unicode hex="0051"/>
	<advance width="1656.672"/>
	<outline>
		<contour>
			<point x="808.896" y="-267.936" type="line" smooth="yes"/>
			<point x="1002.696" y="-433.048"/>
			<point x="1152.032" y="-470.184"/>
			<point x="1378.648" y="-470.184" type="curve" smooth="yes"/>
			<point x="1487.088" y="-470.184"/>
			<point x="1651.016" y="-432.152"/>
			<point x="1760.248" y="-400.704" type="curve"/>
			<point x="1760.248" y="-348.096" type="line"/>
			<point x="1620.936" y="-362.376"/>
			<point x="1526.376" y="-333.528"/>
			<point x="1308.368" y="-207.488" type="curve" smooth="yes"/>
			<point x="887.528" y="36.92" type="line"/>
			<point x="889.768" y="1.888" type="line"/>
			<point x="1307.864" y="14.448"/>
			<point x="1582.112" y="320.216"/>
			<point x="1582.112" y="717.352" type="curve" smooth="yes"/>
			<point x="1582.112" y="1163.848"/>
			<point x="1288.704" y="1456.48"/>
			<point x="848.248" y="1456.48" type="curve" smooth="yes"/>
			<point x="394.184" y="1456.48"/>
			<point x="75.208" y="1155.016"/>
			<point x="75.208" y="713.352" type="curve" smooth="yes"/>
			<point x="75.208" y="435.312"/>
			<point x="173.288" y="245.976"/>
			<point x="390.992" y="65.872" type="curve" smooth="yes"/>
		</contour>
		<contour>
			<point x="843.64" y="46.792" type="curve" smooth="yes"/>
			<point x="616.328" y="46.792"/>
			<point x="481.552" y="307.496"/>
			<point x="481.552" y="783.936" type="curve" smooth="yes"/>
			<point x="481.552" y="1212.504"/>
			<point x="618.6" y="1383.56"/>
			<point x="813.68" y="1383.56" type="curve" smooth="yes"/>
			<point x="1040.288" y="1383.56"/>
			<point x="1175.416" y="1122.504"/>
			<point x="1175.416" y="646.064" type="curve" smooth="yes"/>
			<point x="1175.416" y="217.848"/>
			<point x="1038.368" y="46.792"/>
		</contour>
	</outline>
	<anchor name="UCtop" x="829.16" y="1430"/>
	<anchor name="bottom" x="829.16" y="-438.52"/>
</glyph>
<glyph name="R" format="2">
	<unicode hex="0052"/>
	<advance width="1567.312"/>
	<outline>
		<contour>
			<point x="727.736" y="775.776" type="curve" smooth="yes"/>
			<point x="278.152" y="775.776" type="line"/>
			<point x="364.984" y="692.672" type="line"/>
			<point x="700.928" y="692.672" type="line" smooth="yes"/>
			<point x="780.208" y="692.672"/>
			<point x="827.632" y="674.872"/>
			<point x="875.36" y="541.072" type="curve" smooth="yes"/>
			<point x="1000.224" y="182.256" type="line" smooth="yes"/>
			<point x="1062.192" y="2.48"/>
			<point x="1129.136" y="-35.608"/>
			<point x="1605.424" y="0" type="curve"/>
			<point x="1605.424" y="57.032" type="line"/>
			<point x="1490.184" y="56.032"/>
			<point x="1453.592" y="77.456"/>
			<point x="1403.288" y="213.464" type="curve" smooth="yes"/>
			<point x="1305.904" y="479.68" type="line" smooth="yes"/>
			<point x="1250.104" y="642.232"/>
			<point x="1149.704" y="735.408"/>
			<point x="932.36" y="744.536" type="curve"/>
			<point x="932.36" y="740.888" type="line"/>
			<point x="1235.264" y="751.056"/>
			<point x="1392.984" y="904.408"/>
			<point x="1392.984" y="1091.424" type="curve" smooth="yes"/>
			<point x="1392.984" y="1283.352"/>
			<point x="1258.984" y="1430"/>
			<point x="856.096" y="1430" type="curve" smooth="yes"/>
			<point x="377.944" y="1430" type="line"/>
			<point x="293.056" y="1346.896" type="line"/>
			<point x="724.888" y="1346.896" type="line" smooth="yes"/>
			<point x="918.576" y="1346.896"/>
			<point x="1003.488" y="1255.28"/>
			<point x="1003.488" y="1067.392" type="curve" smooth="yes"/>
			<point x="1003.488" y="875.648"/>
			<point x="908.352" y="775.776"/>
		</contour>
		<contour>
			<point x="614.352" y="1430" type="line"/>
			<point x="50.504" y="1430" type="line"/>
			<point x="50.504" y="1394.52" type="line"/>
			<point x="212.656" y="1345.096" type="line"/>
			<point x="212.656" y="85.904" type="line"/>
			<point x="50.504" y="34.832" type="line"/>
			<point x="50.504" y="0" type="line"/>
			<point x="776.504" y="0" type="line"/>
			<point x="776.504" y="34.832" type="line"/>
			<point x="614.352" y="85.904" type="line"/>
		</contour>
	</outline>
	<anchor name="UCtop" x="760.864" y="1430"/>
	<anchor name="bottom" x="835.504" y="0"/>
</glyph>
<glyph name="S" format="2">
  <advance width="1234.752"/>
  <unicode hex="0053"/>
  <anchor x="589.584" y="1430.0" name="UCtop"/>
  <anchor x="615.504" y="0.0" name="bottom"/>
  <outline>
    <contour>
      <point x="1009.072" y="1369.48" type="line"/>
      <point x="888.056" y="1429.832"/>
      <point x="786.1120000000001" y="1456.832"/>
      <point x="650.392" y="1456.832" type="curve" smooth="yes"/>
      <point x="317.664" y="1456.832"/>
      <point x="103.136" y="1290.688"/>
      <point x="103.136" y="1028.4160000000002" type="curve" smooth="yes"/>
      <point x="103.136" y="779.96"/>
      <point x="273.8" y="693.5360000000001"/>
      <point x="465.632" y="625.1279999999999" type="curve" smooth="yes"/>
      <point x="657.4639999999999" y="556.72"/>
      <point x="869.6320000000001" y="511.68000000000006"/>
      <point x="869.6320000000001" y="305.488" type="curve" smooth="yes"/>
      <point x="869.6320000000001" y="152.144"/>
      <point x="768.808" y="43.328"/>
      <point x="525.328" y="43.328" type="curve" smooth="yes"/>
      <point x="416.25600000000003" y="43.328"/>
      <point x="323.944" y="79.08800000000001"/>
      <point x="200.632" y="146.032" type="curve"/>
      <point x="389.272" y="22.592" type="line"/>
      <point x="104.16799999999999" y="448.272" type="line"/>
      <point x="70.63199999999999" y="448.272" type="line"/>
      <point x="150.15200000000002" y="34.57599999999999" type="line"/>
      <point x="282.88800000000003" y="-14.368"/>
      <point x="396.384" y="-26.832"/>
      <point x="540.808" y="-26.832" type="curve" smooth="yes"/>
      <point x="881.424" y="-26.832"/>
      <point x="1160.376" y="163.59199999999998"/>
      <point x="1160.376" y="472.59999999999997" type="curve" smooth="yes"/>
      <point x="1160.376" y="770.432"/>
      <point x="943.36" y="861.9680000000001"/>
      <point x="749.1759999999999" y="926.672" type="curve" smooth="yes"/>
      <point x="554.992" y="991.3760000000001"/>
      <point x="381.584" y="1034.192"/>
      <point x="381.584" y="1194.9759999999999" type="curve" smooth="yes"/>
      <point x="381.584" y="1305.4080000000001"/>
      <point x="442.79200000000003" y="1384.7440000000001"/>
      <point x="604.1840000000001" y="1384.7440000000001" type="curve" smooth="yes"/>
      <point x="715.0" y="1384.7440000000001"/>
      <point x="820.112" y="1344.056"/>
      <point x="935.456" y="1226.048" type="curve"/>
      <point x="838.6880000000001" y="1341.056" type="line"/>
      <point x="1069.8799999999999" y="995.3199999999999" type="line"/>
      <point x="1101.6560000000002" y="1002.5600000000001" type="line"/>
      <point x="1020.624" y="1500.848" type="line"/>
      <point x="1000.384" y="1500.848" type="line"/>
      <point x="865.8720000000001" y="1388.76" type="line"/>
    </contour>
  </outline>
</glyph>
<glyph name="T" format="2">
  <advance width="1546"/>
  <unicode hex="0054"/>
  <anchor x="772.84" y="1430.0" name="UCtop"/>
  <anchor x="772.84" y="0.0" name="bottom"/>
  <outline>
    <contour>
      <point x="571.992" y="1393.52" type="line"/>
      <point x="571.992" y="85.90400000000001" type="line"/>
      <point x="409.84" y="34.832" type="line"/>
      <point x="409.84" y="0.0" type="line"/>
      <point x="1135.8400000000001" y="0.0" type="line"/>
      <point x="1135.8400000000001" y="34.832" type="line"/>
      <point x="973.688" y="85.90400000000001" type="line"/>
      <point x="973.688" y="1393.52" type="line"/>
    </contour>
    <contour>
      <point x="1371.5359999999998" y="1344.0800000000002" type="line"/>
      <point x="1244.2800000000002" y="1375.392" type="line"/>
      <point x="1480.512" y="938.104" type="line"/>
      <point x="1514.6960000000001" y="945.104" type="line"/>
      <point x="1448.456" y="1508.832" type="line"/>
      <point x="1429.16" y="1508.832" type="line"/>
      <point x="1219.952" y="1403.6319999999998" type="line"/>
      <point x="1347.5359999999998" y="1430.0" type="line"/>
      <point x="198.144" y="1430.0" type="line"/>
      <point x="325.728" y="1403.6319999999998" type="line"/>
      <point x="116.52" y="1508.832" type="line"/>
      <point x="97.22399999999999" y="1508.832" type="line"/>
      <point x="30.984" y="945.104" type="line"/>
      <point x="65.16799999999999" y="938.104" type="line"/>
      <point x="301.40000000000003" y="1375.392" type="line"/>
      <point x="174.144" y="1344.0800000000002" type="line"/>
    </contour>
  </outline>
</glyph>
<glyph name="U" format="2">
	<unicode hex="0055"/>
	<advance width="1638.264"/>
	<outline>
		<contour>
			<point x="1381.536" y="585.92" type="line" smooth="yes"/>
			<point x="1381.536" y="276.512"/>
			<point x="1232.368" y="162.8"/>
			<point x="972.696" y="162.8" type="curve" smooth="yes"/>
			<point x="711.096" y="162.8"/>
			<point x="576.112" y="285.288"/>
			<point x="576.112" y="573.608" type="curve" smooth="yes"/>
			<point x="576.112" y="1350.28" type="line"/>
			<point x="731.784" y="1394.52" type="line"/>
			<point x="731.784" y="1430" type="line"/>
			<point x="18.744" y="1430" type="line"/>
			<point x="18.744" y="1394.52" type="line"/>
			<point x="174.416" y="1350.28" type="line"/>
			<point x="174.416" y="583.24" type="line" smooth="yes"/>
			<point x="174.416" y="173.2159334443"/>
			<point x="403.504" y="-26.48"/>
			<point x="843.656" y="-26.48" type="curve" smooth="yes"/>
			<point x="1230.224" y="-26.48"/>
			<point x="1462.44" y="164.4326808511"/>
			<point x="1462.44" y="570.216" type="curve" smooth="yes"/>
			<point x="1462.44" y="1349.928" type="line"/>
			<point x="1618.112" y="1394.52" type="line"/>
			<point x="1618.112" y="1430" type="line"/>
			<point x="1216.232" y="1430" type="line"/>
			<point x="1216.232" y="1394.52" type="line"/>
			<point x="1381.536" y="1349.928" type="line"/>
		</contour>
	</outline>
	<anchor name="UCtop" x="901.152" y="1430"/>
	<anchor name="right" x="1071.072" y="0"/>
	<anchor name="bottom" x="901.152" y="0"/>
	<anchor name="horn" x="1459.232" y="1428"/>
</glyph>
<glyph name="V" format="2">
	<unicode hex="0056"/>
	<advance width="1563.984"/>
	<outline>
		<contour>
			<point x="104.576" y="1345.04" type="line"/>
			<point x="726.592" y="-7.04" type="line"/>
			<point x="943.44" y="-7.04" type="line"/>
			<point x="1428.28" y="1346.112" type="line"/>
			<point x="1581.28" y="1396.464" type="line"/>
			<point x="1581.28" y="1430" type="line"/>
			<point x="1168.392" y="1430" type="line"/>
			<point x="1168.392" y="1396.464" type="line"/>
			<point x="1339.6" y="1349.112" type="line"/>
			<point x="958.408" y="243.552" type="line"/>
			<point x="1026.176" y="274.656" type="line"/>
			<point x="540.6" y="1347.04" type="line"/>
			<point x="712.232" y="1395.168" type="line"/>
			<point x="712.232" y="1430" type="line"/>
			<point x="-51.424" y="1430" type="line"/>
			<point x="-51.424" y="1395.168" type="line"/>
		</contour>
	</outline>
	<anchor name="UCtop" x="885.712" y="1430"/>
	<anchor name="bottom" x="832.424" y="0"/>
</glyph>
<glyph name="W" format="2">
	<unicode hex="0057"/>
	<advance width="2226.048"/>
	<outline>
		<contour>
			<point x="1128.744" y="1085.136" type="line"/>
			<point x="1075.072" y="1074.256" type="line"/>
			<point x="1515.304" y="-7.04" type="line"/>
			<point x="1732.152" y="-7.04" type="line"/>
			<point x="2094.992" y="1346.112" type="line"/>
			<point x="2247.992" y="1396.464" type="line"/>
			<point x="2247.992" y="1430" type="line"/>
			<point x="1833.16" y="1430" type="line"/>
			<point x="1833.16" y="1396.464" type="line"/>
			<point x="2004.368" y="1349.112" type="line"/>
			<point x="1742.248" y="314.184" type="line"/>
			<point x="1808.52" y="325.848" type="line"/>
			<point x="1379.568" y="1437.04" type="line"/>
			<point x="1157.552" y="1437.04" type="line"/>
			<point x="766.856" y="244.848" type="line"/>
			<point x="853.2" y="336.216" type="line"/>
			<point x="552.896" y="1347.04" type="line"/>
			<point x="724.528" y="1395.168" type="line"/>
			<point x="724.528" y="1430" type="line"/>
			<point x="-38.072" y="1430" type="line"/>
			<point x="-38.072" y="1395.168" type="line"/>
			<point x="117.928" y="1345.04" type="line"/>
			<point x="543.464" y="-7.04" type="line"/>
			<point x="760.312" y="-7.04" type="line"/>
		</contour>
	</outline>
	<anchor name="UCtop" x="1252.368" y="1430"/>
	<anchor name="bottom" x="1181.088" y="0"/>
</glyph>
<glyph name="X" format="2">
	<unicode hex="0058"/>
	<advance width="1600.56"/>
	<outline>
		<contour>
			<point x="733.736" y="657.656" type="line"/>
			<point x="880.4" y="752.48" type="line"/>
			<point x="1365.824" y="1345.464" type="line"/>
			<point x="1509.752" y="1394.52" type="line"/>
			<point x="1509.752" y="1430" type="line"/>
			<point x="1094.4" y="1430" type="line"/>
			<point x="1094.4" y="1394.52" type="line"/>
			<point x="1264.96" y="1348.464" type="line"/>
			<point x="835.624" y="818.808" type="line"/>
			<point x="689.016" y="722.744" type="line"/>
			<point x="149.704" y="84.536" type="line"/>
			<point x="3.832" y="35.48" type="line"/>
			<point x="3.832" y="0" type="line"/>
			<point x="419.832" y="0" type="line"/>
			<point x="419.832" y="35.48" type="line"/>
			<point x="249.92" y="81.536" type="line"/>
		</contour>
		<contour>
			<point x="1014.184" y="85.552" type="line"/>
			<point x="847.088" y="34.832" type="line"/>
			<point x="847.088" y="0" type="line"/>
			<point x="1640.832" y="0" type="line"/>
			<point x="1640.832" y="34.832" type="line"/>
			<point x="1487.424" y="87.552" type="line"/>
			<point x="941.392" y="884.616" type="line"/>
			<point x="929.04" y="902.616" type="line"/>
			<point x="626.36" y="1344.448" type="line"/>
			<point x="795.4" y="1394.52" type="line"/>
			<point x="795.4" y="1430" type="line"/>
			<point x="1.008" y="1430" type="line"/>
			<point x="1.008" y="1394.52" type="line"/>
			<point x="156.36" y="1342.448" type="line"/>
			<point x="642.688" y="628.552" type="line"/>
			<point x="657.744" y="606.144" type="line"/>
		</contour>
	</outline>
	<anchor name="UCtop" x="844.408" y="1430"/>
	<anchor name="bottom" x="758.488" y="0"/>
</glyph>
<glyph name="Y" format="2">
	<unicode hex="0059"/>
	<advance width="1538.392"/>
	<outline>
		<contour>
			<point x="117.392" y="1346.336" type="line"/>
			<point x="591.56" y="668.016" type="line"/>
			<point x="591.56" y="80.72" type="line"/>
			<point x="435.888" y="34.832" type="line"/>
			<point x="435.888" y="0" type="line"/>
			<point x="1148.928" y="0" type="line"/>
			<point x="1148.928" y="34.832" type="line"/>
			<point x="993.256" y="80.72" type="line"/>
			<point x="993.256" y="673.792" type="line"/>
			<point x="1391.928" y="1346.112" type="line"/>
			<point x="1542.984" y="1394.52" type="line"/>
			<point x="1542.984" y="1430" type="line"/>
			<point x="1125.672" y="1430" type="line"/>
			<point x="1125.672" y="1394.52" type="line"/>
			<point x="1298.176" y="1349.112" type="line"/>
			<point x="922.504" y="710.272" type="line"/>
			<point x="990.96" y="718.696" type="line"/>
			<point x="572.432" y="1348.336" type="line"/>
			<point x="754.544" y="1394.52" type="line"/>
			<point x="754.544" y="1430" type="line"/>
			<point x="-29.536" y="1430" type="line"/>
			<point x="-29.536" y="1394.52" type="line"/>
		</contour>
	</outline>
	<anchor name="UCtop" x="838.624" y="1430"/>
	<anchor name="bottom" x="792.408" y="0"/>
</glyph>
<glyph name="Z" format="2">
	<unicode hex="005A"/>
	<advance width="1433.136"/>
	<outline>
		<contour>
			<point x="1320.248" y="1430" type="line"/>
			<point x="299.352" y="1430" type="line"/>
			<point x="162.128" y="1505.312" type="line"/>
			<point x="143.944" y="1505.312" type="line"/>
			<point x="46.152" y="995.416" type="line"/>
			<point x="74.336" y="985.88" type="line"/>
			<point x="304.24" y="1344.08" type="line"/>
			<point x="1246.952" y="1344.08" type="line"/>
			<point x="911.736" y="1418.664" type="line"/>
			<point x="85.448" y="36.92" type="line"/>
			<point x="85.448" y="0" type="line"/>
			<point x="1135.88" y="0" type="line"/>
			<point x="1293.616" y="-71.44" type="line"/>
			<point x="1319.04" y="-71.44" type="line"/>
			<point x="1405.704" y="447.896" type="line"/>
			<point x="1376.112" y="458.08" type="line"/>
			<point x="1125.416" y="85.92" type="line"/>
			<point x="296.792" y="85.92" type="line"/>
			<point x="496.608" y="14.984" type="line"/>
			<point x="1320.248" y="1392.728" type="line"/>
		</contour>
	</outline>
	<anchor name="UCtop" x="765.368" y="1430"/>
	<anchor name="bottom" x="706.488" y="0"/>
</glyph>
<glyph name="bracketleft" format="2">
	<unicode hex="005B"/>
	<advance width="608.92"/>
	<outline>
		<contour>
			<point x="165.728" y="-216.8" type="line"/>
			<point x="596.936" y="-216.8" type="line"/>
			<point x="596.936" y="-180.672" type="line"/>
			<point x="369.936" y="-152.784" type="line"/>
			<point x="369.936" y="1399.984" type="line"/>
			<point x="596.936" y="1427.872" type="line"/>
			<point x="596.936" y="1464" type="line"/>
			<point x="165.728" y="1464" type="line"/>
		</contour>
	</outline>
</glyph>
<glyph name="backslash" format="2">
  <advance width="779.464"/>
  <unicode hex="005C"/>
  <outline>
    <contour>
      <point x="730.888" y="0.0" type="line"/>
      <point x="133.888" y="1430.0" type="line"/>
      <point x="45.576" y="1430.0" type="line"/>
      <point x="642.5759999999999" y="0.0" type="line"/>
    </contour>
  </outline>
</glyph>
<glyph name="bracketright" format="2">
	<unicode hex="005D"/>
	<advance width="608.92"/>
	<outline>
		<contour>
			<point x="443.192" y="1464" type="line"/>
			<point x="11.984" y="1464" type="line"/>
			<point x="11.984" y="1427.872" type="line"/>
			<point x="238.984" y="1399.984" type="line"/>
			<point x="238.984" y="-152.784" type="line"/>
			<point x="11.984" y="-180.672" type="line"/>
			<point x="11.984" y="-216.8" type="line"/>
			<point x="443.192" y="-216.8" type="line"/>
		</contour>
	</outline>
</glyph>
<glyph name="asciicircum" format="2">
	<unicode hex="005E"/>
	<advance width="1150"/>
	<outline>
		<contour>
			<point x="567.944" y="1341.08" type="line"/>
			<point x="885.928" y="662" type="line"/>
			<point x="978.016" y="662" type="line"/>
			<point x="616.016" y="1430" type="line"/>
			<point x="531.984" y="1430" type="line"/>
			<point x="171.984" y="662" type="line"/>
			<point x="264.072" y="662" type="line"/>
			<point x="579.056" y="1341.08" type="line"/>
		</contour>
	</outline>
</glyph>
<glyph name="a" format="2">
	<unicode hex="0061"/>
	<advance width="1126.864"/>
	<outline>
		<contour>
			<point x="668.064" y="648.504" type="line"/>
			<point x="134.952" y="487.352"/>
			<point x="57.08" y="406.52"/>
			<point x="57.08" y="240.592" type="curve" smooth="yes"/>
			<point x="57.08" y="77.776"/>
			<point x="163.584" y="-24.536"/>
			<point x="357.448" y="-24.536" type="curve" smooth="yes"/>
			<point x="495.224" y="-24.536"/>
			<point x="595.28" y="60.392"/>
			<point x="635.76" y="236.696" type="curve"/>
			<point x="622.392" y="246.416" type="line"/>
			<point x="627.392" y="56.816"/>
			<point x="683.128" y="-26.48"/>
			<point x="837.768" y="-26.48" type="curve" smooth="yes"/>
			<point x="952.76" y="-26.48"/>
			<point x="1033.424" y="3.184"/>
			<point x="1136.96" y="99.448" type="curve"/>
			<point x="1136.96" y="149.128" type="line"/>
			<point x="1102.568" y="131.032"/>
			<point x="1070.232" y="122.864"/>
			<point x="1037.544" y="122.864" type="curve" smooth="yes"/>
			<point x="995.024" y="122.864"/>
			<point x="970.096" y="143.976"/>
			<point x="970.096" y="195.072" type="curve" smooth="yes"/>
			<point x="970.096" y="732.992" type="line" smooth="yes"/>
			<point x="970.096" y="927.632"/>
			<point x="869.84" y="1050.48"/>
			<point x="600.128" y="1050.48" type="curve" smooth="yes"/>
			<point x="337.536" y="1050.48"/>
			<point x="67.024" y="898.672"/>
			<point x="67.024" y="778.896" type="curve" smooth="yes"/>
			<point x="67.024" y="738.192"/>
			<point x="99.32" y="713.712"/>
			<point x="168.704" y="713.712" type="curve" smooth="yes"/>
			<point x="221.256" y="713.712"/>
			<point x="267.736" y="734.488"/>
			<point x="289.272" y="763.912" type="curve" smooth="yes"/>
			<point x="313.976" y="797.208"/>
			<point x="327.032" y="857.4"/>
			<point x="343.104" y="995.552" type="curve"/>
			<point x="301.12" y="936.112" type="line"/>
			<point x="334.88" y="946.04"/>
			<point x="386.496" y="951.504"/>
			<point x="446.664" y="951.504" type="curve" smooth="yes"/>
			<point x="564.872" y="951.504"/>
			<point x="621.504" y="887.28"/>
			<point x="621.504" y="780.736" type="curve" smooth="yes"/>
			<point x="621.504" y="306.184" type="line" smooth="yes"/>
			<point x="621.504" y="209.992"/>
			<point x="577.2" y="170.152"/>
			<point x="510.152" y="170.152" type="curve" smooth="yes"/>
			<point x="440.072" y="170.152"/>
			<point x="393.232" y="215.192"/>
			<point x="393.232" y="324.36" type="curve" smooth="yes"/>
			<point x="393.232" y="448.512"/>
			<point x="433.96" y="514.424"/>
			<point x="666.104" y="597.432" type="curve"/>
		</contour>
	</outline>
	<anchor name="top" x="539.096" y="1024"/>
	<anchor name="right" x="1136.96" y="0"/>
	<anchor name="bottom" x="550.76" y="0"/>
</glyph>
<glyph name="b" format="2">
	<unicode hex="0062"/>
	<advance width="1250.184"/>
	<outline>
		<contour>
			<point x="201.944" y="67.48" type="line"/>
			<point x="330.048" y="0.464"/>
			<point x="458.048" y="-26.48"/>
			<point x="599.024" y="-26.48" type="curve" smooth="yes"/>
			<point x="942.056" y="-26.48"/>
			<point x="1191.032" y="185.28"/>
			<point x="1191.032" y="578.2" type="curve" smooth="yes"/>
			<point x="1191.032" y="885.992"/>
			<point x="1044.752" y="1050.48"/>
			<point x="797.008" y="1050.48" type="curve" smooth="yes"/>
			<point x="682.472" y="1050.48"/>
			<point x="595.872" y="1013.272"/>
			<point x="417.576" y="822.624" type="curve"/>
			<point x="422.856" y="791.608" type="line"/>
			<point x="487.88" y="846.432"/>
			<point x="545.944" y="865.528"/>
			<point x="612.936" y="865.528" type="curve" smooth="yes"/>
			<point x="763.672" y="865.528"/>
			<point x="830.44" y="766.056"/>
			<point x="830.44" y="487.832" type="curve" smooth="yes"/>
			<point x="830.44" y="154.656"/>
			<point x="754.728" y="37.72"/>
			<point x="628.712" y="37.72" type="curve" smooth="yes"/>
			<point x="534.368" y="37.72"/>
			<point x="476.56" y="103.208"/>
			<point x="476.56" y="209.584" type="curve" smooth="yes"/>
			<point x="476.56" y="1291.136" type="line"/>
			<point x="481.136" y="1490.48" type="line"/>
			<point x="459.768" y="1490.48" type="line"/>
			<point x="-31.92" y="1382.136" type="line"/>
			<point x="-31.92" y="1355.472" type="line"/>
			<point x="46.08" y="1287.096"/>
			<point x="101.968" y="1237.552"/>
			<point x="127.968" y="1214.76" type="curve"/>
			<point x="127.968" y="219.816" type="line"/>
			<point x="77.6" y="-28.648" type="line"/>
			<point x="93.192" y="-38.24" type="line"/>
			<point x="327.536" y="77.336" type="line"/>
		</contour>
	</outline>
	<anchor name="UCtop" x="626.832" y="1498.04"/>
	<anchor name="bottom" x="619.232" y="0"/>
</glyph>
<glyph name="c" format="2">
	<unicode hex="0063"/>
	<advance width="1023.352"/>
	<outline>
		<contour>
			<point x="631.4" y="1050.48" type="curve" smooth="yes"/>
			<point x="310.312" y="1050.48"/>
			<point x="55.56" y="813"/>
			<point x="55.56" y="492.704" type="curve" smooth="yes"/>
			<point x="55.56" y="164.48"/>
			<point x="254.688" y="-26.48"/>
			<point x="549.104" y="-26.48" type="curve" smooth="yes"/>
			<point x="731.32" y="-26.48"/>
			<point x="860.28" y="54.48"/>
			<point x="997.424" y="302.728" type="curve"/>
			<point x="973.352" y="323.448" type="line"/>
			<point x="884.376" y="231.8"/>
			<point x="804.944" y="202.056"/>
			<point x="693.76" y="202.056" type="curve" smooth="yes"/>
			<point x="494.568" y="202.056"/>
			<point x="384.232" y="326.096"/>
			<point x="384.232" y="660.448" type="curve" smooth="yes"/>
			<point x="384.232" y="902.344"/>
			<point x="451.24" y="983.872"/>
			<point x="549.936" y="983.872" type="curve" smooth="yes"/>
			<point x="674.992" y="983.872"/>
			<point x="816.336" y="744.216"/>
			<point x="851.76" y="744.216" type="curve" smooth="yes"/>
			<point x="918" y="744.216"/>
			<point x="979.68" y="793.88"/>
			<point x="979.68" y="869.192" type="curve" smooth="yes"/>
			<point x="979.68" y="955.616"/>
			<point x="887.552" y="1050.48"/>
		</contour>
	</outline>
	<anchor name="top" x="554.272" y="1024"/>
	<anchor name="right" x="984.464" y="0"/>
	<anchor name="bottom" x="565.288" y="0"/>
</glyph>
<glyph name="e" format="2">
  <advance width="1051"/>
  <unicode hex="0065"/>
  <anchor x="544.5519999999999" y="1024.0" name="top"/>
  <anchor x="1016.464" y="0.0" name="right"/>
  <anchor x="563.992" y="0.0" name="bottom"/>
  <outline>
    <contour>
      <point x="583.808" y="1050.48" type="curve" smooth="yes"/>
      <point x="239.336" y="1050.48"/>
      <point x="56.855999999999995" y="790.3520000000001"/>
      <point x="56.855999999999995" y="491.408" type="curve" smooth="yes"/>
      <point x="56.855999999999995" y="163.832"/>
      <point x="258.44800000000004" y="-26.48"/>
      <point x="556.3839999999999" y="-26.48" type="curve" smooth="yes"/>
      <point x="742.008" y="-26.48"/>
      <point x="875.616" y="57.72"/>
      <point x="1016.464" y="309.208" type="curve"/>
      <point x="992.0400000000001" y="329.928" type="line"/>
      <point x="901.712" y="235.04"/>
      <point x="816.984" y="202.056"/>
      <point x="708.928" y="202.056" type="curve" smooth="yes"/>
      <point x="496.2" y="202.056"/>
      <point x="385.52799999999996" y="322.856"/>
      <point x="385.52799999999996" y="631.936" type="curve" smooth="yes"/>
      <point x="385.52799999999996" y="896.952"/>
      <point x="444.296" y="981.3919999999999"/>
      <point x="549.92" y="981.3919999999999" type="curve" smooth="yes"/>
      <point x="635.576" y="981.3919999999999"/>
      <point x="676.544" y="905.424"/>
      <point x="689.12" y="660.6160000000001" type="curve"/>
      <point x="847.4720000000001" y="710.3359999999999" type="line"/>
      <point x="321.392" y="710.336" type="line"/>
      <point x="321.392" y="630.952" type="line"/>
      <point x="998.944" y="630.952" type="line"/>
      <point x="979.0" y="895.8"/>
      <point x="837.872" y="1050.48"/>
    </contour>
  </outline>
</glyph>
<glyph name="f" format="2">
	<unicode hex="0066"/>
	<advance width="850.024"/>
	<outline>
		<contour>
			<point x="234.208" y="868.696" type="line"/>
			<point x="836.448" y="868.696" type="line"/>
			<point x="856.984" y="1024" type="line"/>
			<point x="359.832" y="1024" type="line"/>
			<point x="212.984" y="1046.496" type="line"/>
			<point x="18.04" y="964.872" type="line"/>
			<point x="18.04" y="934.168" type="line"/>
			<point x="199.04" y="841.736" type="line"/>
		</contour>
		<contour>
			<point x="533.744" y="64.128" type="line"/>
			<point x="533.744" y="1256.632" type="line" smooth="yes"/>
			<point x="533.744" y="1359.088"/>
			<point x="569.08" y="1407.52"/>
			<point x="643.736" y="1407.52" type="curve" smooth="yes"/>
			<point x="772.032" y="1407.52"/>
			<point x="897.512" y="1222.288"/>
			<point x="929.696" y="1222.288" type="curve" smooth="yes"/>
			<point x="989.416" y="1222.288"/>
			<point x="1046.448" y="1277.656"/>
			<point x="1046.448" y="1342.504" type="curve" smooth="yes"/>
			<point x="1046.448" y="1429.352"/>
			<point x="961.136" y="1490.48"/>
			<point x="751.576" y="1490.48" type="curve" smooth="yes"/>
			<point x="402.464" y="1490.48"/>
			<point x="183.04" y="1285.52"/>
			<point x="183.04" y="972.232" type="curve" smooth="yes"/>
			<point x="183.04" y="64.128" type="line"/>
			<point x="76.976" y="30.888" type="line"/>
			<point x="76.976" y="0" type="line"/>
			<point x="659.808" y="0" type="line"/>
			<point x="659.808" y="30.888" type="line"/>
		</contour>
	</outline>
	<anchor name="UCtop" x="608.672" y="1430"/>
	<anchor name="bottom" x="358.392" y="0"/>
</glyph>
<glyph name="g" format="2">
  <advance width="1116.144"/>
  <unicode hex="0067"/>
  <anchor x="507.768" y="1024.0" name="top"/>
  <anchor x="532.952" y="-438.52" name="bottom"/>
  <outline>
    <contour>
      <point x="469.568" y="-465.0" type="curve" smooth="yes"/>
      <point x="893.016" y="-465.0"/>
      <point x="1081.216" y="-297.112"/>
      <point x="1081.2160000000001" y="-107.44800000000001" type="curve" smooth="yes"/>
      <point x="1081.2160000000001" y="68.104"/>
      <point x="960.936" y="168.00799999999998"/>
      <point x="638.256" y="194.36" type="curve" smooth="yes"/>
      <point x="336.69599999999997" y="218.95200000000003"/>
      <point x="289.696" y="236.28799999999998"/>
      <point x="289.696" y="298.736" type="curve" smooth="yes"/>
      <point x="289.696" y="335.552"/>
      <point x="322.64" y="363.224"/>
      <point x="412.16" y="370.224" type="curve"/>
      <point x="400.104" y="396.81600000000003" type="line"/>
      <point x="187.6337514912436" y="370.6380212443812"/>
      <point x="76.416" y="273.93369230769235"/>
      <point x="76.416" y="155.952" type="curve" smooth="yes"/>
      <point x="76.416" y="6.719999999999999"/>
      <point x="176.24" y="-79.352"/>
      <point x="442.328" y="-100.76" type="curve" smooth="yes"/>
      <point x="729.48" y="-121.464"/>
      <point x="863.344" y="-141.488"/>
      <point x="863.344" y="-239.456" type="curve" smooth="yes"/>
      <point x="863.344" y="-329.2992850241546"/>
      <point x="770.4737777777779" y="-398.32"/>
      <point x="565.832" y="-398.32" type="curve" smooth="yes"/>
      <point x="370.02043312101915" y="-398.32"/>
      <point x="243.776" y="-334.28572511848336"/>
      <point x="243.776" y="-228.976" type="curve" smooth="yes"/>
      <point x="243.776" y="-147.232"/>
      <point x="311.53600000000006" y="-95.632"/>
      <point x="542.1840000000001" y="-70.352" type="curve"/>
      <point x="542.832" y="-58.83200000000001" type="line"/>
      <point x="442.784" y="-59.480000000000004" type="line"/>
      <point x="124.976" y="-106.576"/>
      <point x="11.536000000000001" y="-169.12"/>
      <point x="11.536000000000001" y="-265.584" type="curve" smooth="yes"/>
      <point x="11.536000000000001" y="-379.68"/>
      <point x="124.112" y="-465.0"/>
    </contour>
    <contour>
      <point x="503.952" y="357.52" type="curve" smooth="yes"/>
      <point x="758.7040000000001" y="357.52"/>
      <point x="935.312" y="499.224"/>
      <point x="935.312" y="704.296" type="curve" smooth="yes"/>
      <point x="935.312" y="914.904"/>
      <point x="765.184" y="1050.48"/>
      <point x="498.768" y="1050.48" type="curve" smooth="yes"/>
      <point x="247.184" y="1050.48"/>
      <point x="69.168" y="908.424"/>
      <point x="69.168" y="703.0" type="curve" smooth="yes"/>
      <point x="69.168" y="492.744"/>
      <point x="240.704" y="357.52"/>
    </contour>
    <contour>
      <point x="520.104" y="417.44" type="curve" smooth="yes"/>
      <point x="439.52000000000004" y="413.568"/>
      <point x="391.696" y="530.976"/>
      <point x="385.712" y="752.632" type="curve" smooth="yes"/>
      <point x="379.37600000000003" y="903.248"/>
      <point x="412.272" y="986.336"/>
      <point x="482.61600000000004" y="990.56" type="curve" smooth="yes"/>
      <point x="564.96" y="994.432"/>
      <point x="611.7280000000001" y="879.4879999999999"/>
      <point x="618.416" y="656.072" type="curve" smooth="yes"/>
      <point x="625.456" y="505.10400000000004"/>
      <point x="594.32" y="423.072"/>
    </contour>
    <contour>
      <point x="644.912" y="1007.592" type="line"/>
      <point x="893.112" y="1000.904"/>
      <point x="960.2560000000001" y="856.3199999999999"/>
      <point x="1042.232" y="856.3199999999999" type="curve" smooth="yes"/>
      <point x="1101.544" y="856.3199999999999"/>
      <point x="1151.6000000000001" y="925.648"/>
      <point x="1151.6000000000001" y="1009.2400000000001" type="curve" smooth="yes"/>
      <point x="1151.6000000000001" y="1058.904"/>
      <point x="1127.824" y="1076.2"/>
      <point x="1097.752" y="1076.2" type="curve" smooth="yes"/>
      <point x="1044.608" y="1076.2"/>
      <point x="987.3679999999999" y="1021.312"/>
      <point x="588.36" y="1043.776" type="curve"/>
    </contour>
  </outline>
</glyph>
<glyph name="h" format="2">
  <advance width="1282.976"/>
  <unicode hex="0068"/>
  <anchor x="639.8240000000001" y="1430.6480000000001" name="UCtop"/>
  <anchor x="648.6719999999999" y="0.0" name="bottom"/>
  <anchor x="373.864" y="1158.024" name="center"/>
  <outline>
    <contour>
      <point x="700.384" y="30.888" type="line"/>
      <point x="700.384" y="0.0" type="line"/>
      <point x="1253.68" y="0.0" type="line"/>
      <point x="1253.68" y="30.888" type="line"/>
      <point x="1148.2640000000001" y="64.128" type="line"/>
      <point x="1148.2640000000001" y="742.9200000000001" type="line" smooth="yes"/>
      <point x="1148.2640000000001" y="939.464"/>
      <point x="1053.008" y="1044.0"/>
      <point x="868.024" y="1044.0" type="curve" smooth="yes"/>
      <point x="722.4559999999999" y="1044.0"/>
      <point x="654.768" y="1015.2400000000001"/>
      <point x="449.00800000000004" y="791.552" type="curve"/>
      <point x="453.58399999999995" y="773.144" type="line"/>
      <point x="519.472" y="804.44"/>
      <point x="583.24" y="823.592"/>
      <point x="648.712" y="823.592" type="curve" smooth="yes"/>
      <point x="751.76" y="823.592"/>
      <point x="799.672" y="781.5120000000001"/>
      <point x="799.672" y="672.784" type="curve" smooth="yes"/>
      <point x="799.672" y="62.184" type="line"/>
    </contour>
    <contour>
      <point x="589.48" y="0.0" type="line"/>
      <point x="589.48" y="30.888" type="line"/>
      <point x="490.544" y="62.184" type="line"/>
      <point x="490.544" y="1129.568" type="line"/>
      <point x="490.54400000000004" y="1490.48" type="line"/>
      <point x="471.64" y="1490.48" type="line"/>
      <point x="-20.4" y="1373.952" type="line"/>
      <point x="-20.4" y="1346.232" type="line"/>
      <point x="57.6" y="1276.0473128834356"/>
      <point x="115.952" y="1223.6988957055216"/>
      <point x="141.952" y="1200.304" type="curve"/>
      <point x="141.952" y="64.128" type="line"/>
      <point x="35.888" y="30.888" type="line"/>
      <point x="35.888" y="0.0" type="line"/>
    </contour>
  </outline>
</glyph>
<glyph name="i" format="2">
	<unicode hex="0069"/>
	<advance width="645.016"/>
	<outline>
		<contour>
			<point x="322.432" y="1150.16" type="curve" smooth="yes"/>
			<point x="431.056" y="1150.16"/>
			<point x="495.256" y="1230.472"/>
			<point x="495.256" y="1322.208" type="curve" smooth="yes"/>
			<point x="495.256" y="1411"/>
			<point x="431.056" y="1483.312"/>
			<point x="322.432" y="1483.312" type="curve" smooth="yes"/>
			<point x="214.456" y="1483.312"/>
			<point x="146.904" y="1411"/>
			<point x="146.904" y="1322.208" type="curve" smooth="yes"/>
			<point x="146.904" y="1230.472"/>
			<point x="214.456" y="1150.16"/>
		</contour>
		<contour>
			<point x="508.192" y="1054.352" type="line"/>
			<point x="489.288" y="1054.352" type="line"/>
			<point x="36.688" y="932.896" type="line"/>
			<point x="36.688" y="905.176" type="line"/>
			<point x="97.688" y="840.487510989"/>
			<point x="137.6" y="802.8662747253"/>
			<point x="159.6" y="779.536" type="curve"/>
			<point x="159.6" y="64.128" type="line"/>
			<point x="53.536" y="30.888" type="line"/>
			<point x="53.536" y="0" type="line"/>
			<point x="607.128" y="0" type="line"/>
			<point x="607.128" y="30.888" type="line"/>
			<point x="508.192" y="62.184" type="line"/>
			<point x="508.192" y="844.448" type="line"/>
		</contour>
	</outline>
	<anchor name="top" x="319.472" y="1430"/>
	<anchor name="bottom" x="333.896" y="0"/>
	<anchor name="right" x="488.392" y="0"/>
</glyph>
<glyph name="j" format="2">
	<unicode hex="006A"/>
	<advance width="617.456"/>
	<outline>
		<contour>
			<point x="312.616" y="1150.16" type="curve" smooth="yes"/>
			<point x="421.24" y="1150.16"/>
			<point x="485.44" y="1230.472"/>
			<point x="485.44" y="1322.208" type="curve" smooth="yes"/>
			<point x="485.44" y="1411"/>
			<point x="421.24" y="1483.312"/>
			<point x="312.616" y="1483.312" type="curve" smooth="yes"/>
			<point x="204.64" y="1483.312"/>
			<point x="137.088" y="1411"/>
			<point x="137.088" y="1322.208" type="curve" smooth="yes"/>
			<point x="137.088" y="1230.472"/>
			<point x="204.64" y="1150.16"/>
		</contour>
		<contour>
			<point x="150.136" y="779.536" type="curve"/>
			<point x="150.136" y="-63.816" type="line" smooth="yes"/>
			<point x="150.136" y="-229.312"/>
			<point x="140.952" y="-267.328"/>
			<point x="7.424" y="-435.632" type="curve"/>
			<point x="27.128" y="-458.52" type="line"/>
			<point x="460.16" y="-154.616"/>
			<point x="498.728" y="-98.528"/>
			<point x="498.728" y="121.672" type="curve" smooth="yes"/>
			<point x="498.728" y="844.448" type="line"/>
			<point x="498.728" y="1054.352" type="line"/>
			<point x="479.824" y="1054.352" type="line"/>
			<point x="27.224" y="932.896" type="line"/>
			<point x="27.224" y="905.176" type="line"/>
			<point x="88.224" y="840.487510989"/>
			<point x="128.136" y="802.8662747253"/>
		</contour>
	</outline>
	<anchor name="top" x="319.152" y="1430"/>
	<anchor name="bottom" x="312.112" y="-438.52"/>
</glyph>
<glyph name="k" format="2">
	<unicode hex="006B"/>
	<advance width="1263.36"/>
	<outline>
		<contour>
			<point x="603.264" y="623.808" type="line"/>
			<point x="1065.008" y="952.816" type="line"/>
			<point x="1232.096" y="991" type="line"/>
			<point x="1232.096" y="1024" type="line"/>
			<point x="797.552" y="1024" type="line"/>
			<point x="797.552" y="991" type="line"/>
			<point x="954.92" y="954.168" type="line"/>
			<point x="511.784" y="598.848" type="line"/>
			<point x="410.184" y="598.848" type="line"/>
			<point x="410.184" y="535.352" type="line"/>
			<point x="507.264" y="535.352" type="line"/>
			<point x="807.872" y="58.536" type="line"/>
			<point x="717.528" y="30.888" type="line"/>
			<point x="717.528" y="0" type="line"/>
			<point x="1294.08" y="0" type="line"/>
			<point x="1294.08" y="30.888" type="line"/>
			<point x="1203.76" y="64.424" type="line"/>
			<point x="748.296" y="758.176" type="line"/>
		</contour>
		<contour>
			<point x="490.544" y="64.128" type="line"/>
			<point x="490.544" y="1291.488" type="line"/>
			<point x="490.544" y="1490.48" type="line"/>
			<point x="471.64" y="1490.48" type="line"/>
			<point x="-20.4" y="1381.08" type="line"/>
			<point x="-20.4" y="1353.36" type="line"/>
			<point x="57.6" y="1289.4153128834"/>
			<point x="115.952" y="1241.7068957055"/>
			<point x="141.952" y="1220.392" type="curve"/>
			<point x="141.952" y="64.128" type="line"/>
			<point x="35.888" y="30.888" type="line"/>
			<point x="35.888" y="0" type="line"/>
			<point x="590.128" y="0" type="line"/>
			<point x="590.128" y="30.888" type="line"/>
		</contour>
	</outline>
	<anchor name="bottom" x="647.688" y="0"/>
	<anchor name="UCtop" x="648.576" y="1430"/>
</glyph>
<glyph name="l" format="2">
  <advance width="635"/>
  <unicode hex="006C"/>
  <anchor x="307.952" y="1430.0" name="UCtop"/>
  <anchor x="491.59999999999997" y="1452.032" name="right"/>
  <anchor x="317.30400000000003" y="0.0" name="bottom"/>
  <anchor x="736.3359999999999" y="582.0" name="mid"/>
  <outline>
    <contour>
      <point x="491.59999999999997" y="64.128" type="line"/>
      <point x="491.59999999999997" y="1287.9679999999998" type="line"/>
      <point x="491.6" y="1490.48" type="line"/>
      <point x="472.69599999999997" y="1490.48" type="line"/>
      <point x="-19.344" y="1381.08" type="line"/>
      <point x="-19.344" y="1353.3600000000001" type="line"/>
      <point x="58.656" y="1289.4153128834355"/>
      <point x="117.00800000000001" y="1241.7068957055217"/>
      <point x="143.008" y="1220.392" type="curve"/>
      <point x="143.008" y="64.128" type="line"/>
      <point x="36.944" y="30.888" type="line"/>
      <point x="36.944" y="0.0" type="line"/>
      <point x="597.664" y="0.0" type="line"/>
      <point x="597.664" y="30.888" type="line"/>
    </contour>
  </outline>
</glyph>
<glyph name="m" format="2">
	<unicode hex="006D"/>
	<advance width="1893.84"/>
	<outline>
		<contour>
			<point x="506.488" y="819.176" type="line"/>
			<point x="506.488" y="1054.352" type="line"/>
			<point x="487.584" y="1054.352" type="line"/>
			<point x="34.984" y="932.896" type="line"/>
			<point x="34.984" y="905.176" type="line"/>
			<point x="94.232" y="850.672"/>
			<point x="135.248" y="804.4978461538"/>
			<point x="157.896" y="779.536" type="curve"/>
			<point x="157.896" y="64.128" type="line"/>
			<point x="51.832" y="30.888" type="line"/>
			<point x="51.832" y="0" type="line"/>
			<point x="598.944" y="0" type="line"/>
			<point x="598.944" y="30.888" type="line"/>
			<point x="506.488" y="62.184" type="line"/>
		</contour>
		<contour>
			<point x="1132.632" y="756.736" type="line" smooth="yes"/>
			<point x="1132.632" y="944.168"/>
			<point x="1041.376" y="1044"/>
			<point x="865.152" y="1044" type="curve" smooth="yes"/>
			<point x="731.12" y="1044"/>
			<point x="664.544" y="1018.536"/>
			<point x="464.952" y="799.96" type="curve"/>
			<point x="469.176" y="778.144" type="line"/>
			<point x="529.12" y="807.144"/>
			<point x="588.128" y="823.592"/>
			<point x="646.84" y="823.592" type="curve" smooth="yes"/>
			<point x="740.48" y="823.592"/>
			<point x="784.04" y="785.864"/>
			<point x="784.04" y="686.84" type="curve" smooth="yes"/>
			<point x="784.04" y="62.184" type="line"/>
			<point x="691.232" y="30.888" type="line"/>
			<point x="691.232" y="0" type="line"/>
			<point x="1225.088" y="0" type="line"/>
			<point x="1225.088" y="30.888" type="line"/>
			<point x="1132.632" y="62.184" type="line"/>
		</contour>
		<contour>
			<point x="1758.776" y="756.736" type="line" smooth="yes"/>
			<point x="1758.776" y="944.168"/>
			<point x="1667.52" y="1044"/>
			<point x="1491.296" y="1044" type="curve" smooth="yes"/>
			<point x="1357.264" y="1044"/>
			<point x="1290.688" y="1018.536"/>
			<point x="1091.096" y="799.96" type="curve"/>
			<point x="1095.32" y="778.144" type="line"/>
			<point x="1155.264" y="807.144"/>
			<point x="1214.272" y="823.592"/>
			<point x="1272.984" y="823.592" type="curve" smooth="yes"/>
			<point x="1366.624" y="823.592"/>
			<point x="1410.184" y="785.864"/>
			<point x="1410.184" y="686.84" type="curve" smooth="yes"/>
			<point x="1410.184" y="62.184" type="line"/>
			<point x="1317.376" y="30.888" type="line"/>
			<point x="1317.376" y="0" type="line"/>
			<point x="1864.192" y="0" type="line"/>
			<point x="1864.192" y="30.888" type="line"/>
			<point x="1758.776" y="64.128" type="line"/>
		</contour>
	</outline>
	<anchor name="top" x="949.912" y="1024"/>
	<anchor name="bottom" x="949.912" y="0"/>
</glyph>
<glyph name="n" format="2">
	<unicode hex="006E"/>
	<advance width="1298.92"/>
	<outline>
		<contour>
			<point x="506.488" y="812.696" type="line"/>
			<point x="506.488" y="1054.352" type="line"/>
			<point x="487.584" y="1054.352" type="line"/>
			<point x="34.984" y="932.896" type="line"/>
			<point x="34.984" y="905.176" type="line"/>
			<point x="94.232" y="850.672"/>
			<point x="135.248" y="804.4978461538"/>
			<point x="157.896" y="779.536" type="curve"/>
			<point x="157.896" y="64.128" type="line"/>
			<point x="51.832" y="30.888" type="line"/>
			<point x="51.832" y="0" type="line"/>
			<point x="605.424" y="0" type="line"/>
			<point x="605.424" y="30.888" type="line"/>
			<point x="506.488" y="62.184" type="line"/>
		</contour>
		<contour>
			<point x="716.328" y="30.888" type="line"/>
			<point x="716.328" y="0" type="line"/>
			<point x="1269.624" y="0" type="line"/>
			<point x="1269.624" y="30.888" type="line"/>
			<point x="1164.208" y="64.128" type="line"/>
			<point x="1164.208" y="742.92" type="line" smooth="yes"/>
			<point x="1164.208" y="939.464"/>
			<point x="1068.952" y="1044"/>
			<point x="883.968" y="1044" type="curve" smooth="yes"/>
			<point x="738.4" y="1044"/>
			<point x="670.712" y="1015.24"/>
			<point x="464.952" y="791.552" type="curve"/>
			<point x="469.528" y="773.144" type="line"/>
			<point x="535.416" y="804.44"/>
			<point x="599.184" y="823.592"/>
			<point x="664.656" y="823.592" type="curve" smooth="yes"/>
			<point x="767.704" y="823.592"/>
			<point x="815.616" y="781.512"/>
			<point x="815.616" y="672.784" type="curve" smooth="yes"/>
			<point x="815.616" y="62.184" type="line"/>
		</contour>
	</outline>
	<anchor name="top" x="663.968" y="1024"/>
	<anchor name="bottom" x="663.968" y="0"/>
</glyph>
<glyph name="o" format="2">
	<unicode hex="006F"/>
	<advance width="1187.896"/>
	<outline>
		<contour>
			<point x="594.512" y="40.2" type="curve" smooth="yes"/>
			<point x="461.536" y="40.2"/>
			<point x="418.56" y="208.2"/>
			<point x="418.56" y="538.92" type="curve" smooth="yes"/>
			<point x="418.56" y="851.144"/>
			<point x="466.128" y="983.152"/>
			<point x="592.736" y="983.152" type="curve" smooth="yes"/>
			<point x="725.712" y="983.152"/>
			<point x="768.688" y="815.8"/>
			<point x="768.688" y="485.08" type="curve" smooth="yes"/>
			<point x="768.688" y="172.208"/>
			<point x="721.12" y="40.2"/>
		</contour>
		<contour>
			<point x="582.144" y="-26.48" type="curve" smooth="yes"/>
			<point x="892.376" y="-26.48"/>
			<point x="1132.392" y="194.112"/>
			<point x="1132.392" y="515.536" type="curve" smooth="yes"/>
			<point x="1132.392" y="831.776"/>
			<point x="921.984" y="1050.48"/>
			<point x="605.104" y="1050.48" type="curve" smooth="yes"/>
			<point x="290.168" y="1050.48"/>
			<point x="55.504" y="828.888"/>
			<point x="55.504" y="508.464" type="curve" smooth="yes"/>
			<point x="55.504" y="192.576"/>
			<point x="271.264" y="-26.48"/>
		</contour>
	</outline>
	<anchor name="top" x="594.272" y="1024"/>
	<anchor name="bottom" x="594.272" y="0"/>
	<anchor name="horn" x="789.64" y="1023.296"/>
	<anchor name="right" x="779.992" y="0"/>
</glyph>
<glyph name="p" format="2">
	<unicode hex="0070"/>
	<advance width="1271"/>
	<outline>
		<contour>
			<point x="850.608" y="487.832" type="curve" smooth="yes"/>
			<point x="850.608" y="157.248"/>
			<point x="776.192" y="37.72"/>
			<point x="648.88" y="37.72" type="curve" smooth="yes"/>
			<point x="554.536" y="37.72"/>
			<point x="496.728" y="103.208"/>
			<point x="496.728" y="209.584" type="curve" smooth="yes"/>
			<point x="496.728" y="856.36" type="line"/>
			<point x="496.728" y="1054.352" type="line"/>
			<point x="477.824" y="1054.352" type="line"/>
			<point x="25.224" y="932.896" type="line"/>
			<point x="25.224" y="905.176" type="line"/>
			<point x="99.224" y="827.1295824176"/>
			<point x="122.136" y="807.6057142857"/>
			<point x="148.136" y="780.184" type="curve"/>
			<point x="148.136" y="-374.392" type="line"/>
			<point x="42.072" y="-407.632" type="line"/>
			<point x="42.072" y="-438.52" type="line"/>
			<point x="622.792" y="-438.52" type="line"/>
			<point x="622.792" y="-407.632" type="line"/>
			<point x="496.728" y="-374.392" type="line"/>
			<point x="496.728" y="51.928" type="line"/>
			<point x="296.632" y="51.928" type="line"/>
			<point x="402.704" y="-3.424"/>
			<point x="523.576" y="-26.48"/>
			<point x="644.464" y="-26.48" type="curve" smooth="yes"/>
			<point x="970.648" y="-26.48"/>
			<point x="1211.2" y="187.224"/>
			<point x="1211.2" y="578.2" type="curve" smooth="yes"/>
			<point x="1211.2" y="878.864"/>
			<point x="1076.584" y="1050.48"/>
			<point x="828.84" y="1050.48" type="curve" smooth="yes"/>
			<point x="707.176" y="1050.48"/>
			<point x="621.224" y="1012.624"/>
			<point x="437.744" y="822.624" type="curve"/>
			<point x="443.024" y="791.608" type="line"/>
			<point x="495.088" y="839.304"/>
			<point x="556.392" y="865.528"/>
			<point x="633.104" y="865.528" type="curve" smooth="yes"/>
			<point x="788.376" y="865.528"/>
			<point x="850.608" y="760.872"/>
		</contour>
	</outline>
	<anchor name="top" x="612.44" y="1024"/>
	<anchor name="bottom" x="322.432" y="-438.52"/>
</glyph>
<glyph name="q" format="2">
	<unicode hex="0071"/>
	<advance width="1246.184"/>
	<outline>
		<contour>
			<point x="418.096" y="556.256" type="curve" smooth="yes"/>
			<point x="418.096" y="868.048"/>
			<point x="493.808" y="986.28"/>
			<point x="619.824" y="986.28" type="curve" smooth="yes"/>
			<point x="714.168" y="986.28"/>
			<point x="771.976" y="920.792"/>
			<point x="771.976" y="814.416" type="curve" smooth="yes"/>
			<point x="771.976" y="-374.392" type="line"/>
			<point x="645.912" y="-407.632" type="line"/>
			<point x="645.912" y="-438.52" type="line"/>
			<point x="1227.28" y="-438.52" type="line"/>
			<point x="1227.28" y="-407.632" type="line"/>
			<point x="1121.216" y="-374.392" type="line"/>
			<point x="1121.216" y="826.888" type="line"/>
			<point x="1170.936" y="1037.296" type="line"/>
			<point x="1153.64" y="1051.776" type="line"/>
			<point x="911.928" y="972.048" type="line"/>
			<point x="1013.544" y="971.424" type="line"/>
			<point x="902.288" y="1026.776"/>
			<point x="776.232" y="1050.48"/>
			<point x="649.512" y="1050.48" type="curve" smooth="yes"/>
			<point x="306.48" y="1050.48"/>
			<point x="57.504" y="838.72"/>
			<point x="57.504" y="462.648" type="curve" smooth="yes"/>
			<point x="57.504" y="169.112"/>
			<point x="221.56" y="-26.48"/>
			<point x="480.968" y="-26.48" type="curve" smooth="yes"/>
			<point x="595.504" y="-26.48"/>
			<point x="676.92" y="9.432"/>
			<point x="830.312" y="203.968" type="curve"/>
			<point x="825.032" y="233.04" type="line"/>
			<point x="771.024" y="174.976"/>
			<point x="701.944" y="158.472"/>
			<point x="642.08" y="158.472" type="curve" smooth="yes"/>
			<point x="482.92" y="158.472"/>
			<point x="418.096" y="274.792"/>
		</contour>
	</outline>
	<anchor name="top" x="625.176" y="1024"/>
	<anchor name="bottom" x="946.92" y="-438.52"/>
</glyph>
<glyph name="r" format="2">
	<unicode hex="0072"/>
	<advance width="980.44"/>
	<outline>
		<contour>
			<point x="854.48" y="1045.24" type="curve" smooth="yes"/>
			<point x="760.912" y="1045.24"/>
			<point x="696.784" y="1013.632"/>
			<point x="471.16" y="758.92" type="curve"/>
			<point x="471.808" y="712.328" type="line"/>
			<point x="515.088" y="756.792"/>
			<point x="553.016" y="775.536"/>
			<point x="612.312" y="775.536" type="curve" smooth="yes"/>
			<point x="689.216" y="775.536"/>
			<point x="727.624" y="745.76"/>
			<point x="814.096" y="745.76" type="curve" smooth="yes"/>
			<point x="903.424" y="745.76"/>
			<point x="975.752" y="823.216"/>
			<point x="975.752" y="918.84" type="curve" smooth="yes"/>
			<point x="975.752" y="994.688"/>
			<point x="929.328" y="1045.24"/>
		</contour>
		<contour>
			<point x="506.488" y="845.096" type="line"/>
			<point x="506.488" y="1054.352" type="line"/>
			<point x="487.584" y="1054.352" type="line"/>
			<point x="34.984" y="932.896" type="line"/>
			<point x="34.984" y="905.176" type="line"/>
			<point x="108.984" y="826.7014395604"/>
			<point x="131.896" y="807.1081428571"/>
			<point x="157.896" y="779.536" type="curve"/>
			<point x="157.896" y="64.128" type="line"/>
			<point x="51.832" y="30.888" type="line"/>
			<point x="51.832" y="0" type="line"/>
			<point x="632.552" y="0" type="line"/>
			<point x="632.552" y="30.888" type="line"/>
			<point x="506.488" y="64.128" type="line"/>
		</contour>
	</outline>
	<anchor name="top" x="506.072" y="1024"/>
	<anchor name="bottom" x="332.192" y="0"/>
</glyph>
<glyph name="s" format="2">
	<unicode hex="0073"/>
	<advance width="919.648"/>
	<outline>
		<contour>
			<point x="497.696" y="1050.48" type="curve" smooth="yes"/>
			<point x="255.912" y="1050.48"/>
			<point x="79.6" y="917.488"/>
			<point x="79.6" y="710.976" type="curve" smooth="yes"/>
			<point x="79.6" y="557.24"/>
			<point x="165.464" y="465.424"/>
			<point x="362.704" y="407.328" type="curve" smooth="yes"/>
			<point x="559.944" y="348.584"/>
			<point x="616.888" y="292.304"/>
			<point x="616.888" y="202.32" type="curve" smooth="yes"/>
			<point x="616.888" y="85.168"/>
			<point x="530.272" y="29.24"/>
			<point x="413.736" y="29.24" type="curve" smooth="yes"/>
			<point x="346.848" y="29.24"/>
			<point x="277.776" y="46.944"/>
			<point x="222.536" y="85.592" type="curve"/>
			<point x="283.552" y="28.056" type="line"/>
			<point x="93.576" y="349.816" type="line"/>
			<point x="56.632" y="349.816" type="line"/>
			<point x="111.04" y="28.984" type="line"/>
			<point x="179.208" y="-5.184"/>
			<point x="271.464" y="-26.48"/>
			<point x="405.216" y="-26.48" type="curve" smooth="yes"/>
			<point x="673.72" y="-26.48"/>
			<point x="862.976" y="123.96"/>
			<point x="862.976" y="339.232" type="curve" smooth="yes"/>
			<point x="862.976" y="503.152"/>
			<point x="791.128" y="617.168"/>
			<point x="573.704" y="683.912" type="curve" smooth="yes"/>
			<point x="355.28" y="750.656"/>
			<point x="322.096" y="796.344"/>
			<point x="322.096" y="867.976" type="curve" smooth="yes"/>
			<point x="322.096" y="952.776"/>
			<point x="382.616" y="994.816"/>
			<point x="499.264" y="994.816" type="curve" smooth="yes"/>
			<point x="574.6" y="994.816"/>
			<point x="637.264" y="970.704"/>
			<point x="711.208" y="905.368" type="curve"/>
			<point x="620.248" y="992.776" type="line"/>
			<point x="784.24" y="721.072" type="line"/>
			<point x="815.888" y="721.072" type="line"/>
			<point x="774.52" y="1000.256" type="line"/>
			<point x="686.8" y="1033.72"/>
			<point x="610.08" y="1050.48"/>
		</contour>
	</outline>
	<anchor name="top" x="462.12" y="1024"/>
	<anchor name="bottom" x="452.824" y="0"/>
</glyph>
<glyph name="t" format="2">
	<unicode hex="0074"/>
	<advance width="878.52"/>
	<outline>
		<contour>
			<point x="514.296" y="306.712" type="curve" smooth="yes"/>
			<point x="514.296" y="996.424" type="line"/>
			<point x="514.296" y="1247.504" type="line"/>
			<point x="495.576" y="1247.504" type="line"/>
			<point x="323.5837170418" y="1149.504"/>
			<point x="50.7465125008" y="998.984"/>
			<point x="12.136" y="976.984" type="curve"/>
			<point x="12.136" y="952.616" type="line"/>
			<point x="167" y="829.904" type="line"/>
			<point x="167" y="280.12" type="line" smooth="yes"/>
			<point x="167" y="68.848"/>
			<point x="283.424" y="-26.832"/>
			<point x="464.816" y="-26.832" type="curve" smooth="yes"/>
			<point x="584.272" y="-26.832"/>
			<point x="683.8" y="12.592"/>
			<point x="894.424" y="161.472" type="curve"/>
			<point x="894.424" y="206.32" type="line"/>
			<point x="801.944" y="182.264"/>
			<point x="738.056" y="175.208"/>
			<point x="676.816" y="175.208" type="curve" smooth="yes"/>
			<point x="568.336" y="175.208"/>
			<point x="514.296" y="218.08"/>
		</contour>
		<contour>
			<point x="380.368" y="868.696" type="line"/>
			<point x="838.112" y="868.696" type="line"/>
			<point x="858.648" y="1024" type="line"/>
			<point x="380.368" y="1024" type="line"/>
		</contour>
	</outline>
	<anchor name="bottom" x="509.2" y="0"/>
	<anchor name="right" x="552.512" y="1536.832"/>
</glyph>
<glyph name="u" format="2">
	<unicode hex="0075"/>
	<advance width="1259.92"/>
	<outline>
		<contour>
			<point x="482.952" y="337.68" type="curve" smooth="yes"/>
			<point x="482.952" y="930.688" type="line"/>
			<point x="489.712" y="1036.536" type="line"/>
			<point x="3.664" y="1010.76" type="line"/>
			<point x="3.664" y="975.648" type="line"/>
			<point x="134.36" y="915.784" type="line"/>
			<point x="134.36" y="271.712" type="line" smooth="yes"/>
			<point x="134.36" y="81"/>
			<point x="226.802893617" y="-20"/>
			<point x="404.528" y="-20" type="curve" smooth="yes"/>
			<point x="546.56" y="-20"/>
			<point x="611.952" y="8.76"/>
			<point x="809.64" y="223.08" type="curve"/>
			<point x="804.008" y="247.672" type="line"/>
			<point x="744.6" y="216.448"/>
			<point x="685.128" y="197.24"/>
			<point x="623.544" y="197.24" type="curve" smooth="yes"/>
			<point x="527.624" y="197.24"/>
			<point x="482.952" y="237.376"/>
		</contour>
		<contour>
			<point x="777.744" y="-37.016" type="line"/>
			<point x="798.296" y="-37.016" type="line"/>
			<point x="1253.584" y="43.512" type="line"/>
			<point x="1253.584" y="71.344" type="line"/>
			<point x="1211.584" y="95.699857201"/>
			<point x="1131.544" y="140.8663673137"/>
			<point x="1107.544" y="154.784" type="curve"/>
			<point x="1107.544" y="928.744" type="line"/>
			<point x="1121.432" y="1036.536" type="line"/>
			<point x="634.736" y="1010.76" type="line"/>
			<point x="634.736" y="975.648" type="line"/>
			<point x="758.952" y="917.728" type="line"/>
			<point x="758.952" y="155.576" type="line"/>
		</contour>
	</outline>
	<anchor name="top" x="604.912" y="1024"/>
	<anchor name="right" x="1193.744" y="0"/>
	<anchor name="bottom" x="608.432" y="0"/>
	<anchor name="horn" x="1032.624" y="1022"/>
</glyph>
<glyph name="v" format="2">
	<unicode hex="0076"/>
	<advance width="1216.24"/>
	<outline>
		<contour>
			<point x="1114.512" y="963.296" type="line"/>
			<point x="1217.96" y="991" type="line"/>
			<point x="1217.96" y="1024" type="line"/>
			<point x="913.544" y="1024" type="line"/>
			<point x="913.544" y="991" type="line"/>
			<point x="1031.92" y="964.24" type="line"/>
			<point x="734.456" y="153.376" type="line"/>
			<point x="792.712" y="179.296" type="line"/>
			<point x="462.448" y="959.536" type="line"/>
			<point x="581.528" y="991" type="line"/>
			<point x="581.528" y="1024" type="line"/>
			<point x="-33.496" y="1024" type="line"/>
			<point x="-33.496" y="992.944" type="line"/>
			<point x="72.472" y="951.056" type="line"/>
			<point x="521.88" y="-9.152" type="line"/>
			<point x="733.856" y="-9.152" type="line"/>
		</contour>
	</outline>
	<anchor name="top" x="650.096" y="1024"/>
	<anchor name="bottom" x="620.656" y="0"/>
</glyph>
<glyph name="w" format="2">
	<unicode hex="0077"/>
	<advance width="1723.856"/>
	<outline>
		<contour>
			<point x="1542.2" y="964.24" type="line"/>
			<point x="1343.184" y="154.672" type="line"/>
			<point x="1409.032" y="228.408" type="line"/>
			<point x="1095.608" y="1034.56" type="line"/>
			<point x="880.576" y="1034.56" type="line"/>
			<point x="594.552" y="154.024" type="line"/>
			<point x="658.048" y="221.832" type="line"/>
			<point x="450.304" y="959.536" type="line"/>
			<point x="569.384" y="991" type="line"/>
			<point x="569.384" y="1024" type="line"/>
			<point x="-18.904" y="1024" type="line"/>
			<point x="-18.904" y="992.944" type="line"/>
			<point x="87.064" y="951.056" type="line"/>
			<point x="384.696" y="-9.152" type="line"/>
			<point x="596.672" y="-9.152" type="line"/>
			<point x="892.664" y="821.032" type="line"/>
			<point x="824.592" y="798.352" type="line"/>
			<point x="1143.72" y="-9.152" type="line"/>
			<point x="1355.696" y="-9.152" type="line"/>
			<point x="1626.552" y="963.296" type="line"/>
			<point x="1733.52" y="991" type="line"/>
			<point x="1733.52" y="1024" type="line"/>
			<point x="1421.712" y="1024" type="line"/>
			<point x="1421.712" y="991" type="line"/>
		</contour>
	</outline>
	<anchor name="top" x="930.232" y="1024"/>
	<anchor name="bottom" x="884.872" y="0"/>
</glyph>
<glyph name="x" format="2">
	<unicode hex="0078"/>
	<advance width="1195.464"/>
	<outline>
		<contour>
			<point x="1118.08" y="67" type="line"/>
			<point x="721.144" y="620.512" type="line"/>
			<point x="708.664" y="632.104" type="line"/>
			<point x="481.864" y="962.832" type="line"/>
			<point x="587.224" y="991" type="line"/>
			<point x="587.224" y="1024" type="line"/>
			<point x="-4.624" y="1024" type="line"/>
			<point x="-4.624" y="991" type="line"/>
			<point x="103.68" y="951" type="line"/>
			<point x="467.136" y="438.08" type="line"/>
			<point x="480.968" y="424.136" type="line"/>
			<point x="735.248" y="59.52" type="line"/>
			<point x="623.888" y="32.352" type="line"/>
			<point x="623.888" y="0" type="line"/>
			<point x="1224.736" y="0" type="line"/>
			<point x="1224.736" y="32.352" type="line"/>
		</contour>
		<contour>
			<point x="532.84" y="465.36" type="line"/>
			<point x="640.152" y="493.224" type="line"/>
			<point x="1033.168" y="959.76" type="line"/>
			<point x="1159.408" y="991" type="line"/>
			<point x="1159.408" y="1024" type="line"/>
			<point x="814.336" y="1024" type="line"/>
			<point x="814.336" y="991" type="line"/>
			<point x="942.152" y="962.352" type="line"/>
			<point x="629.168" y="568.496" type="line"/>
			<point x="522.208" y="540.632" type="line"/>
			<point x="122.152" y="64.24" type="line"/>
			<point x="-7.608" y="33" type="line"/>
			<point x="-7.608" y="0" type="line"/>
			<point x="338.52" y="0" type="line"/>
			<point x="338.52" y="33" type="line"/>
			<point x="214.224" y="61.648" type="line"/>
		</contour>
	</outline>
	<anchor name="top" x="632.32" y="1024"/>
	<anchor name="bottom" x="596.4" y="0"/>
</glyph>
<glyph name="y" format="2">
	<unicode hex="0079"/>
	<advance width="1193.592"/>
	<outline>
		<contour>
			<point x="802.64" y="286.016" type="line"/>
			<point x="465.208" y="959.536" type="line"/>
			<point x="584.288" y="991" type="line"/>
			<point x="584.288" y="1024" type="line"/>
			<point x="-30.384" y="1024" type="line"/>
			<point x="-30.384" y="992.944" type="line"/>
			<point x="75.584" y="951.056" type="line"/>
			<point x="635.488" y="-94.688" type="line"/>
		</contour>
		<contour>
			<point x="307.448" y="-458.52" type="curve" smooth="yes"/>
			<point x="466.776" y="-458.52"/>
			<point x="572.2" y="-366.376"/>
			<point x="690.656" y="-69.464" type="curve" smooth="yes"/>
			<point x="1099.176" y="963.296" type="line"/>
			<point x="1206.144" y="991" type="line"/>
			<point x="1206.144" y="1024" type="line"/>
			<point x="897.928" y="1024" type="line"/>
			<point x="897.928" y="991" type="line"/>
			<point x="1018.416" y="964.24" type="line"/>
			<point x="751.456" y="233.856" type="line"/>
			<point x="646.6" y="-11.408" type="line"/>
			<point x="597.648" y="-115.04" type="line" smooth="yes"/>
			<point x="551.552" y="-208.848"/>
			<point x="493.072" y="-234.96"/>
			<point x="378.8" y="-234.96" type="curve" smooth="yes"/>
			<point x="287.488" y="-234.96"/>
			<point x="223.288" y="-191.496"/>
			<point x="208.896" y="-191.496" type="curve" smooth="yes"/>
			<point x="179.248" y="-191.496"/>
			<point x="138.064" y="-235.344"/>
			<point x="138.064" y="-302.712" type="curve" smooth="yes"/>
			<point x="138.064" y="-404.152"/>
			<point x="209.488" y="-458.52"/>
		</contour>
	</outline>
	<anchor name="top" x="640.84" y="1024"/>
	<anchor name="bottom" x="870.192" y="-104.656"/>
</glyph>
<glyph name="z" format="2">
	<unicode hex="007A"/>
	<advance width="1055.104"/>
	<outline>
		<contour>
			<point x="51.744" y="0" type="line"/>
			<point x="935.288" y="0" type="line"/>
			<point x="1042.6" y="414.048" type="line"/>
			<point x="1003.416" y="414.048" type="line"/>
			<point x="774.336" y="21.704" type="line"/>
			<point x="884.752" y="69.408" type="line"/>
			<point x="212.352" y="59.552" type="line"/>
			<point x="387.952" y="4.872" type="line"/>
			<point x="980.104" y="988.504" type="line"/>
			<point x="980.104" y="1024" type="line"/>
			<point x="219.312" y="1024" type="line"/>
			<point x="125.336" y="1100.48" type="line"/>
			<point x="110.928" y="1100.48" type="line"/>
			<point x="41.856" y="663.928" type="line"/>
			<point x="79.688" y="663.928" type="line"/>
			<point x="240.328" y="992.056" type="line"/>
			<point x="118.768" y="956.352" type="line"/>
			<point x="768.024" y="963.04" type="line"/>
			<point x="633.232" y="1002.688" type="line"/>
			<point x="51.744" y="35.2" type="line"/>
		</contour>
	</outline>
	<anchor name="top" x="558.56" y="1024"/>
	<anchor name="bottom" x="532.08" y="0"/>
</glyph>
<glyph name="braceleft" format="2">
	<unicode hex="007B"/>
	<advance width="594.368"/>
	<outline>
		<contour>
			<point x="37.224" y="612.312" type="line"/>
			<point x="93.136" y="606.664" type="line" smooth="yes"/>
			<point x="202.264" y="593.48"/>
			<point x="228.136" y="557.92"/>
			<point x="228.136" y="482.752" type="curve" smooth="yes"/>
			<point x="228.136" y="337.416"/>
			<point x="142.768" y="190.328"/>
			<point x="142.768" y="70.272" type="curve" smooth="yes"/>
			<point x="142.768" y="-78.616"/>
			<point x="250.208" y="-204.264"/>
			<point x="457.888" y="-222.32" type="curve" smooth="yes"/>
			<point x="552.2" y="-230.32" type="line"/>
			<point x="558.848" y="-198.432" type="line"/>
			<point x="501.44" y="-189.432" type="line" smooth="yes"/>
			<point x="391.328" y="-172.784"/>
			<point x="354.16" y="-89.192"/>
			<point x="354.16" y="18.032" type="curve" smooth="yes"/>
			<point x="354.16" y="131.736"/>
			<point x="398.216" y="255.792"/>
			<point x="398.216" y="402.496" type="curve" smooth="yes"/>
			<point x="398.216" y="521.496"/>
			<point x="316.664" y="612.072"/>
			<point x="173.424" y="637.312" type="curve"/>
			<point x="173.424" y="623.2" type="line"/>
			<point x="316.664" y="648.088"/>
			<point x="398.216" y="739.016"/>
			<point x="398.216" y="858.664" type="curve" smooth="yes"/>
			<point x="398.216" y="1004.72"/>
			<point x="354.16" y="1128.776"/>
			<point x="354.16" y="1242.48" type="curve" smooth="yes"/>
			<point x="354.16" y="1349.352"/>
			<point x="391.328" y="1432.944"/>
			<point x="501.44" y="1449.944" type="curve" smooth="yes"/>
			<point x="558.848" y="1458.944" type="line"/>
			<point x="552.2" y="1490.48" type="line"/>
			<point x="457.888" y="1482.48" type="line" smooth="yes"/>
			<point x="250.208" y="1465.128"/>
			<point x="142.768" y="1338.776"/>
			<point x="142.768" y="1189.888" type="curve" smooth="yes"/>
			<point x="142.768" y="1070.184"/>
			<point x="228.136" y="923.744"/>
			<point x="228.136" y="777.408" type="curve" smooth="yes"/>
			<point x="228.136" y="702.24"/>
			<point x="202.264" y="667.032"/>
			<point x="93.136" y="654.496" type="curve" smooth="yes"/>
			<point x="37.224" y="648.2" type="line"/>
		</contour>
	</outline>
</glyph>
<glyph name="bar" format="2">
	<unicode hex="007C"/>
	<advance width="415.12"/>
	<outline>
		<contour>
			<point x="166.376" y="-465" type="line"/>
			<point x="248.744" y="-465" type="line"/>
			<point x="248.744" y="1535" type="line"/>
			<point x="166.376" y="1535" type="line"/>
		</contour>
	</outline>
</glyph>
<glyph name="braceright" format="2">
  <advance width="595"/>
  <unicode hex="007D"/>
  <outline>
    <contour>
      <point x="557.792" y="649.2" type="line"/>
      <point x="501.88" y="654.8480000000001" type="line" smooth="yes"/>
      <point x="392.75199999999995" y="667.384"/>
      <point x="366.88000000000005" y="703.5920000000001"/>
      <point x="366.88000000000005" y="778.112" type="curve" smooth="yes"/>
      <point x="366.88000000000005" y="924.096"/>
      <point x="452.248" y="1070.5359999999998"/>
      <point x="452.248" y="1190.5919999999999" type="curve" smooth="yes"/>
      <point x="452.248" y="1339.48"/>
      <point x="344.808" y="1465.128"/>
      <point x="137.128" y="1483.184" type="curve" smooth="yes"/>
      <point x="42.816" y="1491.184" type="line"/>
      <point x="36.168" y="1459.296" type="line"/>
      <point x="93.57600000000001" y="1450.296" type="line" smooth="yes"/>
      <point x="203.68800000000002" y="1433.6480000000001"/>
      <point x="240.856" y="1350.056"/>
      <point x="240.856" y="1242.832" type="curve" smooth="yes"/>
      <point x="240.856" y="1129.1280000000002"/>
      <point x="196.8" y="1005.72"/>
      <point x="196.8" y="859.016" type="curve" smooth="yes"/>
      <point x="196.8" y="740.016"/>
      <point x="278.35200000000003" y="649.4399999999999"/>
      <point x="421.592" y="623.552" type="curve"/>
      <point x="421.592" y="638.312" type="line"/>
      <point x="278.35200000000003" y="612.776"/>
      <point x="196.8" y="521.8480000000001"/>
      <point x="196.8" y="402.848" type="curve" smooth="yes"/>
      <point x="196.8" y="256.144"/>
      <point x="240.856" y="132.736"/>
      <point x="240.856" y="19.032" type="curve" smooth="yes"/>
      <point x="240.856" y="-87.84"/>
      <point x="203.68800000000002" y="-171.432"/>
      <point x="93.57600000000001" y="-188.43200000000002" type="curve" smooth="yes"/>
      <point x="36.168" y="-197.43200000000002" type="line"/>
      <point x="42.816" y="-228.968" type="line"/>
      <point x="137.128" y="-220.96800000000002" type="line" smooth="yes"/>
      <point x="344.808" y="-203.61599999999999"/>
      <point x="452.248" y="-77.264"/>
      <point x="452.248" y="71.624" type="curve" smooth="yes"/>
      <point x="452.248" y="191.328"/>
      <point x="366.88000000000005" y="337.76800000000003"/>
      <point x="366.88000000000005" y="484.10400000000004" type="curve" smooth="yes"/>
      <point x="366.88000000000005" y="558.624"/>
      <point x="392.75199999999995" y="594.48"/>
      <point x="501.88" y="607.016" type="curve" smooth="yes"/>
      <point x="557.792" y="612.664" type="line"/>
    </contour>
  </outline>
</glyph>
<glyph name="asciitilde" format="2">
	<unicode hex="007E"/>
	<advance width="1150"/>
	<outline>
		<contour>
			<point x="162" y="396" type="curve"/>
			<point x="251.384" y="396" type="line"/>
			<point x="259.848" y="500.336"/>
			<point x="295.312" y="550.504"/>
			<point x="391.888" y="550.504" type="curve" smooth="yes"/>
			<point x="525.872" y="550.504"/>
			<point x="584" y="388"/>
			<point x="761" y="388" type="curve" smooth="yes"/>
			<point x="877.888" y="388"/>
			<point x="983.888" y="440"/>
			<point x="988" y="628" type="curve"/>
			<point x="898.616" y="628" type="line"/>
			<point x="890.152" y="523.664"/>
			<point x="854.688" y="473.496"/>
			<point x="758.112" y="473.496" type="curve" smooth="yes"/>
			<point x="624.128" y="473.496"/>
			<point x="566" y="636"/>
			<point x="389" y="636" type="curve" smooth="yes"/>
			<point x="272.112" y="636"/>
			<point x="166.112" y="584"/>
		</contour>
	</outline>
</glyph>
<glyph name="exclamdown" format="2">
  <advance width="573.1999999999999"/>
  <unicode hex="00A1"/>
  <outline>
    <contour>
      <point x="71.78399999999999" y="-256.496" type="line" smooth="yes"/>
      <point x="71.78399999999999" y="-368.32"/>
      <point x="179.01600000000002" y="-431.184"/>
      <point x="286.24800000000005" y="-431.184" type="curve" smooth="yes"/>
      <point x="393.48" y="-431.184"/>
      <point x="501.064" y="-368.32"/>
      <point x="501.064" y="-256.496" type="curve" smooth="yes"/>
      <point x="501.064" y="-234.38400000000001" type="line" smooth="yes"/>
      <point x="501.06399999999996" y="-146.81599999999997"/>
      <point x="378.704" y="69.136"/>
      <point x="306.84000000000003" y="503.976" type="curve"/>
      <point x="266.712" y="503.976" type="line"/>
      <point x="194.848" y="69.136"/>
      <point x="71.78399999999999" y="-147.16799999999998"/>
      <point x="71.784" y="-234.38400000000001" type="curve" smooth="yes"/>
    </contour>
    <contour>
      <point x="286.248" y="677.52" type="curve" smooth="yes"/>
      <point x="397.408" y="677.52"/>
      <point x="475.848" y="757.9599999999999"/>
      <point x="475.848" y="862.528" type="curve" smooth="yes"/>
      <point x="475.848" y="967.096"/>
      <point x="397.408" y="1047.5359999999998"/>
      <point x="286.248" y="1047.5359999999998" type="curve" smooth="yes"/>
      <point x="175.088" y="1047.5359999999998"/>
      <point x="96.648" y="967.096"/>
      <point x="96.648" y="862.528" type="curve" smooth="yes"/>
      <point x="96.648" y="757.9599999999999"/>
      <point x="175.088" y="677.52"/>
    </contour>
  </outline>
</glyph>
<glyph name="currency" format="2">
	<unicode hex="00A4"/>
	<advance width="922.784"/>
	<outline>
		<contour>
			<point x="166.52" y="867.48" type="line"/>
			<point x="105.912" y="806.872" type="line"/>
			<point x="223.136" y="689.648" type="line"/>
			<point x="283.744" y="750.256" type="line"/>
		</contour>
		<contour>
			<point x="105.912" y="217.128" type="line"/>
			<point x="166.52" y="156.52" type="line"/>
			<point x="281.152" y="271.152" type="line"/>
			<point x="220.544" y="331.76" type="line"/>
		</contour>
		<contour>
			<point x="461.392" y="815.128" type="curve" smooth="yes"/>
			<point x="284.504" y="815.128"/>
			<point x="157.264" y="688.888"/>
			<point x="157.264" y="512" type="curve" smooth="yes"/>
			<point x="157.264" y="335.112"/>
			<point x="284.504" y="208.872"/>
			<point x="461.392" y="208.872" type="curve" smooth="yes"/>
			<point x="638.28" y="208.872"/>
			<point x="765.52" y="335.112"/>
			<point x="765.52" y="512" type="curve" smooth="yes"/>
			<point x="765.52" y="688.888"/>
			<point x="638.28" y="815.128"/>
		</contour>
		<contour>
			<point x="461.392" y="289.72" type="curve" smooth="yes"/>
			<point x="334.224" y="289.72"/>
			<point x="242.76" y="378.832"/>
			<point x="242.76" y="512" type="curve" smooth="yes"/>
			<point x="242.76" y="645.168"/>
			<point x="334.224" y="734.28"/>
			<point x="461.392" y="734.28" type="curve" smooth="yes"/>
			<point x="588.56" y="734.28"/>
			<point x="680.024" y="645.168"/>
			<point x="680.024" y="512" type="curve" smooth="yes"/>
			<point x="680.024" y="378.832"/>
			<point x="588.56" y="289.72"/>
		</contour>
		<contour>
			<point x="816.872" y="806.872" type="line"/>
			<point x="756.264" y="867.48" type="line"/>
			<point x="639.04" y="750.256" type="line"/>
			<point x="699.648" y="689.648" type="line"/>
		</contour>
		<contour>
			<point x="816.872" y="217.128" type="line"/>
			<point x="702.24" y="331.76" type="line"/>
			<point x="641.632" y="271.152" type="line"/>
			<point x="756.264" y="156.52" type="line"/>
		</contour>
	</outline>
</glyph>
<glyph name="brokenbar" format="2">
	<unicode hex="00A6"/>
	<advance width="415.12"/>
	<outline>
		<contour>
			<point x="248.744" y="725" type="line"/>
			<point x="248.744" y="1535" type="line"/>
			<point x="166.376" y="1535" type="line"/>
			<point x="166.376" y="725" type="line"/>
		</contour>
		<contour>
			<point x="166.376" y="-465" type="line"/>
			<point x="248.744" y="-465" type="line"/>
			<point x="248.744" y="345" type="line"/>
			<point x="166.376" y="345" type="line"/>
		</contour>
	</outline>
</glyph>
<glyph name="section" format="2">
	<unicode hex="00A7"/>
	<advance width="1261.696"/>
	<outline>
		<contour>
			<point x="539.784" y="-218" type="curve" smooth="yes"/>
			<point x="890.456" y="-218"/>
			<point x="1056.4" y="-55.744"/>
			<point x="1056.4" y="156.512" type="curve" smooth="yes"/>
			<point x="1056.4" y="552.976"/>
			<point x="307.168" y="448.248"/>
			<point x="307.168" y="716.72" type="curve" smooth="yes"/>
			<point x="307.168" y="790.576"/>
			<point x="348.264" y="847.784"/>
			<point x="409.384" y="872.952" type="curve"/>
			<point x="383.144" y="894.488" type="line"/>
			<point x="188.664" y="839.488"/>
			<point x="83.704" y="724.008"/>
			<point x="83.704" y="565.752" type="curve" smooth="yes"/>
			<point x="83.704" y="128.552"/>
			<point x="810.624" y="256.424"/>
			<point x="810.624" y="4.136" type="curve" smooth="yes"/>
			<point x="810.624" y="-82.872"/>
			<point x="748.024" y="-149.968"/>
			<point x="612.224" y="-149.968" type="curve" smooth="yes"/>
			<point x="451.144" y="-149.968"/>
			<point x="341.248" y="67.952"/>
			<point x="302.488" y="67.952" type="curve" smooth="yes"/>
			<point x="227.768" y="67.952"/>
			<point x="183.048" y="21.768"/>
			<point x="183.048" y="-48.192" type="curve" smooth="yes"/>
			<point x="183.048" y="-147.672"/>
			<point x="290.4" y="-218"/>
		</contour>
		<contour>
			<point x="953.824" y="536.192" type="curve" smooth="yes"/>
			<point x="953.824" y="461.28"/>
			<point x="909.912" y="401.608"/>
			<point x="847.032" y="379.256" type="curve"/>
			<point x="873.272" y="356.664" type="line"/>
			<point x="1066.696" y="407.44"/>
			<point x="1176.584" y="528.904"/>
			<point x="1176.584" y="688.216" type="curve" smooth="yes"/>
			<point x="1176.584" y="1130.656"/>
			<point x="451.776" y="989.896"/>
			<point x="451.776" y="1243.848" type="curve" smooth="yes"/>
			<point x="451.776" y="1323.112"/>
			<point x="504.872" y="1388.8"/>
			<point x="641.728" y="1388.8" type="curve" smooth="yes"/>
			<point x="803.512" y="1388.8"/>
			<point x="913.056" y="1170.176"/>
			<point x="950.76" y="1170.176" type="curve" smooth="yes"/>
			<point x="1023.016" y="1170.176"/>
			<point x="1068.088" y="1215.304"/>
			<point x="1068.088" y="1284.208" type="curve" smooth="yes"/>
			<point x="1068.088" y="1380.168"/>
			<point x="964.256" y="1456.48"/>
			<point x="714.52" y="1456.48" type="curve" smooth="yes"/>
			<point x="366.664" y="1456.48"/>
			<point x="205.296" y="1298.8"/>
			<point x="205.296" y="1090.768" type="curve" smooth="yes"/>
			<point x="205.296" y="702.584"/>
			<point x="953.824" y="803.016"/>
		</contour>
	</outline>
</glyph>
<glyph name="copyright" format="2">
	<unicode hex="00A9"/>
	<advance width="1709.336"/>
	<outline>
		<contour>
			<point x="853.168" y="1456.48" type="curve" smooth="yes"/>
			<point x="416.576" y="1456.48"/>
			<point x="104.28" y="1149.118227027"/>
			<point x="104.28" y="714" type="curve" smooth="yes"/>
			<point x="104.28" y="279.882102981"/>
			<point x="416.576" y="-26.48"/>
			<point x="853.168" y="-26.48" type="curve" smooth="yes"/>
			<point x="1291.112" y="-26.48"/>
			<point x="1605.056" y="279.882102981"/>
			<point x="1605.056" y="714" type="curve" smooth="yes"/>
			<point x="1605.056" y="1149.118227027"/>
			<point x="1291.112" y="1456.48"/>
		</contour>
		<contour>
			<point x="853.168" y="1396.464" type="curve" smooth="yes"/>
			<point x="1244.28" y="1396.464"/>
			<point x="1530.744" y="1115.284723589"/>
			<point x="1530.744" y="714" type="curve" smooth="yes"/>
			<point x="1530.744" y="313.7144347826"/>
			<point x="1244.28" y="32.536"/>
			<point x="853.168" y="32.536" type="curve" smooth="yes"/>
			<point x="463.056" y="32.536"/>
			<point x="177.944" y="313.7144347826"/>
			<point x="177.944" y="714" type="curve" smooth="yes"/>
			<point x="177.944" y="1115.284723589"/>
			<point x="463.056" y="1396.464"/>
		</contour>
		<contour>
			<point x="984.44" y="322.608" type="curve"/>
			<point x="838.08" y="322.608"/>
			<point x="721.648" y="491.088"/>
			<point x="721.648" y="768.424" type="curve" smooth="yes"/>
			<point x="721.648" y="1017.48"/>
			<point x="806.432" y="1111.984"/>
			<point x="923.2" y="1111.984" type="curve" smooth="yes"/>
			<point x="982.944" y="1111.984"/>
			<point x="1038.28" y="1087.632"/>
			<point x="1089.728" y="1044.112" type="curve"/>
			<point x="1032.08" y="1101.168" type="line"/>
			<point x="1203.296" y="849.52" type="line"/>
			<point x="1224.24" y="853.52" type="line"/>
			<point x="1175.72" y="1200.128" type="line"/>
			<point x="1166.72" y="1200.128" type="line"/>
			<point x="1058.024" y="1129.888" type="line"/>
			<point x="1131.336" y="1141.072" type="line"/>
			<point x="1058.688" y="1160.24"/>
			<point x="1008.352" y="1171.944"/>
			<point x="936.944" y="1171.944" type="curve" smooth="yes"/>
			<point x="623.152" y="1171.944"/>
			<point x="423.208" y="991.24"/>
			<point x="423.208" y="725.24" type="curve" smooth="yes"/>
			<point x="423.208" y="423.76"/>
			<point x="623.616" y="266.056"/>
			<point x="932.704" y="266.056" type="curve" smooth="yes"/>
			<point x="1035.184" y="266.056"/>
			<point x="1106.112" y="277.168"/>
			<point x="1189.184" y="299.576" type="curve"/>
			<point x="1251.368" y="542.608" type="line"/>
			<point x="1228.128" y="542.608" type="line"/>
			<point x="1060.208" y="319.536" type="line"/>
			<point x="1120.152" y="366.424" type="line"/>
			<point x="1077.576" y="337.016"/>
			<point x="1033.776" y="322.608"/>
		</contour>
	</outline>
</glyph>
<glyph name="ordfeminine" format="2">
	<unicode hex="00AA"/>
	<advance width="934.4"/>
	<outline>
		<contour>
			<point x="121.392" y="563.52" type="line"/>
			<point x="823.008" y="563.52" type="line"/>
			<point x="823.008" y="635.48" type="line"/>
			<point x="121.392" y="635.48" type="line"/>
		</contour>
		<contour>
			<point x="509.896" y="1163.856" type="curve"/>
			<point x="514.488" y="1204.928" type="line"/>
			<point x="162.616" y="1110.056"/>
			<point x="117.672" y="1054.112"/>
			<point x="117.672" y="952.464" type="curve" smooth="yes"/>
			<point x="117.672" y="851.056"/>
			<point x="185.024" y="785.168"/>
			<point x="312.504" y="785.168" type="curve" smooth="yes"/>
			<point x="412.8" y="785.168"/>
			<point x="474.1202238468" y="839.3477485385"/>
			<point x="504.784" y="969.704" type="curve"/>
			<point x="491.488" y="976.944" type="line"/>
			<point x="493.1617544578" y="834.1267870509"/>
			<point x="536.208" y="783.52"/>
			<point x="646.648" y="783.52" type="curve" smooth="yes"/>
			<point x="728.384" y="783.52"/>
			<point x="782.752" y="804.816"/>
			<point x="848.304" y="853.536" type="curve"/>
			<point x="848.304" y="887.96" type="line"/>
			<point x="826.136" y="878.496"/>
			<point x="808.84" y="875.496"/>
			<point x="788.728" y="875.496" type="curve" smooth="yes"/>
			<point x="761.376" y="875.496"/>
			<point x="744.912" y="888.2"/>
			<point x="744.912" y="921.888" type="curve" smooth="yes"/>
			<point x="744.912" y="1246.168" type="line" smooth="yes"/>
			<point x="744.912" y="1375.592"/>
			<point x="676.6" y="1456.48"/>
			<point x="482.808" y="1456.48" type="curve" smooth="yes"/>
			<point x="304.984" y="1456.48"/>
			<point x="123.912" y="1359.576"/>
			<point x="123.912" y="1285.8" type="curve" smooth="yes"/>
			<point x="123.912" y="1262.912"/>
			<point x="143.448" y="1245.968"/>
			<point x="193.408" y="1245.968" type="curve" smooth="yes"/>
			<point x="230.128" y="1245.968"/>
			<point x="261.608" y="1259.856"/>
			<point x="276.2" y="1278.744" type="curve" smooth="yes"/>
			<point x="291.792" y="1297.984"/>
			<point x="299.44" y="1325.28"/>
			<point x="312.68" y="1421.608" type="curve"/>
			<point x="283.808" y="1374.296" type="line"/>
			<point x="314.608" y="1381.872"/>
			<point x="347.536" y="1385.632"/>
			<point x="390.408" y="1385.632" type="curve" smooth="yes"/>
			<point x="459.672" y="1385.632"/>
			<point x="489.84" y="1343.056"/>
			<point x="489.84" y="1277.904" type="curve" smooth="yes"/>
			<point x="489.84" y="1001.944" type="line" smooth="yes"/>
			<point x="489.84" y="940.384"/>
			<point x="461.408" y="915.528"/>
			<point x="424.272" y="915.528" type="curve" smooth="yes"/>
			<point x="384.36" y="915.528"/>
			<point x="360.616" y="943.450989011"/>
			<point x="360.616" y="1007.44" type="curve" smooth="yes"/>
			<point x="360.616" y="1078.0043835616"/>
			<point x="376.6029523138" y="1117.6551071177"/>
		</contour>
	</outline>
</glyph>
<glyph name="guillemotleft" format="2">
	<unicode hex="00AB"/>
	<advance width="932.328"/>
	<outline>
		<contour>
			<point x="245.584" y="619.68" type="line"/>
			<point x="245.584" y="424.32" type="line"/>
			<point x="483.888" y="954.848" type="line"/>
			<point x="463.296" y="969.792" type="line"/>
			<point x="34.376" y="530.944" type="line"/>
			<point x="34.376" y="513.056" type="line"/>
			<point x="463.296" y="74.208" type="line"/>
			<point x="483.888" y="89.152" type="line"/>
		</contour>
		<contour>
			<point x="627.632" y="619.68" type="line"/>
			<point x="627.632" y="424.32" type="line"/>
			<point x="865.584" y="954.848" type="line"/>
			<point x="845.344" y="969.792" type="line"/>
			<point x="416.072" y="530.944" type="line"/>
			<point x="416.072" y="513.056" type="line"/>
			<point x="845.344" y="74.208" type="line"/>
			<point x="865.584" y="89.152" type="line"/>
		</contour>
	</outline>
</glyph>
<glyph name="logicalnot" format="2">
  <advance width="1150"/>
  <unicode hex="00AC"/>
  <outline>
    <contour>
      <point x="158.464" y="751.072" type="line"/>
      <point x="158.464" y="664.632" type="line"/>
      <point x="980.4639999999999" y="664.632" type="line"/>
      <point x="980.4639999999999" y="751.072" type="line"/>
    </contour>
    <contour>
      <point x="980.4639999999999" y="704.0" type="line"/>
      <point x="894.024" y="704.0" type="line"/>
      <point x="894.024" y="268.0" type="line"/>
      <point x="980.4639999999999" y="268.0" type="line"/>
    </contour>
  </outline>
</glyph>
<glyph name="registered" format="2">
  <advance width="1065"/>
  <unicode hex="00AE"/>
  <outline>
    <contour>
      <point x="530.2800000000001" y="1456.48" type="curve" smooth="yes"/>
      <point x="280.28" y="1456.48"/>
      <point x="101.28" y="1279.48"/>
      <point x="101.28" y="1030.48" type="curve" smooth="yes"/>
      <point x="101.28" y="782.48"/>
      <point x="280.28" y="602.48"/>
      <point x="530.2800000000001" y="602.48" type="curve" smooth="yes"/>
      <point x="782.2800000000001" y="602.48"/>
      <point x="964.2800000000001" y="782.48"/>
      <point x="964.2800000000001" y="1030.48" type="curve" smooth="yes"/>
      <point x="964.2800000000001" y="1279.48"/>
      <point x="782.2800000000001" y="1456.48"/>
    </contour>
    <contour>
      <point x="530.2800000000001" y="1404.648" type="curve" smooth="yes"/>
      <point x="748.04" y="1404.648"/>
      <point x="905.448" y="1252.24"/>
      <point x="905.448" y="1030.48" type="curve" smooth="yes"/>
      <point x="905.448" y="810.72"/>
      <point x="748.04" y="655.3119999999999"/>
      <point x="530.2800000000001" y="655.3119999999999" type="curve" smooth="yes"/>
      <point x="314.52" y="655.3119999999999"/>
      <point x="160.112" y="810.72"/>
      <point x="160.112" y="1030.48" type="curve" smooth="yes"/>
      <point x="160.112" y="1252.24"/>
      <point x="314.52" y="1404.648"/>
    </contour>
    <contour>
      <point x="452.35200000000003" y="1060.424" type="line"/>
      <point x="452.35200000000003" y="1024.592" type="line"/>
      <point x="531.448" y="1024.592" type="line" smooth="yes"/>
      <point x="569.336" y="1024.592"/>
      <point x="582.0400000000001" y="1012.0"/>
      <point x="588.912" y="981.424" type="curve" smooth="yes"/>
      <point x="602.952" y="908.4960000000001" type="line" smooth="yes"/>
      <point x="617.232" y="825.48"/>
      <point x="642.8399999999999" y="810.944"/>
      <point x="776.112" y="824.128" type="curve"/>
      <point x="776.112" y="851.608" type="line"/>
      <point x="751.0" y="851.608"/>
      <point x="736.76" y="857.904"/>
      <point x="728.944" y="893.96" type="curve" smooth="yes"/>
      <point x="713.552" y="962.0" type="line" smooth="yes"/>
      <point x="702.384" y="1019.9440000000001"/>
      <point x="670.904" y="1043.832"/>
      <point x="605.072" y="1047.128" type="curve"/>
      <point x="605.072" y="1046.1280000000002" type="line"/>
      <point x="689.256" y="1048.1840000000002"/>
      <point x="733.552" y="1094.1280000000002"/>
      <point x="733.552" y="1150.7759999999998" type="curve" smooth="yes"/>
      <point x="733.552" y="1207.1280000000002"/>
      <point x="696.1999999999999" y="1250.48"/>
      <point x="584.96" y="1250.48" type="curve" smooth="yes"/>
      <point x="452.352" y="1250.48" type="line"/>
      <point x="452.352" y="1214.0" type="line"/>
      <point x="537.904" y="1214.0" type="line" smooth="yes"/>
      <point x="590.632" y="1214.0"/>
      <point x="614.8" y="1192.24"/>
      <point x="614.8" y="1141.536" type="curve" smooth="yes"/>
      <point x="614.8" y="1088.424"/>
      <point x="589.576" y="1060.424"/>
      <point x="538.76" y="1060.424" type="curve" smooth="yes"/>
    </contour>
    <contour>
      <point x="377.08" y="1216.2959999999998" type="line"/>
      <point x="377.08" y="860.312" type="line"/>
      <point x="321.264" y="844.0160000000001" type="line"/>
      <point x="321.264" y="824.48" type="line"/>
      <point x="555.24" y="824.48" type="line"/>
      <point x="555.24" y="844.0160000000001" type="line"/>
      <point x="500.072" y="860.312" type="line"/>
      <point x="500.072" y="1250.48" type="line"/>
      <point x="321.264" y="1250.48" type="line"/>
      <point x="321.264" y="1230.944" type="line"/>
    </contour>
  </outline>
</glyph>
<glyph name="degree" format="2">
  <advance width="725"/>
  <unicode hex="00B0"/>
  <outline>
    <contour>
      <point x="362.33599999999996" y="1447.888" type="curve" smooth="yes"/>
      <point x="187.744" y="1447.888"/>
      <point x="62.448" y="1324.944"/>
      <point x="62.448" y="1150.0" type="curve" smooth="yes"/>
      <point x="62.448" y="975.0559999999999"/>
      <point x="187.744" y="852.112"/>
      <point x="362.33599999999996" y="852.112" type="curve" smooth="yes"/>
      <point x="537.28" y="852.112"/>
      <point x="662.576" y="975.0559999999999"/>
      <point x="662.576" y="1150.0" type="curve" smooth="yes"/>
      <point x="662.576" y="1324.944"/>
      <point x="537.28" y="1447.888"/>
    </contour>
    <contour>
      <point x="362.33599999999996" y="929.256" type="curve" smooth="yes"/>
      <point x="236.112" y="929.256"/>
      <point x="144.94400000000002" y="1017.424"/>
      <point x="144.94400000000002" y="1150.0" type="curve" smooth="yes"/>
      <point x="144.94400000000002" y="1282.576"/>
      <point x="236.112" y="1370.7440000000001"/>
      <point x="362.33599999999996" y="1370.7440000000001" type="curve" smooth="yes"/>
      <point x="488.912" y="1370.7440000000001"/>
      <point x="579.728" y="1282.576"/>
      <point x="579.728" y="1150.0" type="curve" smooth="yes"/>
      <point x="579.728" y="1017.424"/>
      <point x="488.912" y="929.256"/>
    </contour>
  </outline>
</glyph>
<glyph name="plusminus" format="2">
	<unicode hex="00B1"/>
	<advance width="1150"/>
	<outline>
		<contour>
			<point x="532.28" y="1024" type="line"/>
			<point x="532.28" y="202" type="line"/>
			<point x="617.72" y="202" type="line"/>
			<point x="617.72" y="1024" type="line"/>
		</contour>
		<contour>
			<point x="164" y="655.72" type="line"/>
			<point x="164" y="570.28" type="line"/>
			<point x="986" y="570.28" type="line"/>
			<point x="986" y="655.72" type="line"/>
		</contour>
		<contour>
			<point x="164" y="85.44" type="line"/>
			<point x="164" y="0" type="line"/>
			<point x="986" y="0" type="line"/>
			<point x="986" y="85.44" type="line"/>
		</contour>
	</outline>
</glyph>
<glyph name="uni00B2" format="2">
	<unicode hex="00B2"/>
	<advance width="741.88"/>
	<outline>
		<contour>
			<point x="453.336" y="752.456" type="line"/>
			<point x="652.968" y="863.152" type="line"/>
			<point x="258.024" y="863.152" type="line"/>
			<point x="252.856" y="834.688" type="line"/>
			<point x="352.48" y="909.928" type="line" smooth="yes"/>
			<point x="562.272" y="1044.144"/>
			<point x="642.152" y="1121.584"/>
			<point x="642.152" y="1235.616" type="curve" smooth="yes"/>
			<point x="642.152" y="1360.944"/>
			<point x="540.712" y="1447.888"/>
			<point x="383.4" y="1447.888" type="curve" smooth="yes"/>
			<point x="197.24" y="1447.888"/>
			<point x="73.632" y="1325.8"/>
			<point x="27.448" y="1133.896" type="curve"/>
			<point x="64.872" y="1126.952" type="line"/>
			<point x="101.872" y="1236.64"/>
			<point x="170.632" y="1278.992"/>
			<point x="248.152" y="1278.992" type="curve" smooth="yes"/>
			<point x="331.672" y="1278.992"/>
			<point x="382.488" y="1228.936"/>
			<point x="382.488" y="1146.12" type="curve" smooth="yes"/>
			<point x="382.488" y="1065.936"/>
			<point x="337.008" y="974.752"/>
			<point x="195.992" y="827.808" type="curve" smooth="yes"/>
			<point x="56.336" y="676.592" type="line"/>
			<point x="56.336" y="662" type="line"/>
			<point x="543.976" y="662" type="line"/>
			<point x="610.584" y="626.168" type="line"/>
			<point x="626.768" y="626.168" type="line"/>
			<point x="705.84" y="969.432" type="line"/>
			<point x="689.6" y="969.432" type="line"/>
		</contour>
	</outline>
</glyph>
<glyph name="uni00B3" format="2">
	<unicode hex="00B3"/>
	<advance width="689.528"/>
	<outline>
		<contour>
			<point x="230.312" y="644.112" type="curve" smooth="yes"/>
			<point x="474.288" y="644.112"/>
			<point x="643.08" y="754.576"/>
			<point x="643.08" y="922.352" type="curve" smooth="yes"/>
			<point x="643.08" y="1036.576"/>
			<point x="564.56" y="1121.408"/>
			<point x="376.288" y="1105" type="curve"/>
			<point x="372.696" y="1098.888" type="line"/>
			<point x="521.488" y="1126.872"/>
			<point x="574.896" y="1204.296"/>
			<point x="574.896" y="1282.352" type="curve" smooth="yes"/>
			<point x="574.896" y="1374.352"/>
			<point x="513.656" y="1447.888"/>
			<point x="370.344" y="1447.888" type="curve" smooth="yes"/>
			<point x="196.888" y="1447.888"/>
			<point x="101.408" y="1351.576"/>
			<point x="59.28" y="1204.208" type="curve"/>
			<point x="99.648" y="1190.024" type="line"/>
			<point x="125.352" y="1261.768"/>
			<point x="175.576" y="1306.712"/>
			<point x="263.168" y="1306.712" type="curve" smooth="yes"/>
			<point x="326.152" y="1306.712"/>
			<point x="367.448" y="1272.544"/>
			<point x="367.448" y="1211.08" type="curve" smooth="yes"/>
			<point x="367.448" y="1148.504"/>
			<point x="321.984" y="1100.28"/>
			<point x="192.592" y="1062.944" type="curve"/>
			<point x="204.184" y="1014.984" type="line"/>
			<point x="233.704" y="1021.744" type="line" smooth="yes"/>
			<point x="368.112" y="1050.968"/>
			<point x="403.08" y="1008.464"/>
			<point x="403.08" y="896.112" type="curve" smooth="yes"/>
			<point x="403.08" y="754.448"/>
			<point x="351.632" y="697.128"/>
			<point x="276.016" y="697.128" type="curve" smooth="yes"/>
			<point x="203.2" y="697.128"/>
			<point x="127.352" y="824.104"/>
			<point x="104.056" y="824.104" type="curve" smooth="yes"/>
			<point x="63.336" y="824.104"/>
			<point x="33.504" y="789.68"/>
			<point x="33.504" y="750.2" type="curve" smooth="yes"/>
			<point x="33.504" y="694.184"/>
			<point x="76.04" y="644.112"/>
		</contour>
	</outline>
</glyph>
<glyph name="uni00B5" format="2">
  <advance width="1345"/>
  <unicode hex="00B5"/>
  <outline>
    <contour>
      <point x="169.84" y="1024.0" type="line"/>
      <point x="169.84" y="-458.592" type="line"/>
      <point x="179.83999999999997" y="-458.592" type="line"/>
      <point x="442.84000000000003" y="-435.464" type="line"/>
      <point x="223.15200000000002" y="198.24" type="line"/>
      <point x="211.264" y="181.392" type="line"/>
      <point x="225.04" y="42.296"/>
      <point x="327.79999999999995" y="-20.0"/>
      <point x="442.6" y="-20.0" type="curve" smooth="yes"/>
      <point x="582.04" y="-20.0"/>
      <point x="647.432" y="8.760000000000002"/>
      <point x="845.1199999999999" y="223.08" type="curve"/>
      <point x="839.4879999999999" y="247.67200000000003" type="line"/>
      <point x="780.08" y="216.44799999999998"/>
      <point x="720.6080000000001" y="197.24"/>
      <point x="659.024" y="197.24" type="curve" smooth="yes"/>
      <point x="563.1039999999999" y="197.24"/>
      <point x="518.432" y="237.376"/>
      <point x="518.432" y="337.68" type="curve" smooth="yes"/>
      <point x="518.432" y="1024.0" type="line"/>
    </contour>
    <contour>
      <point x="1143.0240000000001" y="195.072" type="curve" smooth="yes"/>
      <point x="1143.0240000000001" y="1024.0" type="line"/>
      <point x="794.432" y="1024.0" type="line"/>
      <point x="794.432" y="226.976" type="line" smooth="yes"/>
      <point x="794.432" y="51.63199999999999"/>
      <point x="854.76" y="-26.48"/>
      <point x="1010.6959999999999" y="-26.48" type="curve" smooth="yes"/>
      <point x="1125.6879999999999" y="-26.48"/>
      <point x="1206.352" y="3.1840000000000006"/>
      <point x="1309.888" y="99.44800000000001" type="curve"/>
      <point x="1309.888" y="149.12800000000001" type="line"/>
      <point x="1275.496" y="131.032"/>
      <point x="1243.16" y="122.864"/>
      <point x="1210.472" y="122.864" type="curve" smooth="yes"/>
      <point x="1167.952" y="122.864"/>
      <point x="1143.0240000000001" y="143.976"/>
    </contour>
  </outline>
</glyph>
<glyph name="paragraph" format="2">
	<unicode hex="00B6"/>
	<advance width="1216.96"/>
	<outline>
		<contour>
			<point x="711.72" y="1430" type="line"/>
			<point x="468.072" y="1430" type="line" smooth="yes"/>
			<point x="169.296" y="1430"/>
			<point x="51.464" y="1258.632"/>
			<point x="51.464" y="1059.096" type="curve" smooth="yes"/>
			<point x="51.464" y="853.616"/>
			<point x="173.888" y="700.024"/>
			<point x="467.72" y="700.024" type="curve" smooth="yes"/>
			<point x="711.72" y="700.024" type="line"/>
		</contour>
		<contour>
			<point x="732.904" y="-218" type="line"/>
			<point x="732.904" y="1358.392" type="line"/>
			<point x="914.608" y="1358.392" type="line"/>
			<point x="914.608" y="1430" type="line"/>
			<point x="653.944" y="1430" type="line"/>
			<point x="653.944" y="-218" type="line"/>
		</contour>
		<contour>
			<point x="971.328" y="-218" type="line"/>
			<point x="971.328" y="1359.744" type="line"/>
			<point x="1158.272" y="1398.928" type="line"/>
			<point x="1158.272" y="1430" type="line"/>
			<point x="892.368" y="1430" type="line"/>
			<point x="892.368" y="-218" type="line"/>
		</contour>
	</outline>
</glyph>
<glyph name="uni00B9" format="2">
	<unicode hex="00B9"/>
	<advance width="565.256"/>
	<outline>
		<contour>
			<point x="199.008" y="725.016" type="line"/>
			<point x="66.912" y="690.776" type="line"/>
			<point x="66.912" y="662" type="line"/>
			<point x="542.976" y="662" type="line"/>
			<point x="542.976" y="690.776" type="line"/>
			<point x="424.232" y="725.016" type="line"/>
			<point x="424.232" y="1447.888" type="line"/>
			<point x="392.456" y="1447.888" type="line"/>
			<point x="16.744" y="1263.688" type="line"/>
			<point x="25.688" y="1229.024" type="line"/>
			<point x="339.736" y="1292.136" type="line"/>
			<point x="199.008" y="1333.336" type="line"/>
		</contour>
	</outline>
</glyph>
<glyph name="ordmasculine" format="2">
	<unicode hex="00BA"/>
	<advance width="959.496"/>
	<outline>
		<contour>
			<point x="128.616" y="563.52" type="line"/>
			<point x="830.232" y="563.52" type="line"/>
			<point x="830.232" y="635.48" type="line"/>
			<point x="128.616" y="635.48" type="line"/>
		</contour>
		<contour>
			<point x="481.072" y="835.48" type="curve" smooth="yes"/>
			<point x="393.528" y="835.48"/>
			<point x="366.872" y="941.5994435456"/>
			<point x="366.872" y="1139.664" type="curve" smooth="yes"/>
			<point x="366.872" y="1323.8560373773"/>
			<point x="396.472" y="1403.872"/>
			<point x="477.776" y="1403.872" type="curve" smooth="yes"/>
			<point x="564.32" y="1403.872"/>
			<point x="591.976" y="1298.3869071312"/>
			<point x="591.976" y="1100.336" type="curve" smooth="yes"/>
			<point x="591.976" y="915.1554448754"/>
			<point x="561.376" y="835.48"/>
		</contour>
		<contour>
			<point x="470.184" y="783.52" type="curve" smooth="yes"/>
			<point x="690.328" y="783.52"/>
			<point x="854.344" y="919.5077522124"/>
			<point x="854.344" y="1124.352" type="curve" smooth="yes"/>
			<point x="854.344" y="1322.8480729483"/>
			<point x="709.64" y="1456.48"/>
			<point x="487.664" y="1456.48" type="curve" smooth="yes"/>
			<point x="266.224" y="1456.48"/>
			<point x="104.504" y="1319.4964011799"/>
			<point x="104.504" y="1115.648" type="curve" smooth="yes"/>
			<point x="104.504" y="917.1519270517"/>
			<point x="252.504" y="783.52"/>
		</contour>
	</outline>
</glyph>
<glyph name="guillemotright" format="2">
	<unicode hex="00BB"/>
	<advance width="1000.176"/>
	<outline>
		<contour>
			<point x="327.768" y="425.32" type="line"/>
			<point x="327.768" y="620.328" type="line"/>
			<point x="89.816" y="90.152" type="line"/>
			<point x="110.056" y="74.856" type="line"/>
			<point x="539.328" y="513.704" type="line"/>
			<point x="539.328" y="531.944" type="line"/>
			<point x="110.056" y="970.792" type="line"/>
			<point x="89.816" y="955.496" type="line"/>
		</contour>
		<contour>
			<point x="713.688" y="425.32" type="line"/>
			<point x="713.688" y="620.328" type="line"/>
			<point x="475.736" y="90.152" type="line"/>
			<point x="495.976" y="74.856" type="line"/>
			<point x="925.248" y="513.704" type="line"/>
			<point x="925.248" y="531.944" type="line"/>
			<point x="495.976" y="970.792" type="line"/>
			<point x="475.736" y="955.496" type="line"/>
		</contour>
	</outline>
</glyph>
<glyph name="questiondown" format="2">
  <advance width="1030"/>
  <unicode hex="00BF"/>
  <outline>
    <contour>
      <point x="701.0000000000001" y="-432.832" type="curve" smooth="yes"/>
      <point x="912.2" y="-432.832"/>
      <point x="993.144" y="-364.704"/>
      <point x="993.144" y="-276.56" type="curve" smooth="yes"/>
      <point x="993.144" y="-203.768"/>
      <point x="923.76" y="-141.68"/>
      <point x="868.448" y="-141.68" type="curve" smooth="yes"/>
      <point x="835.08" y="-141.68"/>
      <point x="696.032" y="-330.688"/>
      <point x="498.552" y="-330.688" type="curve" smooth="yes"/>
      <point x="359.968" y="-330.688"/>
      <point x="285.904" y="-259.776"/>
      <point x="285.904" y="-128.784" type="curve" smooth="yes"/>
      <point x="285.904" y="4.999999999999998"/>
      <point x="361.76" y="92.856"/>
      <point x="716.3679999999999" y="88.632" type="curve"/>
      <point x="614.856" y="502.328" type="line"/>
      <point x="573.136" y="502.328" type="line"/>
      <point x="573.136" y="172.992" type="line"/>
      <point x="608.024" y="346.48" type="line"/>
      <point x="237.36" y="361.128"/>
      <point x="111.584" y="259.56800000000004"/>
      <point x="111.584" y="16.887999999999998" type="curve" smooth="yes"/>
      <point x="111.584" y="-228.8"/>
      <point x="332.368" y="-432.832"/>
    </contour>
    <contour>
      <point x="592.264" y="675.872" type="curve" smooth="yes"/>
      <point x="703.424" y="675.872"/>
      <point x="781.864" y="756.3119999999999"/>
      <point x="781.864" y="860.8800000000001" type="curve" smooth="yes"/>
      <point x="781.864" y="965.448"/>
      <point x="703.424" y="1045.888"/>
      <point x="592.264" y="1045.888" type="curve" smooth="yes"/>
      <point x="481.104" y="1045.888"/>
      <point x="402.664" y="965.448"/>
      <point x="402.664" y="860.8800000000001" type="curve" smooth="yes"/>
      <point x="402.664" y="756.3119999999999"/>
      <point x="481.104" y="675.872"/>
    </contour>
  </outline>
</glyph>
<glyph name="AE" format="2">
  <advance width="2230.264"/>
  <unicode hex="00C6"/>
  <anchor x="1177.056" y="1430.0" name="UCtop"/>
  <anchor x="1177.056" y="0.0" name="bottom"/>
  <outline>
    <contour>
      <point x="456.488" y="512.88" type="line"/>
      <point x="1068.016" y="512.88" type="line"/>
      <point x="1068.016" y="592.32" type="line"/>
      <point x="456.488" y="592.32" type="line"/>
    </contour>
    <contour>
      <point x="944.6719999999999" y="1430.0" type="line"/>
      <point x="111.61599999999999" y="75.088" type="line"/>
      <point x="-48.128" y="30.368000000000002" type="line"/>
      <point x="-48.128" y="0.0" type="line"/>
      <point x="378.35200000000003" y="0.0" type="line"/>
      <point x="378.35200000000003" y="30.368000000000002" type="line"/>
      <point x="202.24" y="72.792" type="line"/>
      <point x="1006.0559999999999" y="1383.816" type="line"/>
      <point x="1006.0559999999999" y="1430.0" type="line"/>
    </contour>
    <contour>
      <point x="729.2320000000001" y="1397.336" type="line"/>
      <point x="906.696" y="1355.56" type="line"/>
      <point x="957.504" y="1430.0" type="line"/>
      <point x="729.2320000000001" y="1430.0" type="line"/>
    </contour>
    <contour>
      <point x="1802.952" y="1064.92" type="line"/>
      <point x="1774.472" y="1064.92" type="line"/>
      <point x="1645.328" y="801.552" type="line"/>
      <point x="1269.36" y="775.496" type="line"/>
      <point x="1269.36" y="718.152" type="line"/>
      <point x="1645.328" y="694.8000000000001" type="line"/>
      <point x="1774.472" y="429.08" type="line"/>
      <point x="1802.952" y="429.08" type="line"/>
      <point x="1755.992" y="746.0" type="line"/>
    </contour>
    <contour>
      <point x="2131.744" y="993.8799999999999" type="line"/>
      <point x="2040.768" y="1506.68" type="line"/>
      <point x="2024.3439999999998" y="1506.68" type="line"/>
      <point x="1879.68" y="1430.0" type="line"/>
      <point x="1154.4959999999999" y="1430.0" type="line"/>
      <point x="1154.4959999999999" y="1344.0800000000002" type="line"/>
      <point x="2008.2" y="1344.0800000000002" type="line"/>
      <point x="1844.184" y="1389.464" type="line"/>
      <point x="2097.672" y="983.288" type="line"/>
    </contour>
    <contour>
      <point x="1887.4560000000001" y="47.312000000000005" type="line"/>
      <point x="2035.624" y="85.92" type="line"/>
      <point x="1154.4959999999999" y="85.92" type="line"/>
      <point x="1154.4959999999999" y="0.0" type="line"/>
      <point x="1923.712" y="0.0" type="line"/>
      <point x="2058.84" y="-72.792" type="line"/>
      <point x="2081.096" y="-72.792" type="line"/>
      <point x="2202.648" y="457.856" type="line"/>
      <point x="2164.688" y="467.44800000000004" type="line"/>
    </contour>
    <contour>
      <point x="820.536" y="0.0" type="line"/>
      <point x="1377.904" y="0.0" type="line"/>
      <point x="1377.904" y="1430.0" type="line"/>
      <point x="976.208" y="1430.0" type="line"/>
      <point x="976.208" y="80.72" type="line"/>
      <point x="820.536" y="34.832" type="line"/>
    </contour>
  </outline>
</glyph>
<glyph name="Ccedilla" format="2">
	<unicode hex="00C7"/>
	<advance width="1457.176"/>
	<outline>
		<contour>
			<point x="962.24" y="39.976" type="curve" smooth="yes"/>
			<point x="702.952" y="39.976"/>
			<point x="486.552" y="337.088"/>
			<point x="486.552" y="786.232" type="curve" smooth="yes"/>
			<point x="486.552" y="1233.28"/>
			<point x="651.216" y="1383.912"/>
			<point x="869.632" y="1383.912" type="curve" smooth="yes"/>
			<point x="974.672" y="1383.912"/>
			<point x="1066.472" y="1352.744"/>
			<point x="1184.584" y="1237.696" type="curve"/>
			<point x="1107" y="1332.184" type="line"/>
			<point x="1353.84" y="947.288" type="line"/>
			<point x="1386.616" y="956.768" type="line"/>
			<point x="1280.416" y="1500.848" type="line"/>
			<point x="1265.12" y="1500.848" type="line"/>
			<point x="1119.184" y="1394.112" type="line"/>
			<point x="1207.824" y="1419.072" type="line"/>
			<point x="1088.696" y="1445.72"/>
			<point x="1005.896" y="1456.48"/>
			<point x="888.416" y="1456.48" type="curve" smooth="yes"/>
			<point x="402.352" y="1456.48"/>
			<point x="74.208" y="1160.592"/>
			<point x="74.208" y="728.352" type="curve" smooth="yes"/>
			<point x="74.208" y="230.944"/>
			<point x="401.824" y="-26.48"/>
			<point x="894.608" y="-26.48" type="curve" smooth="yes"/>
			<point x="1053.048" y="-26.48"/>
			<point x="1174.656" y="-12.24"/>
			<point x="1317.36" y="24.984" type="curve"/>
			<point x="1403.136" y="420.808" type="line"/>
			<point x="1369.064" y="420.808" type="line"/>
			<point x="1138.984" y="74.192" type="line"/>
			<point x="1190.296" y="118.248" type="line"/>
			<point x="1120.936" y="65.016"/>
			<point x="1045.744" y="39.976"/>
		</contour>
		<contour>
			<point x="729.456" y="-465" type="curve" smooth="yes"/>
			<point x="879.064" y="-465"/>
			<point x="1016.504" y="-370.688"/>
			<point x="1016.504" y="-249.912" type="curve" smooth="yes"/>
			<point x="1016.504" y="-179.432"/>
			<point x="979.504" y="-117.488"/>
			<point x="782.416" y="-71.432" type="curve"/>
			<point x="744.456" y="-182.256" type="line"/>
			<point x="915.408" y="31.752" type="line"/>
			<point x="852.672" y="31.752" type="line"/>
			<point x="661.016" y="-214.496" type="line"/>
			<point x="661.016" y="-219.496" type="line"/>
			<point x="845.864" y="-252.96"/>
			<point x="879.272" y="-295.72"/>
			<point x="879.272" y="-337.592" type="curve" smooth="yes"/>
			<point x="879.272" y="-384.408"/>
			<point x="843.696" y="-413.28"/>
			<point x="791.992" y="-413.28" type="curve" smooth="yes"/>
			<point x="728.824" y="-413.28"/>
			<point x="661.328" y="-324.32"/>
			<point x="645.328" y="-324.32" type="curve" smooth="yes"/>
			<point x="610.496" y="-324.32"/>
			<point x="593.552" y="-353.504"/>
			<point x="593.552" y="-383.04" type="curve" smooth="yes"/>
			<point x="593.552" y="-429.168"/>
			<point x="630.088" y="-465"/>
		</contour>
	</outline>
</glyph>
<glyph name="multiply" format="2">
	<unicode hex="00D7"/>
	<advance width="1150"/>
	<outline>
		<contour>
			<point x="219.52" y="217.128" type="line"/>
			<point x="280.128" y="156.52" type="line"/>
			<point x="930.48" y="806.872" type="line"/>
			<point x="869.872" y="867.48" type="line"/>
		</contour>
		<contour>
			<point x="219.52" y="806.872" type="line"/>
			<point x="869.872" y="156.52" type="line"/>
			<point x="930.48" y="217.128" type="line"/>
			<point x="280.128" y="867.48" type="line"/>
		</contour>
	</outline>
</glyph>
<glyph name="Oslash" format="2">
  <advance width="1672.472"/>
  <unicode hex="00D8"/>
  <anchor x="836.736" y="1430.0" name="UCtop"/>
  <anchor x="836.736" y="0.0" name="bottom"/>
  <outline>
    <contour>
      <point x="441.616" y="336.08" type="line"/>
      <point x="324.59200000000004" y="247.79199999999997" type="line"/>
      <point x="82.784" y="0.0" type="line"/>
      <point x="201.40800000000002" y="0.0" type="line"/>
      <point x="387.552" y="190.72" type="line"/>
      <point x="488.56" y="263.344" type="line"/>
      <point x="1231.208" y="1093.9199999999998" type="line"/>
      <point x="1347.8799999999999" y="1182.2079999999999" type="line"/>
      <point x="1590.04" y="1430.0" type="line"/>
      <point x="1471.768" y="1430.0" type="line"/>
      <point x="1285.624" y="1239.28" type="line"/>
      <point x="1184.616" y="1166.656" type="line"/>
    </contour>
    <contour>
      <point x="856.1759999999999" y="1456.48" type="curve" smooth="yes"/>
      <point x="408.59200000000004" y="1456.48"/>
      <point x="83.13600000000001" y="1140.76"/>
      <point x="83.13600000000001" y="697.152" type="curve" smooth="yes"/>
      <point x="83.13600000000001" y="267.448"/>
      <point x="392.744" y="-26.48"/>
      <point x="817.704" y="-26.48" type="curve" smooth="yes"/>
      <point x="1264.584" y="-26.48"/>
      <point x="1590.0400000000002" y="289.24"/>
      <point x="1590.0400000000002" y="733.552" type="curve" smooth="yes"/>
      <point x="1590.0400000000002" y="1162.552"/>
      <point x="1280.432" y="1456.48"/>
    </contour>
    <contour>
      <point x="851.568" y="46.792" type="curve" smooth="yes"/>
      <point x="624.2560000000001" y="46.792"/>
      <point x="489.48" y="307.496"/>
      <point x="489.48" y="783.936" type="curve" smooth="yes"/>
      <point x="489.48" y="1212.5040000000001"/>
      <point x="626.528" y="1383.5600000000002"/>
      <point x="821.6080000000001" y="1383.5600000000002" type="curve" smooth="yes"/>
      <point x="1048.216" y="1383.5600000000002"/>
      <point x="1183.3439999999998" y="1122.504"/>
      <point x="1183.3439999999998" y="646.064" type="curve" smooth="yes"/>
      <point x="1183.3439999999998" y="217.848"/>
      <point x="1046.296" y="46.792"/>
    </contour>
  </outline>
</glyph>
<glyph name="Thorn" format="2">
  <advance width="1461"/>
  <unicode hex="00DE"/>
  <outline>
    <contour>
      <point x="1013.24" y="729.704" type="curve" smooth="yes"/>
      <point x="1013.24" y="521.424"/>
      <point x="884.864" y="410.01599999999996"/>
      <point x="698.416" y="410.01599999999996" type="curve" smooth="yes"/>
      <point x="398.112" y="410.01599999999996" type="line"/>
      <point x="412.368" y="324.096" type="line"/>
      <point x="865.0" y="324.096" type="line" smooth="yes"/>
      <point x="1239.96" y="324.096"/>
      <point x="1402.7359999999999" y="510.04"/>
      <point x="1402.7359999999999" y="734.928" type="curve" smooth="yes"/>
      <point x="1402.7359999999999" y="956.7040000000001"/>
      <point x="1248.904" y="1136.3120000000001"/>
      <point x="865.0" y="1136.3120000000001" type="curve" smooth="yes"/>
      <point x="412.368" y="1136.3120000000001" type="line"/>
      <point x="398.112" y="1050.392" type="line"/>
      <point x="640.992" y="1050.392" type="line" smooth="yes"/>
      <point x="909.68" y="1050.392"/>
      <point x="1013.24" y="933.984"/>
    </contour>
    <contour>
      <point x="767.432" y="34.832" type="line"/>
      <point x="611.76" y="80.72" type="line"/>
      <point x="611.76" y="1350.28" type="line"/>
      <point x="767.432" y="1394.52" type="line"/>
      <point x="767.432" y="1430.0" type="line"/>
      <point x="54.392" y="1430.0" type="line"/>
      <point x="54.392" y="1394.52" type="line"/>
      <point x="210.06400000000002" y="1350.28" type="line"/>
      <point x="210.06400000000002" y="80.72" type="line"/>
      <point x="54.392" y="34.832" type="line"/>
      <point x="54.392" y="0.0" type="line"/>
      <point x="767.432" y="0.0" type="line"/>
    </contour>
  </outline>
</glyph>
<glyph name="germandbls" format="2">
	<unicode hex="00DF"/>
	<advance width="1413.744"/>
	<outline>
		<contour>
			<point x="183.04" y="966.248" type="curve" smooth="yes"/>
			<point x="183.04" y="64.128" type="line"/>
			<point x="76.976" y="30.888" type="line"/>
			<point x="76.976" y="0" type="line"/>
			<point x="640.368" y="0" type="line"/>
			<point x="640.368" y="30.888" type="line"/>
			<point x="533.744" y="66.072" type="line"/>
			<point x="533.744" y="1061.856" type="line" smooth="yes"/>
			<point x="533.744" y="1321.664"/>
			<point x="624.488" y="1424.688"/>
			<point x="782.44" y="1424.688" type="curve" smooth="yes"/>
			<point x="947.48" y="1424.688"/>
			<point x="1018.056" y="1295.136"/>
			<point x="1018.056" y="1195.6" type="curve" smooth="yes"/>
			<point x="1018.056" y="962.56"/>
			<point x="720.088" y="940.28"/>
			<point x="720.088" y="698.152" type="curve" smooth="yes"/>
			<point x="720.088" y="360.032"/>
			<point x="1150.264" y="460.896"/>
			<point x="1150.264" y="217.968" type="curve" smooth="yes"/>
			<point x="1150.264" y="100.504"/>
			<point x="1066.08" y="29.24"/>
			<point x="947.504" y="29.24" type="curve" smooth="yes"/>
			<point x="911.24" y="29.24"/>
			<point x="874.2" y="36.112"/>
			<point x="841.088" y="48.04" type="curve"/>
			<point x="895.416" y="8.744" type="line"/>
			<point x="727.568" y="318.408" type="line"/>
			<point x="696.624" y="318.408" type="line"/>
			<point x="745.496" y="7.392" type="line"/>
			<point x="809.5380032008" y="-13.6853142928"/>
			<point x="866.3995616438" y="-22.592"/>
			<point x="957.296" y="-22.592" type="curve" smooth="yes"/>
			<point x="1194.696" y="-22.592"/>
			<point x="1374.04" y="133.96"/>
			<point x="1374.04" y="359.36" type="curve" smooth="yes"/>
			<point x="1374.04" y="753.984"/>
			<point x="925.24" y="676.024"/>
			<point x="925.24" y="871.416" type="curve" smooth="yes"/>
			<point x="925.24" y="1047.288"/>
			<point x="1246.48" y="1014.52"/>
			<point x="1246.48" y="1240.928" type="curve" smooth="yes"/>
			<point x="1246.48" y="1362.464"/>
			<point x="1146.664" y="1490.48"/>
			<point x="823.752" y="1490.48" type="curve" smooth="yes"/>
			<point x="473.232" y="1490.48"/>
			<point x="183.04" y="1291.856"/>
		</contour>
		<contour>
			<point x="212.984" y="1046.496" type="line"/>
			<point x="18.04" y="964.872" type="line"/>
			<point x="18.04" y="934.168" type="line"/>
			<point x="199.04" y="841.736" type="line"/>
		</contour>
	</outline>
</glyph>
<glyph name="ae" format="2">
	<unicode hex="00E6"/>
	<advance width="1613.984"/>
	<outline>
		<contour>
			<point x="446.664" y="951.504" type="curve" smooth="yes"/>
			<point x="564.872" y="951.504"/>
			<point x="621.504" y="887.28"/>
			<point x="621.504" y="780.736" type="curve" smooth="yes"/>
			<point x="621.504" y="306.184" type="line" smooth="yes"/>
			<point x="621.504" y="209.992"/>
			<point x="577.2" y="170.152"/>
			<point x="510.152" y="170.152" type="curve" smooth="yes"/>
			<point x="440.072" y="170.152"/>
			<point x="393.232" y="216.488"/>
			<point x="393.232" y="326.304" type="curve" smooth="yes"/>
			<point x="393.232" y="451.104"/>
			<point x="433.96" y="517.664"/>
			<point x="666.104" y="600.672" type="curve"/>
			<point x="668.064" y="652.392" type="line"/>
			<point x="134.952" y="489.944"/>
			<point x="57.08" y="409.112"/>
			<point x="57.08" y="241.888" type="curve" smooth="yes"/>
			<point x="57.08" y="78.424"/>
			<point x="163.584" y="-24.536"/>
			<point x="354.856" y="-24.536" type="curve" smooth="yes"/>
			<point x="525.432" y="-24.536"/>
			<point x="646.872" y="85.632"/>
			<point x="655.576" y="288.392" type="curve"/>
			<point x="635.8" y="276.728" type="line"/>
			<point x="705.568" y="59.192"/>
			<point x="873.072" y="-26.48"/>
			<point x="1118.92" y="-26.48" type="curve" smooth="yes"/>
			<point x="1304.544" y="-26.48"/>
			<point x="1438.152" y="57.72"/>
			<point x="1579" y="309.208" type="curve"/>
			<point x="1554.576" y="329.928" type="line"/>
			<point x="1464.248" y="235.04"/>
			<point x="1379.52" y="202.056"/>
			<point x="1271.464" y="202.056" type="curve" smooth="yes"/>
			<point x="1058.736" y="202.056"/>
			<point x="948.064" y="322.856"/>
			<point x="948.064" y="631.936" type="curve" smooth="yes"/>
			<point x="948.064" y="896.952"/>
			<point x="1006.832" y="981.392"/>
			<point x="1112.456" y="981.392" type="curve" smooth="yes"/>
			<point x="1198.112" y="981.392"/>
			<point x="1239.08" y="900.144"/>
			<point x="1251.656" y="647.944" type="curve"/>
			<point x="1410.008" y="696.96" type="line"/>
			<point x="883.928" y="696.96" type="line"/>
			<point x="883.928" y="617.576" type="line"/>
			<point x="1561.48" y="617.576" type="line"/>
			<point x="1541.536" y="891.224"/>
			<point x="1400.408" y="1050.48"/>
			<point x="1146.344" y="1050.48" type="curve" smooth="yes"/>
			<point x="973.3056" y="1050.48"/>
			<point x="845.6752487507" y="964.7758777017"/>
			<point x="756.552" y="845.424" type="curve"/>
			<point x="915.944" y="845.424" type="line"/>
			<point x="869.3678797556" y="972.7711575398"/>
			<point x="778.7558027047" y="1050.48"/>
			<point x="600.128" y="1050.48" type="curve" smooth="yes"/>
			<point x="337.536" y="1050.48"/>
			<point x="67.024" y="898.672"/>
			<point x="67.024" y="778.896" type="curve" smooth="yes"/>
			<point x="67.024" y="738.192"/>
			<point x="99.32" y="713.712"/>
			<point x="168.704" y="713.712" type="curve" smooth="yes"/>
			<point x="221.256" y="713.712"/>
			<point x="267.736" y="734.488"/>
			<point x="289.272" y="763.912" type="curve" smooth="yes"/>
			<point x="313.976" y="797.208"/>
			<point x="327.032" y="857.4"/>
			<point x="343.104" y="995.552" type="curve"/>
			<point x="301.12" y="936.112" type="line"/>
			<point x="334.88" y="946.04"/>
			<point x="386.496" y="951.504"/>
		</contour>
	</outline>
	<anchor name="top" x="784.784" y="1024"/>
	<anchor name="bottom" x="784.784" y="0"/>
</glyph>
<glyph name="eth" format="2">
  <advance width="1204"/>
  <unicode hex="00F0"/>
  <outline>
    <contour>
      <point x="585.312" y="-26.48" type="curve" smooth="yes"/>
      <point x="901.88" y="-26.48"/>
      <point x="1139.08" y="189.88799999999998"/>
      <point x="1139.08" y="601.848" type="curve" smooth="yes"/>
      <point x="1139.08" y="991.1999999999999"/>
      <point x="966.12" y="1397.5120000000002"/>
      <point x="220.08" y="1490.776" type="curve"/>
      <point x="203.136" y="1445.2240000000002" type="line"/>
      <point x="729.336" y="1299.56"/>
      <point x="814.232" y="1093.76"/>
      <point x="811.536" y="692.4879999999999" type="curve"/>
      <point x="912.264" y="669.88" type="line"/>
      <point x="898.256" y="924.76"/>
      <point x="740.848" y="1012.0"/>
      <point x="580.128" y="1012.0" type="curve" smooth="yes"/>
      <point x="289.464" y="1012.0"/>
      <point x="55.856" y="801.168"/>
      <point x="55.856" y="485.35200000000003" type="curve" smooth="yes"/>
      <point x="55.856" y="178.944"/>
      <point x="271.616" y="-26.48"/>
    </contour>
    <contour>
      <point x="599.44" y="40.2" type="curve" smooth="yes"/>
      <point x="466.464" y="40.2"/>
      <point x="418.912" y="207.296"/>
      <point x="418.912" y="520.4399999999999" type="curve" smooth="yes"/>
      <point x="418.912" y="816.088"/>
      <point x="470.704" y="946.9680000000001"/>
      <point x="594.8480000000001" y="946.9680000000001" type="curve" smooth="yes"/>
      <point x="728.176" y="946.9680000000001"/>
      <point x="775.7280000000001" y="778.52"/>
      <point x="775.7280000000001" y="464.67199999999997" type="curve" smooth="yes"/>
      <point x="775.7280000000001" y="169.07999999999998"/>
      <point x="723.9359999999999" y="40.2"/>
    </contour>
    <contour>
      <point x="403.36" y="1092.5759999999998" type="line"/>
      <point x="884.9599999999999" y="1462.8319999999999" type="line"/>
      <point x="847.128" y="1510.5520000000001" type="line"/>
      <point x="365.176" y="1140.6480000000001" type="line"/>
    </contour>
  </outline>
</glyph>
<glyph name="divide" format="2">
	<unicode hex="00F7"/>
	<advance width="1150"/>
	<outline>
		<contour>
			<point x="575" y="271.904" type="curve" smooth="yes"/>
			<point x="506.28" y="271.904"/>
			<point x="456.448" y="218.424"/>
			<point x="456.448" y="154" type="curve" smooth="yes"/>
			<point x="456.448" y="89.576"/>
			<point x="506.28" y="37.096"/>
			<point x="575" y="37.096" type="curve" smooth="yes"/>
			<point x="643.72" y="37.096"/>
			<point x="693.552" y="89.576"/>
			<point x="693.552" y="154" type="curve" smooth="yes"/>
			<point x="693.552" y="218.424"/>
			<point x="643.72" y="271.904"/>
		</contour>
		<contour>
			<point x="575" y="986.904" type="curve" smooth="yes"/>
			<point x="506.28" y="986.904"/>
			<point x="456.448" y="934.424"/>
			<point x="456.448" y="870" type="curve" smooth="yes"/>
			<point x="456.448" y="805.576"/>
			<point x="506.28" y="752.448"/>
			<point x="575" y="752.448" type="curve" smooth="yes"/>
			<point x="643.72" y="752.448"/>
			<point x="693.552" y="805.576"/>
			<point x="693.552" y="870" type="curve" smooth="yes"/>
			<point x="693.552" y="934.424"/>
			<point x="643.72" y="986.904"/>
		</contour>
		<contour>
			<point x="164" y="554.72" type="line"/>
			<point x="164" y="469.28" type="line"/>
			<point x="986" y="469.28" type="line"/>
			<point x="986" y="554.72" type="line"/>
		</contour>
	</outline>
</glyph>
<glyph name="oslash" format="2">
  <advance width="1214.008"/>
  <unicode hex="00F8"/>
  <anchor x="607.328" y="1024.0" name="top"/>
  <anchor x="607.328" y="0.0" name="bottom"/>
  <outline>
    <contour>
      <point x="49.120000000000005" y="0.0" type="line"/>
      <point x="157.504" y="0.0" type="line"/>
      <point x="281.056" y="129.072" type="line"/>
      <point x="351.472" y="166.624" type="line"/>
      <point x="910.088" y="792.7280000000001" type="line"/>
      <point x="976.8399999999999" y="826.672" type="line"/>
      <point x="1164.888" y="1024.0" type="line"/>
      <point x="1056.856" y="1024.0" type="line"/>
      <point x="933.656" y="894.928" type="line"/>
      <point x="859.72" y="852.8" type="line"/>
      <point x="300.752" y="227.048" type="line"/>
      <point x="237.87199999999999" y="198.032" type="line"/>
    </contour>
    <contour>
      <point x="607.568" y="40.2" type="curve" smooth="yes"/>
      <point x="474.592" y="40.2"/>
      <point x="431.616" y="208.20000000000002"/>
      <point x="431.616" y="538.92" type="curve" smooth="yes"/>
      <point x="431.616" y="851.144"/>
      <point x="479.18399999999997" y="983.152"/>
      <point x="605.792" y="983.152" type="curve" smooth="yes"/>
      <point x="738.768" y="983.152"/>
      <point x="781.744" y="815.8000000000001"/>
      <point x="781.744" y="485.08" type="curve" smooth="yes"/>
      <point x="781.744" y="172.208"/>
      <point x="734.1759999999999" y="40.2"/>
    </contour>
    <contour>
      <point x="595.1999999999999" y="-26.48" type="curve" smooth="yes"/>
      <point x="905.432" y="-26.48"/>
      <point x="1145.4479999999999" y="194.112"/>
      <point x="1145.4479999999999" y="515.5360000000001" type="curve" smooth="yes"/>
      <point x="1145.4479999999999" y="831.776"/>
      <point x="935.04" y="1050.48"/>
      <point x="618.16" y="1050.48" type="curve" smooth="yes"/>
      <point x="303.224" y="1050.48"/>
      <point x="68.56" y="828.8879999999999"/>
      <point x="68.56" y="508.464" type="curve" smooth="yes"/>
      <point x="68.56" y="192.576"/>
      <point x="284.32" y="-26.48"/>
    </contour>
  </outline>
</glyph>
<glyph name="thorn" format="2">
	<unicode hex="00FE"/>
	<advance width="1242.24"/>
	<outline>
		<contour>
			<point x="119.376" y="1220.392" type="curve"/>
			<point x="119.376" y="-374.392" type="line"/>
			<point x="13.312" y="-407.632" type="line"/>
			<point x="13.312" y="-438.52" type="line"/>
			<point x="594.032" y="-438.52" type="line"/>
			<point x="594.032" y="-407.632" type="line"/>
			<point x="467.968" y="-374.392" type="line"/>
			<point x="467.968" y="51.928" type="line"/>
			<point x="267.872" y="51.928" type="line"/>
			<point x="373.944" y="-3.424"/>
			<point x="494.816" y="-26.48"/>
			<point x="615.704" y="-26.48" type="curve" smooth="yes"/>
			<point x="941.888" y="-26.48"/>
			<point x="1182.44" y="187.224"/>
			<point x="1182.44" y="578.2" type="curve" smooth="yes"/>
			<point x="1182.44" y="878.864"/>
			<point x="1047.824" y="1050.48"/>
			<point x="800.08" y="1050.48" type="curve" smooth="yes"/>
			<point x="678.416" y="1050.48"/>
			<point x="592.464" y="1012.624"/>
			<point x="408.984" y="822.624" type="curve"/>
			<point x="414.264" y="791.608" type="line"/>
			<point x="466.328" y="839.304"/>
			<point x="527.632" y="865.528"/>
			<point x="604.344" y="865.528" type="curve" smooth="yes"/>
			<point x="759.616" y="865.528"/>
			<point x="821.848" y="760.872"/>
			<point x="821.848" y="487.832" type="curve" smooth="yes"/>
			<point x="821.848" y="157.248"/>
			<point x="747.432" y="37.72"/>
			<point x="620.12" y="37.72" type="curve" smooth="yes"/>
			<point x="525.776" y="37.72"/>
			<point x="467.968" y="103.208"/>
			<point x="467.968" y="209.584" type="curve" smooth="yes"/>
			<point x="467.968" y="1287.968" type="line"/>
			<point x="467.968" y="1490.48" type="line"/>
			<point x="449.064" y="1490.48" type="line"/>
			<point x="-42.976" y="1381.08" type="line"/>
			<point x="-42.976" y="1353.36" type="line"/>
			<point x="35.024" y="1289.4153128834"/>
			<point x="93.376" y="1241.7068957055"/>
		</contour>
	</outline>
</glyph>
<glyph name="Aogonek" format="2">
	<unicode hex="0104"/>
	<advance width="1577.768"/>
	<outline>
		<contour>
			<point x="324.56" y="480.48" type="line"/>
			<point x="1028.968" y="480.48" type="line"/>
			<point x="1028.968" y="559.92" type="line"/>
			<point x="324.56" y="559.92" type="line"/>
		</contour>
		<contour>
			<point x="1465.304" y="84.96" type="line"/>
			<point x="871.632" y="1437.04" type="line"/>
			<point x="654.784" y="1437.04" type="line"/>
			<point x="127.52" y="83.888" type="line"/>
			<point x="-25.48" y="33.536" type="line"/>
			<point x="-25.48" y="0" type="line"/>
			<point x="395.184" y="0" type="line"/>
			<point x="395.184" y="33.536" type="line"/>
			<point x="215.552" y="80.888" type="line"/>
			<point x="633.984" y="1186.448" type="line"/>
			<point x="572.048" y="1155.344" type="line"/>
			<point x="1035.76" y="82.96" type="line"/>
			<point x="864.128" y="34.832" type="line"/>
			<point x="864.128" y="0" type="line"/>
			<point x="1621.304" y="0" type="line"/>
			<point x="1621.304" y="34.832" type="line"/>
		</contour>
		<contour>
			<point x="1259.752" y="-35.08" type="curve" smooth="yes"/>
			<point x="1344.6" y="89.608" type="line"/>
			<point x="1314.768" y="89.608" type="line"/>
			<point x="1171.68" y="-61.656" type="line" smooth="yes"/>
			<point x="1036.32" y="-199.968"/>
			<point x="1009.952" y="-262.8"/>
			<point x="1009.952" y="-325.928" type="curve" smooth="yes"/>
			<point x="1009.952" y="-402.76"/>
			<point x="1057.656" y="-465"/>
			<point x="1169.32" y="-465" type="curve" smooth="yes"/>
			<point x="1241.856" y="-465"/>
			<point x="1296.928" y="-436.408"/>
			<point x="1398.592" y="-317.56" type="curve"/>
			<point x="1385" y="-295.728" type="line"/>
			<point x="1325.872" y="-340.968"/>
			<point x="1290.224" y="-345.376"/>
			<point x="1259.816" y="-345.376" type="curve" smooth="yes"/>
			<point x="1196.112" y="-345.376"/>
			<point x="1158.464" y="-313.024"/>
			<point x="1158.464" y="-259.616" type="curve" smooth="yes"/>
			<point x="1158.464" y="-211.8"/>
			<point x="1175.872" y="-151.648"/>
		</contour>
	</outline>
</glyph>
<glyph name="aogonek" format="2">
  <advance width="1130.7520000000002"/>
  <unicode hex="0105"/>
  <outline>
    <contour>
      <point x="1136.96" y="99.44800000000001" type="line"/>
      <point x="1136.96" y="149.12800000000001" type="line"/>
      <point x="1102.568" y="131.032"/>
      <point x="1070.232" y="122.864"/>
      <point x="1037.544" y="122.864" type="curve" smooth="yes"/>
      <point x="995.024" y="122.864"/>
      <point x="970.096" y="143.976"/>
      <point x="970.096" y="195.072" type="curve" smooth="yes"/>
      <point x="970.096" y="732.992" type="line" smooth="yes"/>
      <point x="970.096" y="927.6320000000001"/>
      <point x="869.84" y="1050.48"/>
      <point x="600.128" y="1050.48" type="curve" smooth="yes"/>
      <point x="337.536" y="1050.48"/>
      <point x="67.024" y="898.672"/>
      <point x="67.024" y="778.896" type="curve" smooth="yes"/>
      <point x="67.024" y="738.1919999999999"/>
      <point x="99.32000000000001" y="713.712"/>
      <point x="168.704" y="713.712" type="curve" smooth="yes"/>
      <point x="221.256" y="713.712"/>
      <point x="267.736" y="734.488"/>
      <point x="289.272" y="763.912" type="curve" smooth="yes"/>
      <point x="312.68" y="795.264"/>
      <point x="325.736" y="852.216"/>
      <point x="339.86400000000003" y="967.04" type="curve"/>
      <point x="301.12" y="936.1120000000001" type="line"/>
      <point x="334.88000000000005" y="946.04"/>
      <point x="386.496" y="951.504"/>
      <point x="446.664" y="951.504" type="curve" smooth="yes"/>
      <point x="564.872" y="951.504"/>
      <point x="621.504" y="887.2800000000001"/>
      <point x="621.504" y="780.736" type="curve" smooth="yes"/>
      <point x="621.504" y="306.184" type="line" smooth="yes"/>
      <point x="621.504" y="209.992"/>
      <point x="577.2" y="170.15200000000002"/>
      <point x="510.152" y="170.15200000000002" type="curve" smooth="yes"/>
      <point x="440.072" y="170.15200000000002"/>
      <point x="393.23199999999997" y="215.19199999999998"/>
      <point x="393.23199999999997" y="324.36" type="curve" smooth="yes"/>
      <point x="393.23199999999997" y="448.512"/>
      <point x="433.96" y="514.424"/>
      <point x="666.104" y="597.432" type="curve"/>
      <point x="668.0640000000001" y="648.504" type="line"/>
      <point x="134.952" y="487.352"/>
      <point x="57.08" y="406.52"/>
      <point x="57.08" y="240.59199999999998" type="curve" smooth="yes"/>
      <point x="57.08" y="77.776"/>
      <point x="163.584" y="-24.536"/>
      <point x="357.44800000000004" y="-24.536" type="curve" smooth="yes"/>
      <point x="495.22400000000005" y="-24.536"/>
      <point x="595.28" y="60.392"/>
      <point x="635.76" y="236.696" type="curve"/>
      <point x="622.3919999999999" y="246.416" type="line"/>
      <point x="627.3919999999999" y="56.815999999999995"/>
      <point x="683.128" y="-26.48"/>
      <point x="837.768" y="-26.48" type="curve" smooth="yes"/>
      <point x="926.2239999999999" y="-26.48"/>
      <point x="994.424" y="-9.056000000000001"/>
      <point x="1067.44" y="41.592" type="curve"/>
      <point x="1060.44" y="52.480000000000004" type="line"/>
      <point x="951.72" y="-55.096000000000004" type="line" smooth="yes"/>
      <point x="802.264" y="-199.112"/>
      <point x="776.968" y="-256.576"/>
      <point x="776.968" y="-322.76" type="curve" smooth="yes"/>
      <point x="776.968" y="-401.35200000000003"/>
      <point x="822.9119999999999" y="-465.0"/>
      <point x="934.576" y="-465.0" type="curve" smooth="yes"/>
      <point x="1007.112" y="-465.0"/>
      <point x="1062.1840000000002" y="-436.408"/>
      <point x="1163.848" y="-317.56" type="curve"/>
      <point x="1150.256" y="-295.728" type="line"/>
      <point x="1091.128" y="-340.968"/>
      <point x="1055.48" y="-345.376"/>
      <point x="1025.072" y="-345.376" type="curve" smooth="yes"/>
      <point x="962.424" y="-345.376"/>
      <point x="925.48" y="-309.15200000000004"/>
      <point x="925.48" y="-255.04" type="curve" smooth="yes"/>
      <point x="925.48" y="-207.22400000000002"/>
      <point x="939.184" y="-151.464"/>
      <point x="1040.144" y="-24.168" type="curve" smooth="yes"/>
    </contour>
  </outline>
</glyph>
<glyph name="Dcroat" format="2">
	<unicode hex="0110"/>
	<advance width="1639.776"/>
	<outline>
		<contour>
			<point x="60.336" y="706.576" type="line"/>
			<point x="873.776" y="706.576" type="line"/>
			<point x="873.776" y="790.016" type="line"/>
			<point x="60.336" y="790.016" type="line"/>
		</contour>
		<contour>
			<point x="1154.872" y="725.704" type="curve" smooth="yes"/>
			<point x="1154.872" y="265.848"/>
			<point x="1001.04" y="85.92"/>
			<point x="722.44" y="85.92" type="curve" smooth="yes"/>
			<point x="430.368" y="85.92" type="line"/>
			<point x="403.8" y="0" type="line"/>
			<point x="765.216" y="0" type="line" smooth="yes"/>
			<point x="1220.216" y="0"/>
			<point x="1564.216" y="253"/>
			<point x="1564.216" y="748" type="curve" smooth="yes"/>
			<point x="1564.216" y="1182"/>
			<point x="1268.864" y="1430"/>
			<point x="751.216" y="1430" type="curve" smooth="yes"/>
			<point x="403.8" y="1430" type="line"/>
			<point x="430.368" y="1344.08" type="line"/>
			<point x="692.272" y="1344.08" type="line" smooth="yes"/>
			<point x="1002.744" y="1344.08"/>
			<point x="1154.872" y="1146.928"/>
		</contour>
		<contour>
			<point x="60.336" y="0" type="line"/>
			<point x="617.704" y="0" type="line"/>
			<point x="617.704" y="1430" type="line"/>
			<point x="60.336" y="1430" type="line"/>
			<point x="60.336" y="1394.52" type="line"/>
			<point x="216.008" y="1350.28" type="line"/>
			<point x="216.008" y="80.72" type="line"/>
			<point x="60.336" y="34.832" type="line"/>
		</contour>
	</outline>
</glyph>
<glyph name="dcroat" format="2">
	<unicode hex="0111"/>
	<advance width="1274.536"/>
	<outline>
		<contour>
			<point x="771.976" y="814.416" type="curve" smooth="yes"/>
			<point x="771.976" y="137.976" type="line"/>
			<point x="790.768" y="-37.016" type="line"/>
			<point x="811.32" y="-37.016" type="line"/>
			<point x="1266.608" y="43.512" type="line"/>
			<point x="1266.608" y="71.344" type="line"/>
			<point x="1224.608" y="95.699857201"/>
			<point x="1144.568" y="140.8663673137"/>
			<point x="1120.568" y="154.784" type="curve"/>
			<point x="1120.568" y="1294.656" type="line"/>
			<point x="1125.496" y="1490.48" type="line"/>
			<point x="1106.944" y="1490.48" type="line"/>
			<point x="609.624" y="1381.08" type="line"/>
			<point x="609.624" y="1353.36" type="line"/>
			<point x="666.624" y="1306.631190184"/>
			<point x="747.976" y="1240.0672883436"/>
			<point x="771.976" y="1220.392" type="curve"/>
			<point x="771.976" y="961.568" type="line"/>
			<point x="1013.544" y="971.424" type="line"/>
			<point x="902.288" y="1026.776"/>
			<point x="776.232" y="1050.48"/>
			<point x="649.512" y="1050.48" type="curve" smooth="yes"/>
			<point x="307.776" y="1050.48"/>
			<point x="57.504" y="839.368"/>
			<point x="57.504" y="462.648" type="curve" smooth="yes"/>
			<point x="57.504" y="169.112"/>
			<point x="221.56" y="-26.48"/>
			<point x="480.968" y="-26.48" type="curve" smooth="yes"/>
			<point x="598.096" y="-26.48"/>
			<point x="677.568" y="12.672"/>
			<point x="830.312" y="203.968" type="curve"/>
			<point x="825.032" y="233.04" type="line"/>
			<point x="775.56" y="180.808"/>
			<point x="713.608" y="158.472"/>
			<point x="642.08" y="158.472" type="curve" smooth="yes"/>
			<point x="488.752" y="158.472"/>
			<point x="418.096" y="261.832"/>
			<point x="418.096" y="556.256" type="curve" smooth="yes"/>
			<point x="418.096" y="870.64"/>
			<point x="494.456" y="986.28"/>
			<point x="619.824" y="986.28" type="curve" smooth="yes"/>
			<point x="714.168" y="986.28"/>
			<point x="771.976" y="920.792"/>
		</contour>
		<contour>
			<point x="483.48" y="1120.192" type="line"/>
			<point x="1293.832" y="1120.192" type="line"/>
			<point x="1293.832" y="1195.856" type="line"/>
			<point x="483.48" y="1195.856" type="line"/>
		</contour>
	</outline>
</glyph>
<glyph name="Eogonek" format="2">
	<unicode hex="0118"/>
	<advance width="1464.12"/>
	<outline>
		<contour>
			<point x="1036.808" y="1064.92" type="line"/>
			<point x="1008.328" y="1064.92" type="line"/>
			<point x="879.184" y="801.552" type="line"/>
			<point x="503.216" y="775.496" type="line"/>
			<point x="503.216" y="718.152" type="line"/>
			<point x="879.184" y="694.8" type="line"/>
			<point x="1008.328" y="429.08" type="line"/>
			<point x="1036.808" y="429.08" type="line"/>
			<point x="989.848" y="746" type="line"/>
		</contour>
		<contour>
			<point x="1365.6" y="993.88" type="line"/>
			<point x="1274.624" y="1506.68" type="line"/>
			<point x="1258.2" y="1506.68" type="line"/>
			<point x="1113.536" y="1430" type="line"/>
			<point x="388.352" y="1430" type="line"/>
			<point x="388.352" y="1344.08" type="line"/>
			<point x="1242.056" y="1344.08" type="line"/>
			<point x="1078.04" y="1389.464" type="line"/>
			<point x="1331.528" y="983.288" type="line"/>
		</contour>
		<contour>
			<point x="1121.312" y="47.312" type="line"/>
			<point x="1269.48" y="85.92" type="line"/>
			<point x="388.352" y="85.92" type="line"/>
			<point x="388.352" y="0" type="line"/>
			<point x="1157.568" y="0" type="line"/>
			<point x="1292.696" y="-72.792" type="line"/>
			<point x="1314.952" y="-72.792" type="line"/>
			<point x="1436.504" y="457.856" type="line"/>
			<point x="1398.544" y="467.448" type="line"/>
		</contour>
		<contour>
			<point x="54.392" y="0" type="line"/>
			<point x="611.76" y="0" type="line"/>
			<point x="611.76" y="1430" type="line"/>
			<point x="54.392" y="1430" type="line"/>
			<point x="54.392" y="1394.52" type="line"/>
			<point x="210.064" y="1350.28" type="line"/>
			<point x="210.064" y="80.72" type="line"/>
			<point x="54.392" y="34.832" type="line"/>
		</contour>
		<contour>
			<point x="1139.976" y="-37.024" type="curve" smooth="yes"/>
			<point x="1211.816" y="89.608" type="line"/>
			<point x="1181.984" y="89.608" type="line"/>
			<point x="1051.848" y="-68.488" type="line" smooth="yes"/>
			<point x="938.68" y="-204.8"/>
			<point x="921.16" y="-265.392"/>
			<point x="921.16" y="-323.336" type="curve" smooth="yes"/>
			<point x="921.16" y="-412.48"/>
			<point x="991.08" y="-465"/>
			<point x="1087.192" y="-465" type="curve" smooth="yes"/>
			<point x="1159.728" y="-465"/>
			<point x="1208.32" y="-436.408"/>
			<point x="1309.984" y="-317.56" type="curve"/>
			<point x="1296.392" y="-295.728" type="line"/>
			<point x="1237.264" y="-340.968"/>
			<point x="1201.616" y="-345.376"/>
			<point x="1171.208" y="-345.376" type="curve" smooth="yes"/>
			<point x="1107.264" y="-345.376"/>
			<point x="1062.544" y="-311.024"/>
			<point x="1063.192" y="-247.952" type="curve" smooth="yes"/>
			<point x="1063.84" y="-195.064"/>
			<point x="1078.544" y="-143.656"/>
		</contour>
	</outline>
</glyph>
<glyph name="eogonek" format="2">
	<unicode hex="0119"/>
	<advance width="1053.096"/>
	<outline>
		<contour>
			<point x="1016.464" y="309.208" type="line"/>
			<point x="992.04" y="329.928" type="line"/>
			<point x="901.712" y="235.04"/>
			<point x="816.984" y="202.056"/>
			<point x="708.928" y="202.056" type="curve" smooth="yes"/>
			<point x="496.2" y="202.056"/>
			<point x="385.528" y="322.856"/>
			<point x="385.528" y="631.936" type="curve" smooth="yes"/>
			<point x="385.528" y="896.952"/>
			<point x="444.296" y="981.392"/>
			<point x="549.92" y="981.392" type="curve" smooth="yes"/>
			<point x="635.576" y="981.392"/>
			<point x="676.544" y="905.424"/>
			<point x="689.12" y="660.616" type="curve"/>
			<point x="847.472" y="710.336" type="line"/>
			<point x="321.392" y="710.336" type="line"/>
			<point x="321.392" y="630.952" type="line"/>
			<point x="998.944" y="630.952" type="line"/>
			<point x="979" y="895.8"/>
			<point x="837.872" y="1050.48"/>
			<point x="583.808" y="1050.48" type="curve" smooth="yes"/>
			<point x="239.336" y="1050.48"/>
			<point x="56.856" y="790.352"/>
			<point x="56.856" y="491.408" type="curve" smooth="yes"/>
			<point x="56.856" y="163.832"/>
			<point x="258.448" y="-26.48"/>
			<point x="556.384" y="-26.48" type="curve" smooth="yes"/>
			<point x="693.064" y="-26.48"/>
			<point x="801.616" y="19.184"/>
			<point x="906.168" y="144.824" type="curve"/>
			<point x="894.632" y="158.952" type="line"/>
			<point x="850.072" y="91.872" type="line" smooth="yes"/>
			<point x="718.224" y="-109.12"/>
			<point x="635.768" y="-205.784"/>
			<point x="635.768" y="-311.872" type="curve" smooth="yes"/>
			<point x="635.768" y="-404.76"/>
			<point x="700.304" y="-465"/>
			<point x="810.912" y="-465" type="curve" smooth="yes"/>
			<point x="886.616" y="-465"/>
			<point x="941.688" y="-436.408"/>
			<point x="1043.352" y="-317.56" type="curve"/>
			<point x="1029.76" y="-295.728" type="line"/>
			<point x="977.112" y="-336.432"/>
			<point x="944.056" y="-345.376"/>
			<point x="904.576" y="-345.376" type="curve" smooth="yes"/>
			<point x="829.816" y="-345.376"/>
			<point x="784.984" y="-306.8"/>
			<point x="784.984" y="-227.912" type="curve" smooth="yes"/>
			<point x="784.984" y="-157.856"/>
			<point x="818.224" y="-50.656"/>
			<point x="925.072" y="143.816" type="curve" smooth="yes"/>
		</contour>
	</outline>
</glyph>
<glyph name="Iogonek" format="2">
	<unicode hex="012E"/>
	<advance width="821.824"/>
	<outline>
		<contour>
			<point x="767.432" y="34.832" type="line"/>
			<point x="611.76" y="80.72" type="line"/>
			<point x="611.76" y="1350.28" type="line"/>
			<point x="767.432" y="1394.52" type="line"/>
			<point x="767.432" y="1430" type="line"/>
			<point x="54.392" y="1430" type="line"/>
			<point x="54.392" y="1394.52" type="line"/>
			<point x="210.064" y="1350.28" type="line"/>
			<point x="210.064" y="80.72" type="line"/>
			<point x="54.392" y="34.832" type="line"/>
			<point x="54.392" y="0" type="line"/>
			<point x="767.432" y="0" type="line"/>
		</contour>
		<contour>
			<point x="435.816" y="-34.432" type="curve" smooth="yes"/>
			<point x="495" y="89.608" type="line"/>
			<point x="465.168" y="89.608" type="line"/>
			<point x="355.744" y="-62.008" type="line" smooth="yes"/>
			<point x="245.768" y="-210.952"/>
			<point x="218.456" y="-265.968"/>
			<point x="218.456" y="-325.928" type="curve" smooth="yes"/>
			<point x="218.456" y="-402.76"/>
			<point x="266.16" y="-465"/>
			<point x="377.824" y="-465" type="curve" smooth="yes"/>
			<point x="450.36" y="-465"/>
			<point x="505.432" y="-436.408"/>
			<point x="607.096" y="-317.56" type="curve"/>
			<point x="593.504" y="-295.728" type="line"/>
			<point x="534.376" y="-340.968"/>
			<point x="498.728" y="-345.376"/>
			<point x="468.32" y="-345.376" type="curve" smooth="yes"/>
			<point x="405.672" y="-345.376"/>
			<point x="366.968" y="-312.32"/>
			<point x="366.968" y="-257.152" type="curve" smooth="yes"/>
			<point x="366.968" y="-213.208"/>
			<point x="372.912" y="-164.504"/>
		</contour>
	</outline>
</glyph>
<glyph name="iogonek" format="2">
  <advance width="645.016"/>
  <unicode hex="012F"/>
  <outline>
    <contour>
      <point x="322.43199999999996" y="1150.16" type="curve" smooth="yes"/>
      <point x="431.056" y="1150.16"/>
      <point x="495.256" y="1230.472"/>
      <point x="495.256" y="1322.208" type="curve" smooth="yes"/>
      <point x="495.256" y="1411.0"/>
      <point x="431.056" y="1483.3120000000001"/>
      <point x="322.43199999999996" y="1483.3120000000001" type="curve" smooth="yes"/>
      <point x="214.456" y="1483.3120000000001"/>
      <point x="146.904" y="1411.0"/>
      <point x="146.904" y="1322.208" type="curve" smooth="yes"/>
      <point x="146.904" y="1230.472"/>
      <point x="214.456" y="1150.16"/>
    </contour>
    <contour>
      <point x="508.192" y="1054.352" type="line"/>
      <point x="489.288" y="1054.352" type="line"/>
      <point x="36.687999999999995" y="932.896" type="line"/>
      <point x="36.687999999999995" y="905.176" type="line"/>
      <point x="97.68799999999999" y="840.487510989011"/>
      <point x="137.6" y="802.8662747252747"/>
      <point x="159.6" y="779.536" type="curve"/>
      <point x="159.6" y="64.128" type="line"/>
      <point x="53.536" y="30.888" type="line"/>
      <point x="53.536" y="0.0" type="line"/>
      <point x="607.128" y="0.0" type="line"/>
      <point x="607.128" y="30.888" type="line"/>
      <point x="508.192" y="62.184" type="line"/>
      <point x="508.192" y="844.448" type="line"/>
    </contour>
    <contour>
      <point x="347.928" y="-33.728" type="curve" smooth="yes"/>
      <point x="409.224" y="89.608" type="line"/>
      <point x="379.39200000000005" y="89.608" type="line"/>
      <point x="267.50399999999996" y="-61.304" type="line" smooth="yes"/>
      <point x="158.584" y="-204.616"/>
      <point x="127.75200000000001" y="-262.8"/>
      <point x="127.75200000000001" y="-325.928" type="curve" smooth="yes"/>
      <point x="127.75200000000001" y="-402.76000000000005"/>
      <point x="173.696" y="-465.0"/>
      <point x="285.36" y="-465.0" type="curve" smooth="yes"/>
      <point x="357.89599999999996" y="-465.0"/>
      <point x="412.96799999999996" y="-436.408"/>
      <point x="514.632" y="-317.56" type="curve"/>
      <point x="501.04" y="-295.728" type="line"/>
      <point x="441.91200000000003" y="-340.968"/>
      <point x="406.264" y="-345.376"/>
      <point x="375.85600000000005" y="-345.376" type="curve" smooth="yes"/>
      <point x="313.208" y="-345.376"/>
      <point x="276.264" y="-312.32"/>
      <point x="276.264" y="-259.616" type="curve" smooth="yes"/>
      <point x="276.264" y="-213.20799999999997"/>
      <point x="282.91200000000003" y="-163.8"/>
    </contour>
  </outline>
</glyph>
<glyph name="dotlessi" format="2">
	<unicode hex="0131"/>
	<advance width="645.016"/>
	<outline>
		<contour>
			<point x="508.192" y="1054.352" type="line"/>
			<point x="489.288" y="1054.352" type="line"/>
			<point x="36.688" y="932.896" type="line"/>
			<point x="36.688" y="905.176" type="line"/>
			<point x="97.688" y="840.487510989"/>
			<point x="136.304" y="803.8498461538"/>
			<point x="159.6" y="779.536" type="curve"/>
			<point x="159.6" y="64.128" type="line"/>
			<point x="53.536" y="30.888" type="line"/>
			<point x="53.536" y="0" type="line"/>
			<point x="607.128" y="0" type="line"/>
			<point x="607.128" y="30.888" type="line"/>
			<point x="508.192" y="62.184" type="line"/>
			<point x="508.192" y="844.448" type="line"/>
		</contour>
	</outline>
	<anchor name="top" x="320.376" y="1024"/>
	<anchor name="bottom" x="315.104" y="0"/>
	<anchor name="right" x="491.584" y="0"/>
</glyph>
<glyph name="kgreenlandic" format="2">
	<unicode hex="0138"/>
	<advance width="1279.008"/>
	<outline>
		<contour>
			<point x="523.208" y="472.952" type="line"/>
			<point x="823.816" y="58.536" type="line"/>
			<point x="733.472" y="30.888" type="line"/>
			<point x="733.472" y="0" type="line"/>
			<point x="1310.024" y="0" type="line"/>
			<point x="1310.024" y="30.888" type="line"/>
			<point x="1219.704" y="64.424" type="line"/>
			<point x="764.24" y="695.776" type="line"/>
			<point x="619.208" y="561.408" type="line"/>
			<point x="1080.952" y="952.816" type="line"/>
			<point x="1248.04" y="991" type="line"/>
			<point x="1248.04" y="1024" type="line"/>
			<point x="813.496" y="1024" type="line"/>
			<point x="813.496" y="991" type="line"/>
			<point x="970.864" y="954.168" type="line"/>
			<point x="527.728" y="536.448" type="line"/>
			<point x="426.128" y="536.448" type="line"/>
			<point x="426.128" y="472.952" type="line"/>
		</contour>
		<contour>
			<point x="506.488" y="1054.352" type="line"/>
			<point x="487.584" y="1054.352" type="line"/>
			<point x="34.984" y="932.896" type="line"/>
			<point x="34.984" y="905.176" type="line"/>
			<point x="95.984" y="840.487510989"/>
			<point x="135.896" y="802.8662747253"/>
			<point x="157.896" y="779.536" type="curve"/>
			<point x="157.896" y="64.128" type="line"/>
			<point x="51.832" y="30.888" type="line"/>
			<point x="51.832" y="0" type="line"/>
			<point x="605.424" y="0" type="line"/>
			<point x="605.424" y="30.888" type="line"/>
			<point x="506.488" y="62.184" type="line"/>
			<point x="506.488" y="844.448" type="line"/>
		</contour>
	</outline>
</glyph>
<glyph name="Lslash" format="2">
  <advance width="1385.3600000000001"/>
  <unicode hex="0141"/>
  <outline>
    <contour>
      <point x="334.608" y="621.504" type="line"/>
      <point x="516.44" y="666.24" type="line"/>
      <point x="928.528" y="897.0319999999999" type="line"/>
      <point x="928.528" y="992.6560000000001" type="line"/>
      <point x="516.44" y="761.864" type="line"/>
      <point x="334.608" y="717.4799999999999" type="line"/>
      <point x="78.392" y="574.04" type="line"/>
      <point x="78.392" y="478.064" type="line"/>
    </contour>
    <contour>
      <point x="1252.472" y="-72.792" type="line"/>
      <point x="1374.024" y="457.856" type="line"/>
      <point x="1336.064" y="467.44800000000004" type="line"/>
      <point x="1045.8719999999998" y="47.312" type="line"/>
      <point x="1207.0" y="85.92" type="line"/>
      <point x="412.352" y="85.92" type="line"/>
      <point x="412.352" y="0.0" type="line"/>
      <point x="1082.128" y="0.0" type="line"/>
      <point x="1230.216" y="-72.792" type="line"/>
    </contour>
    <contour>
      <point x="635.76" y="1350.28" type="line"/>
      <point x="791.432" y="1394.52" type="line"/>
      <point x="791.432" y="1430.0" type="line"/>
      <point x="78.392" y="1430.0" type="line"/>
      <point x="78.392" y="1394.52" type="line"/>
      <point x="234.064" y="1350.28" type="line"/>
      <point x="234.064" y="80.72" type="line"/>
      <point x="78.392" y="34.832" type="line"/>
      <point x="78.392" y="0.0" type="line"/>
      <point x="635.76" y="0.0" type="line"/>
    </contour>
  </outline>
</glyph>
<glyph name="lslash" format="2">
	<unicode hex="0142"/>
	<advance width="697.44"/>
	<outline>
		<contour>
			<point x="292.568" y="664.312" type="line"/>
			<point x="371.656" y="661.056" type="line"/>
			<point x="665.104" y="897.264" type="line"/>
			<point x="665.104" y="1006.48" type="line"/>
			<point x="371.656" y="770.272" type="line"/>
			<point x="292.568" y="773.528" type="line"/>
			<point x="39.984" y="569.056" type="line"/>
			<point x="39.984" y="459.84" type="line"/>
		</contour>
		<contour>
			<point x="520.952" y="64.128" type="line"/>
			<point x="520.952" y="1287.968" type="line"/>
			<point x="520.952" y="1490.48" type="line"/>
			<point x="502.048" y="1490.48" type="line"/>
			<point x="10.008" y="1381.08" type="line"/>
			<point x="10.008" y="1353.36" type="line"/>
			<point x="88.008" y="1289.4153128834"/>
			<point x="146.36" y="1241.7068957055"/>
			<point x="172.36" y="1220.392" type="curve"/>
			<point x="172.36" y="64.128" type="line"/>
			<point x="66.296" y="30.888" type="line"/>
			<point x="66.296" y="0" type="line"/>
			<point x="627.016" y="0" type="line"/>
			<point x="627.016" y="30.888" type="line"/>
		</contour>
	</outline>
</glyph>
